<svg width="359" height="167" viewBox="0 0 359 167" fill="none" xmlns="http://www.w3.org/2000/svg">
<path d="M22.254 136.239L2.11045 28.465C0.995139 22.4978 5.41061 16.9213 11.4746 16.6386L336.533 1.48777C342.233 1.22213 346.999 5.7713 346.999 11.4769V108.818C346.999 114.017 343.016 118.349 337.835 118.783L32.9199 144.367C27.8057 144.796 23.1969 141.284 22.254 136.239Z" stroke="white" stroke-width="2"/>
<path fill-rule="evenodd" clip-rule="evenodd" d="M13.5368 30.2564L33.9507 148.718C34.8286 153.813 39.4443 157.398 44.5973 156.989L95.3406 152.958L177.745 166.929L162.62 147.614L349.791 132.746C354.99 132.333 358.999 127.993 358.999 122.778V18.0029C358.999 12.3531 354.322 7.82511 348.675 8.00817L23.0676 18.5634C17 18.7601 12.5059 24.2738 13.5368 30.2564Z" fill="#D81966"/>
<path fill-rule="evenodd" clip-rule="evenodd" d="M19.1207 29.8096L39.403 143.268C40.3085 148.333 44.9097 151.884 50.0388 151.477L98.7197 147.61L172.786 160.919L159.993 142.743L348.791 127.746C353.99 127.333 357.999 122.993 357.999 117.777V17.9936C357.999 12.3473 353.327 7.82071 347.684 7.9986L28.6495 18.0548C22.553 18.247 18.0473 23.8052 19.1207 29.8096Z" fill="#FF267E"/>
<path d="M34.0042 33.5429L42.1626 32.9768C43.0883 32.9125 44.0105 32.9357 44.929 33.0464C45.8462 33.1378 46.6763 33.3709 47.4194 33.7456C48.1804 34.0998 48.8075 34.6183 49.3006 35.3011C49.8117 35.9633 50.1047 36.8345 50.1797 37.9145C50.2145 38.416 50.1708 38.9035 50.0486 39.3771C49.9444 39.8301 49.7899 40.2575 49.5853 40.6593C49.3806 41.0611 49.1443 41.4263 48.8764 41.755C48.6265 42.063 48.3725 42.3132 48.1146 42.5055C48.533 42.6703 48.9348 42.875 49.32 43.1196C49.7231 43.3435 50.0827 43.6383 50.3988 44.004C50.7149 44.3696 50.9784 44.8165 51.1895 45.3445C51.3992 45.8532 51.5288 46.4643 51.5784 47.1779C51.6573 48.3159 51.5025 49.2956 51.1137 50.1172C50.743 50.9181 50.2085 51.5947 49.5104 52.147C48.811 52.6801 47.9775 53.0964 47.0099 53.3961C46.0603 53.6752 45.0454 53.8523 43.9654 53.9272L35.4598 54.5175L34.0042 33.5429ZM39.372 50.9902L43.943 50.6729C45.1581 50.5886 46.0472 50.275 46.6103 49.732C47.1734 49.1891 47.4214 48.4354 47.3545 47.4711C47.2863 46.4874 46.9261 45.7663 46.2741 45.3077C45.6208 44.8298 44.6481 44.6356 43.3558 44.7253L38.9584 45.0305L39.372 50.9902ZM38.7416 41.906L43.0233 41.6089C44.0069 41.5406 44.7527 41.2563 45.2606 40.7559C45.7878 40.2542 46.0193 39.5405 45.955 38.6147C45.8974 37.7854 45.5729 37.1587 44.9815 36.7346C44.3901 36.3105 43.6122 36.132 42.6478 36.1989L38.3661 36.496L38.7416 41.906ZM58.228 37.2978L59.3082 52.8624L55.3158 53.1395L54.2356 37.5749L58.228 37.2978ZM57.8526 31.8879L58.1096 35.5909L54.1172 35.868L53.8602 32.1649L57.8526 31.8879ZM66.8118 52.3417L65.9505 39.9305L60.8876 40.2819L60.6688 37.1285L74.7868 36.1486L75.0057 39.3021L69.9429 39.6534L70.8042 52.0646L66.8118 52.3417ZM87.3092 43.768C86.1986 43.9613 85.2526 44.1529 84.4712 44.3428C83.6898 44.5327 83.0557 44.7511 82.569 44.9981C82.0809 45.2258 81.7318 45.5019 81.5218 45.8266C81.3104 46.1319 81.2195 46.4968 81.2489 46.9211C81.2878 47.4804 81.543 47.9472 82.0147 48.3214C82.4864 48.6957 83.1755 48.8513 84.082 48.7884C85.3357 48.7014 86.2181 48.2914 86.7292 47.5582C87.2403 46.8251 87.4517 45.822 87.3634 44.5491L87.3092 43.768ZM87.9828 48.8666C87.481 49.7347 86.8289 50.3904 86.0263 50.8337C85.2417 51.2564 84.2611 51.5086 83.0846 51.5902C82.3324 51.6424 81.6114 51.5859 80.9217 51.4206C80.2319 51.2552 79.6133 50.9978 79.0657 50.6482C78.5375 50.2973 78.0997 49.8528 77.7523 49.3149C77.4035 48.7577 77.2051 48.132 77.1569 47.4377C77.0926 46.5119 77.2802 45.7237 77.7195 45.073C78.1768 44.4018 78.835 43.8328 79.6941 43.3662C80.5725 42.8983 81.6298 42.4954 82.866 42.1577C84.1216 41.8186 85.5051 41.5094 87.0168 41.2301L86.9967 40.9408C86.9552 40.3429 86.8432 39.8468 86.6608 39.4525C86.4771 39.0389 86.2415 38.7161 85.9541 38.4841C85.686 38.2508 85.3653 38.0986 84.9922 38.0276C84.6177 37.9373 84.2183 37.9069 83.794 37.9363C82.9261 37.9966 82.2169 38.2493 81.6664 38.6945C81.1352 39.1383 80.8804 39.7955 80.902 40.6661L77.17 40.9251C77.1936 40.1483 77.3569 39.4296 77.6599 38.769C77.9809 38.0878 78.4242 37.495 78.99 36.9907C79.5737 36.4657 80.2612 36.04 81.0525 35.7138C81.8631 35.3862 82.7603 35.1883 83.7439 35.12C84.7082 35.0531 85.6131 35.1066 86.4585 35.2805C87.3026 35.4351 88.0513 35.7513 88.7046 36.2293C89.3579 36.7072 89.8889 37.3777 90.2977 38.2408C90.7051 39.0846 90.9543 40.1623 91.0453 41.4738C91.0533 41.5895 91.0584 41.8023 91.0605 42.1123C91.0806 42.4016 91.104 42.7391 91.1308 43.1248C91.1576 43.5106 91.1761 43.9163 91.1862 44.3419C91.2143 44.7469 91.2404 45.123 91.2645 45.4702C91.3502 46.7046 91.4584 47.7048 91.589 48.4709C91.7197 49.2371 91.885 49.9426 92.0848 50.5877L88.4106 50.8427C88.3354 50.596 88.2568 50.301 88.1748 49.9579C88.1121 49.6134 88.0481 49.2496 87.9828 48.8666ZM109.352 49.7672C108.427 49.8315 107.529 49.7484 106.661 49.518C105.811 49.2862 105.038 48.9038 104.343 48.3707C103.645 47.8183 103.054 47.1133 102.568 46.2555C102.082 45.3978 101.749 44.3743 101.57 43.1852L98.7347 43.382L99.2005 50.0939L95.2081 50.3709L94.128 34.8064L98.1203 34.5293L98.5159 40.2286L101.496 40.0218C101.616 38.9669 101.872 38.0383 102.262 37.2361C102.671 36.4325 103.167 35.7585 103.749 35.2142C104.351 34.6686 105.029 34.2436 105.783 33.9394C106.556 33.6338 107.367 33.4515 108.216 33.3926C109.277 33.319 110.291 33.4133 111.259 33.6756C112.227 33.9379 113.091 34.3818 113.851 35.0073C114.631 35.6315 115.268 36.44 115.764 37.4327C116.259 38.4255 116.555 39.6258 116.653 41.0338C116.751 42.4417 116.623 43.6715 116.27 44.7232C115.916 45.7749 115.397 46.6636 114.711 47.3895C114.044 48.1141 113.249 48.6731 112.327 49.0666C111.405 49.4601 110.413 49.6936 109.352 49.7672ZM109.135 46.6427C110.273 46.5638 111.162 46.1048 111.802 45.2658C112.459 44.4063 112.726 43.0893 112.603 41.3149C112.54 40.4084 112.39 39.6436 112.153 39.0205C111.934 38.3768 111.637 37.8645 111.261 37.4836C110.905 37.1013 110.48 36.8401 109.986 36.7C109.51 36.5392 108.992 36.4783 108.433 36.5171C107.449 36.5854 106.676 37.0363 106.114 37.8699C105.55 38.6842 105.331 39.9978 105.457 41.8108C105.582 43.6045 105.97 44.876 106.623 45.6252C107.295 46.3732 108.133 46.7123 109.135 46.6427ZM119.875 42.4381L118.499 33.0859L118.125 27.7049L122.118 27.4278L122.491 32.8089L122.507 42.2554L119.875 42.4381ZM119.436 48.6895L119.135 44.3499L123.417 44.0527L123.718 48.3923L119.436 48.6895Z" fill="white"/>
<path d="M41.0351 67.3552L36.8083 67.6486L36.6557 65.4498L47.8388 64.6737L47.9914 66.8724L43.7456 67.1671L44.5467 78.7103L41.8362 78.8985L41.0351 67.3552ZM50.1877 78.3189L49.48 68.1214L52.0389 67.9438L52.5216 74.9001L56.5311 67.632L59.1468 67.4505L59.8545 77.648L57.2956 77.8256L56.83 71.1157L52.8034 78.1373L50.1877 78.3189ZM66.7543 77.1691L66.0466 66.9716L71.0695 66.6231C71.6129 66.5853 72.121 66.5882 72.5938 66.6315C73.0792 66.674 73.5059 66.7841 73.8737 66.9617C74.2416 67.1393 74.5384 67.3917 74.7643 67.7189C74.9901 68.046 75.1215 68.475 75.1583 69.0057C75.2276 70.004 74.8466 70.7351 74.0154 71.1991C74.5196 71.3291 74.9429 71.5728 75.2851 71.9299C75.639 72.2736 75.8384 72.7676 75.8831 73.4121C75.9217 73.9681 75.8539 74.4553 75.6798 74.8737C75.5048 75.2794 75.2429 75.6214 74.894 75.8995C74.5442 76.1651 74.1205 76.3722 73.6229 76.521C73.138 76.6689 72.5986 76.7635 72.0047 76.8047L66.7543 77.1691ZM69.228 74.9405L71.5973 74.7761C72.8104 74.6919 73.3897 74.2581 73.3353 73.4746C73.3073 73.0703 73.1291 72.7906 72.801 72.6356C72.4845 72.4671 72.0231 72.4039 71.4165 72.446L69.0662 72.6091L69.228 74.9405ZM68.9478 70.9032L71.1654 70.7493C71.6583 70.7151 72.038 70.6062 72.3046 70.4227C72.5703 70.2265 72.69 69.9388 72.6637 69.5597C72.6365 69.168 72.4795 68.9186 72.1927 68.8115C71.9051 68.6918 71.5086 68.6495 71.0031 68.6846L68.8044 68.8372L68.9478 70.9032ZM78.1566 76.3778L77.4489 66.1803L80.0077 66.0027L80.4905 72.959L84.4999 65.691L87.1156 65.5094L87.8233 75.7069L85.2645 75.8845L84.7988 69.1746L80.7723 76.1963L78.1566 76.3778ZM90.4473 75.5248L89.7396 65.3273L97.1129 64.8156L97.2563 66.8817L92.4987 67.2118L93.063 75.3433L90.4473 75.5248ZM104.193 72.7996C104.913 72.7496 105.448 72.4077 105.798 71.774C106.16 71.1394 106.307 70.323 106.237 69.3247C106.168 68.3265 105.91 67.5381 105.464 66.9596C105.029 66.3676 104.452 66.0966 103.731 66.1466C103.011 66.1966 102.45 66.5339 102.049 67.1585C101.661 67.7822 101.502 68.6058 101.573 69.6294C101.646 70.6782 101.918 71.4846 102.389 72.0487C102.871 72.5993 103.473 72.8496 104.193 72.7996ZM99.6365 78.2201L98.6985 64.7056L101.314 64.524L101.405 65.8319C101.65 65.3324 102.022 64.932 102.522 64.6307C103.02 64.3168 103.592 64.1374 104.236 64.0927C104.868 64.0489 105.458 64.1349 106.007 64.3508C106.567 64.5658 107.054 64.8939 107.465 65.3351C107.889 65.7755 108.232 66.3168 108.492 66.9589C108.765 67.6002 108.929 68.3189 108.985 69.115C109.042 69.9364 108.979 70.6835 108.797 71.3564C108.628 72.0284 108.357 72.6122 107.986 73.1078C107.625 73.5899 107.182 73.9761 106.657 74.2666C106.143 74.5561 105.577 74.7224 104.958 74.7653C104.427 74.8022 103.882 74.7257 103.323 74.536C102.764 74.3462 102.301 73.9785 101.933 73.4326L102.252 78.0385L99.6365 78.2201ZM117.128 68.9879C116.401 69.1146 115.781 69.2401 115.269 69.3645C114.757 69.4889 114.341 69.632 114.022 69.7939C113.703 69.943 113.474 70.1239 113.336 70.3367C113.198 70.5367 113.138 70.7758 113.158 71.0538C113.183 71.4202 113.35 71.726 113.659 71.9712C113.968 72.2164 114.42 72.3184 115.014 72.2772C115.835 72.2202 116.413 71.9515 116.748 71.4712C117.083 70.9908 117.222 70.3337 117.164 69.4997L117.128 68.9879ZM117.569 72.3284C117.241 72.8972 116.813 73.3268 116.288 73.6172C115.774 73.8941 115.131 74.0593 114.36 74.1128C113.868 74.147 113.395 74.11 112.943 74.0017C112.491 73.8934 112.086 73.7247 111.727 73.4956C111.381 73.2657 111.094 72.9745 110.867 72.6221C110.638 72.2571 110.508 71.8471 110.477 71.3922C110.435 70.7856 110.557 70.2692 110.845 69.8429C111.145 69.4031 111.576 69.0304 112.139 68.7247C112.714 68.4181 113.407 68.1542 114.217 67.9329C115.04 67.7108 115.946 67.5082 116.937 67.3252L116.923 67.1356C116.896 66.7439 116.823 66.4189 116.703 66.1605C116.583 65.8895 116.429 65.6781 116.24 65.5261C116.065 65.3732 115.855 65.2735 115.61 65.227C115.365 65.1678 115.103 65.1479 114.825 65.1672C114.256 65.2066 113.792 65.3722 113.431 65.6639C113.083 65.9547 112.916 66.3853 112.93 66.9557L110.485 67.1253C110.501 66.6164 110.608 66.1455 110.806 65.7127C111.016 65.2664 111.307 64.8781 111.678 64.5476C112.06 64.2036 112.511 63.9248 113.029 63.711C113.56 63.4964 114.148 63.3668 114.792 63.322C115.424 63.2782 116.017 63.3132 116.571 63.4271C117.124 63.5284 117.614 63.7356 118.042 64.0488C118.47 64.3619 118.818 64.8012 119.086 65.3666C119.353 65.9195 119.516 66.6256 119.576 67.4848C119.581 67.5606 119.585 67.7001 119.586 67.9031C119.599 68.0927 119.614 68.3138 119.632 68.5665C119.65 68.8193 119.662 69.0851 119.668 69.3639C119.687 69.6293 119.704 69.8757 119.72 70.1032C119.776 70.9119 119.847 71.5672 119.932 72.0692C120.018 72.5711 120.126 73.0334 120.257 73.456L117.85 73.6231C117.8 73.4614 117.749 73.2682 117.695 73.0434C117.654 72.8177 117.612 72.5793 117.569 72.3284ZM122.303 73.314L121.596 63.1165L126.619 62.7679C127.162 62.7302 127.67 62.733 128.143 62.7764C128.628 62.8189 129.055 62.929 129.423 63.1066C129.791 63.2842 130.087 63.5366 130.313 63.8637C130.539 64.1909 130.67 64.6198 130.707 65.1505C130.777 66.1488 130.396 66.8799 129.564 67.3439C130.069 67.474 130.492 67.7176 130.834 68.0748C131.188 68.4184 131.387 68.9125 131.432 69.5569C131.471 70.1129 131.403 70.6001 131.229 71.0185C131.054 71.4243 130.792 71.7662 130.443 72.0444C130.093 72.3099 129.67 72.5171 129.172 72.6659C128.687 72.8138 128.148 72.9084 127.554 72.9496L122.303 73.314ZM124.777 71.0854L127.146 70.9209C128.359 70.8368 128.939 70.4029 128.884 69.6195C128.856 69.2151 128.678 68.9355 128.35 68.7805C128.034 68.612 127.572 68.5488 126.966 68.5909L124.615 68.754L124.777 71.0854ZM124.497 67.0481L126.714 66.8942C127.207 66.86 127.587 66.7511 127.854 66.5675C128.119 66.3713 128.239 66.0837 128.213 65.7046C128.185 65.3129 128.029 65.0635 127.742 64.9564C127.454 64.8367 127.058 64.7944 126.552 64.8295L124.353 64.9821L124.497 67.0481ZM137.981 72.2259L137.274 62.0284L141.121 61.7614L143.961 68.916L145.765 61.4391L149.613 61.1721L150.321 71.3696L147.819 71.5432L147.258 63.4686L145.07 71.7339L143.232 71.8615L139.923 63.9777L140.483 72.0523L137.981 72.2259ZM156.602 62.5154C155.844 62.568 155.27 62.8936 154.879 63.492C154.501 64.077 154.349 64.9065 154.424 65.9806C154.498 67.0546 154.763 67.8552 155.219 68.3823C155.687 68.9084 156.3 69.1452 157.058 69.0926C157.817 69.04 158.385 68.7212 158.763 68.1363C159.154 67.5505 159.313 66.7205 159.238 65.6464C159.164 64.5724 158.892 63.7722 158.424 63.246C157.968 62.7063 157.36 62.4628 156.602 62.5154ZM157.201 71.1397C156.531 71.1862 155.885 71.123 155.264 70.9503C154.641 70.765 154.081 70.4674 153.583 70.0575C153.085 69.6477 152.674 69.1239 152.35 68.4861C152.026 67.8357 151.832 67.0619 151.77 66.1647C151.708 65.2675 151.792 64.4744 152.024 63.7854C152.255 63.0964 152.59 62.5146 153.027 62.0398C153.463 61.5651 153.978 61.1993 154.569 60.9424C155.16 60.6728 155.79 60.5148 156.46 60.4684C157.117 60.4228 157.757 60.4926 158.379 60.678C159.013 60.8498 159.579 61.1407 160.078 61.5505C160.576 61.9603 160.987 62.4904 161.312 63.1409C161.636 63.7913 161.829 64.5651 161.892 65.4623C161.954 66.3594 161.869 67.1525 161.638 67.8416C161.405 68.5179 161.071 69.0935 160.634 69.5682C160.197 70.0429 159.677 70.4155 159.074 70.6859C158.482 70.9428 157.858 71.0941 157.201 71.1397ZM162.942 70.4936L166.321 64.8501L162.499 60.2778L165.418 60.0752L169.01 64.6254L169.029 64.6241L168.697 59.8476L171.313 59.6661L171.645 64.4426L171.664 64.4413L174.63 59.4359L177.644 59.2267L174.415 64.2884L178.541 69.411L175.471 69.6241L171.681 64.6877L171.662 64.689L172.021 69.8635L169.405 70.0451L169.046 64.8705L169.027 64.8718L165.955 70.2845L162.942 70.4936ZM179.015 69.3781L178.872 67.3121L179.118 67.295C179.384 67.2766 179.605 67.1787 179.783 67.0012C179.961 66.8112 180.099 66.5222 180.199 66.1344C180.311 65.733 180.384 65.2201 180.416 64.5956C180.461 63.9577 180.477 63.1757 180.463 62.2498L180.43 59.0333L188.126 58.4993L188.834 68.6967L186.218 68.8783L185.654 60.7468L183.019 60.9297L183.036 63.3664C183.055 65.295 182.788 66.7546 182.235 67.7453C181.681 68.7234 180.772 69.2562 179.508 69.3439L179.015 69.3781ZM191.457 68.5146L190.75 58.3172L193.308 58.1396L193.791 65.0959L197.801 57.8278L200.416 57.6463L201.124 67.8438L198.565 68.0214L198.1 61.3115L194.073 68.3331L191.457 68.5146ZM203.748 67.6617L203.04 57.4642L208.063 57.1156C208.607 57.0779 209.115 57.0807 209.588 57.1241C210.073 57.1666 210.5 57.2766 210.867 57.4543C211.235 57.6319 211.532 57.8843 211.758 58.2114C211.984 58.5386 212.115 58.9675 212.152 59.4982C212.221 60.4965 211.84 61.2276 211.009 61.6916C211.513 61.8217 211.937 62.0653 212.279 62.4225C212.633 62.7661 212.832 63.2602 212.877 63.9046C212.915 64.4606 212.848 64.9478 212.674 65.3662C212.499 65.772 212.237 66.1139 211.888 66.3921C211.538 66.6576 211.114 66.8648 210.617 67.0136C210.132 67.1615 209.592 67.2561 208.998 67.2973L203.748 67.6617ZM206.222 65.4331L208.591 65.2686C209.804 65.1844 210.383 64.7506 210.329 63.9672C210.301 63.5628 210.123 63.2831 209.795 63.1281C209.478 62.9597 209.017 62.8965 208.41 62.9385L206.06 63.1017L206.222 65.4331ZM205.942 61.3958L208.159 61.2419C208.652 61.2077 209.032 61.0988 209.298 60.9152C209.564 60.719 209.684 60.4314 209.657 60.0523C209.63 59.6605 209.473 59.4112 209.186 59.3041C208.899 59.1844 208.502 59.1421 207.997 59.1771L205.798 59.3297L205.942 61.3958ZM217.058 56.4913L217.766 66.6888L215.15 66.8703L214.443 56.6729L217.058 56.4913ZM216.812 52.9469L216.981 55.373L214.365 55.5546L214.197 53.1284L216.812 52.9469ZM223.93 55.7859C224.473 55.7482 225.003 55.7876 225.519 55.9042C226.048 56.0198 226.531 56.2148 226.969 56.4892C227.407 56.7635 227.781 57.1248 228.092 57.573C228.402 58.0213 228.623 58.5583 228.756 59.1839L226.254 59.3576C226.119 58.8844 225.852 58.503 225.451 58.2134C225.061 57.9103 224.601 57.7772 224.071 57.814C223.35 57.864 222.788 58.1823 222.385 58.769C221.994 59.3548 221.835 60.1848 221.91 61.2589C221.985 62.333 222.25 63.1462 222.708 63.6985C223.177 64.2373 223.791 64.4804 224.549 64.4278C225.029 64.3945 225.45 64.2383 225.811 63.9592C226.186 63.6793 226.44 63.2237 226.574 62.5922L229.075 62.4186C228.972 63.1241 228.779 63.7279 228.497 64.23C228.213 64.7195 227.867 65.1244 227.457 65.4449C227.06 65.7644 226.614 66.0049 226.117 66.1664C225.62 66.3278 225.1 66.4274 224.557 66.4651C223.773 66.5195 223.069 66.435 222.444 66.2118C221.819 65.9885 221.276 65.658 220.814 65.2203C220.351 64.7699 219.983 64.2304 219.711 63.6017C219.451 62.9596 219.294 62.2531 219.24 61.4823C219.187 60.7114 219.251 59.9896 219.433 59.3167C219.627 58.643 219.929 58.057 220.339 57.5588C220.748 57.0479 221.253 56.6383 221.854 56.3299C222.454 56.0216 223.146 55.8403 223.93 55.7859ZM233.122 65.6231L232.558 57.4917L229.241 57.7219L229.097 55.6558L238.347 55.0139L238.49 57.0799L235.173 57.3101L235.738 65.4416L233.122 65.6231ZM240.639 65.1014L239.931 54.9039L242.547 54.7224L242.777 58.0394L244.881 57.8934C246.321 57.7934 247.383 57.9991 248.066 58.5104C248.749 59.0216 249.131 59.8522 249.211 61.0021C249.256 61.6592 249.212 62.2146 249.079 62.6683C248.945 63.1219 248.717 63.4996 248.395 63.8013C248.085 64.0894 247.682 64.3142 247.185 64.4757C246.7 64.6236 246.123 64.7208 245.453 64.7673L240.639 65.1014ZM243.112 62.8728L244.989 62.7426C245.595 62.7005 246.037 62.5619 246.312 62.327C246.6 62.0785 246.725 61.6825 246.687 61.1392C246.654 60.659 246.479 60.3347 246.162 60.1662C245.845 59.985 245.383 59.9155 244.777 59.9576L242.919 60.0865L243.112 62.8728ZM259.222 55.3935C258.464 55.4461 257.89 55.7717 257.5 56.3701C257.121 56.955 256.97 57.7846 257.044 58.8586C257.119 59.9327 257.384 60.7333 257.839 61.2603C258.307 61.7865 258.921 62.0233 259.679 61.9707C260.437 61.9181 261.005 61.5993 261.384 61.0144C261.775 60.4285 261.933 59.5986 261.858 58.5245C261.784 57.4504 261.513 56.6503 261.044 56.1241C260.588 55.5844 259.981 55.3409 259.222 55.3935ZM259.821 64.0178C259.151 64.0642 258.506 64.0011 257.884 63.8284C257.262 63.643 256.702 63.3454 256.203 62.9356C255.705 62.5258 255.294 62.002 254.971 61.3642C254.646 60.7138 254.453 59.94 254.39 59.0428C254.328 58.1456 254.413 57.3525 254.644 56.6635C254.876 55.9745 255.21 55.3926 255.647 54.9179C256.084 54.4432 256.598 54.0774 257.19 53.8205C257.78 53.5509 258.411 53.3929 259.08 53.3464C259.737 53.3008 260.377 53.3707 260.999 53.5561C261.634 53.7279 262.2 54.0187 262.698 54.4286C263.196 54.8384 263.607 55.3685 263.932 56.0189C264.256 56.6694 264.45 57.4432 264.512 58.3403C264.574 59.2375 264.49 60.0306 264.258 60.7196C264.026 61.396 263.691 61.9716 263.254 62.4463C262.817 62.921 262.297 63.2936 261.694 63.564C261.102 63.8209 260.478 63.9722 259.821 64.0178ZM269.069 63.1284L268.504 54.9969L265.187 55.2271L265.044 53.1611L274.294 52.5192L274.437 54.5852L271.12 54.8154L271.684 62.9468L269.069 63.1284ZM281.372 60.5032C282.093 60.4532 282.628 60.1114 282.977 59.4777C283.34 58.8431 283.486 58.0266 283.417 57.0284C283.347 56.0301 283.09 55.2417 282.643 54.6632C282.208 54.0712 281.631 53.8002 280.911 53.8502C280.19 53.9002 279.63 54.2375 279.229 54.8621C278.84 55.4858 278.682 56.3095 278.753 57.333C278.825 58.3818 279.097 59.1883 279.568 59.7523C280.051 60.3029 280.652 60.5532 281.372 60.5032ZM276.816 65.9237L275.878 52.4092L278.494 52.2277L278.584 53.5355C278.829 53.0361 279.201 52.6357 279.701 52.3344C280.2 52.0204 280.771 51.8411 281.416 51.7963C282.048 51.7525 282.638 51.8385 283.186 52.0544C283.747 52.2694 284.233 52.5975 284.644 53.0388C285.069 53.4791 285.411 54.0204 285.671 54.6626C285.944 55.3039 286.109 56.0226 286.164 56.8187C286.221 57.64 286.158 58.3871 285.977 59.06C285.807 59.732 285.537 60.3158 285.165 60.8114C284.805 61.2935 284.362 61.6798 283.836 61.9702C283.323 62.2598 282.757 62.426 282.137 62.469C281.607 62.5058 281.062 62.4294 280.503 62.2396C279.943 62.0499 279.48 61.6821 279.112 61.1363L279.431 65.7422L276.816 65.9237ZM288.395 61.7871L287.687 51.5896L290.246 51.412L290.729 58.3683L294.738 51.1003L297.354 50.9188L298.062 61.1162L295.503 61.2938L295.037 54.584L291.011 61.6056L288.395 61.7871ZM300.686 60.9341L299.978 50.7366L303.826 50.4696L306.665 57.6242L308.47 50.1473L312.317 49.8803L313.025 60.0778L310.523 60.2514L309.963 52.1768L307.775 60.4421L305.936 60.5697L302.627 52.6859L303.188 60.7605L300.686 60.9341ZM321.554 54.8006C320.827 54.9273 320.207 55.0528 319.695 55.1772C319.183 55.3016 318.768 55.4447 318.449 55.6065C318.129 55.7557 317.9 55.9366 317.763 56.1493C317.624 56.3494 317.565 56.5884 317.584 56.8664C317.609 57.2329 317.777 57.5387 318.086 57.7839C318.395 58.0291 318.846 58.1311 319.44 58.0899C320.261 58.0329 320.84 57.7642 321.174 57.2838C321.509 56.8035 321.648 56.1463 321.59 55.3123L321.554 54.8006ZM321.996 58.141C321.667 58.7098 321.24 59.1394 320.714 59.4299C320.2 59.7068 319.557 59.872 318.787 59.9255C318.294 59.9597 317.821 59.9227 317.369 59.8143C316.918 59.706 316.512 59.5374 316.154 59.3083C315.807 59.0784 315.521 58.7872 315.293 58.4348C315.064 58.0697 314.934 57.6598 314.903 57.2049C314.861 56.5983 314.984 56.0819 315.272 55.6556C315.571 55.2158 316.002 54.8431 316.565 54.5374C317.141 54.2308 317.833 53.9669 318.643 53.7456C319.466 53.5234 320.372 53.3209 321.363 53.1379L321.35 52.9483C321.322 52.5566 321.249 52.2315 321.13 51.9732C321.009 51.7022 320.855 51.4907 320.667 51.3387C320.491 51.1859 320.281 51.0862 320.036 51.0397C319.791 50.9805 319.529 50.9606 319.251 50.9799C318.683 51.0193 318.218 51.1849 317.857 51.4766C317.509 51.7674 317.342 52.1979 317.357 52.7683L314.912 52.938C314.927 52.4291 315.034 51.9582 315.232 51.5254C315.443 51.0791 315.733 50.6907 316.104 50.3603C316.486 50.0163 316.937 49.7375 317.455 49.5237C317.986 49.3091 318.574 49.1794 319.219 49.1347C319.85 49.0909 320.443 49.1259 320.997 49.2398C321.55 49.3411 322.041 49.5483 322.469 49.8614C322.897 50.1745 323.245 50.6138 323.512 51.1793C323.779 51.7322 323.943 52.4382 324.002 53.2975C324.007 53.3733 324.011 53.5128 324.012 53.7158C324.025 53.9054 324.041 54.1265 324.058 54.3792C324.076 54.6319 324.088 54.8977 324.095 55.1766C324.113 55.442 324.13 55.6884 324.146 55.9158C324.202 56.7246 324.273 57.3799 324.358 57.8818C324.444 58.3838 324.552 58.8461 324.683 59.2687L322.276 59.4357C322.227 59.2741 322.175 59.0809 322.122 58.856C322.08 58.6303 322.039 58.392 321.996 58.141ZM329.023 58.9675L328.459 50.836L325.142 51.0663L324.998 49.0002L334.248 48.3583L334.391 50.4243L331.074 50.6545L331.639 58.786L329.023 58.9675ZM336.54 58.4458L335.832 48.2483L338.391 48.0708L338.874 55.027L342.883 47.759L345.499 47.5775L346.207 57.7749L343.648 57.9525L343.182 51.2427L339.156 58.2643L336.54 58.4458Z" fill="white"/>
<path d="M88.9674 114.165L88.6596 109.73L89.2282 109.69C89.4683 109.674 89.6787 109.596 89.8595 109.456C90.0394 109.304 90.1861 109.04 90.2997 108.664C90.4124 108.275 90.4902 107.749 90.533 107.086C90.575 106.41 90.5844 105.539 90.5613 104.474L90.4835 101.433L98.3117 100.889L98.876 109.021L100.449 108.912L100.757 113.347L98.3309 113.515L98.1664 111.146L91.2291 111.627L91.3935 113.997L88.9674 114.165ZM96.2603 109.202L95.8393 103.137L92.9772 103.335L92.9924 105.201C92.9913 105.734 92.9859 106.204 92.976 106.611C92.9653 107.006 92.9334 107.37 92.8804 107.704C92.8265 108.025 92.7524 108.328 92.6579 108.614C92.5635 108.9 92.4375 109.188 92.2799 109.479L96.2603 109.202ZM105.948 102.188C105.19 102.24 104.616 102.566 104.226 103.164C103.847 103.749 103.695 104.579 103.77 105.653C103.844 106.727 104.109 107.527 104.565 108.055C105.033 108.581 105.646 108.817 106.405 108.765C107.163 108.712 107.731 108.393 108.11 107.809C108.501 107.223 108.659 106.393 108.584 105.319C108.51 104.245 108.238 103.444 107.77 102.918C107.314 102.379 106.706 102.135 105.948 102.188ZM106.547 110.812C105.877 110.858 105.231 110.795 104.61 110.623C103.988 110.437 103.427 110.14 102.929 109.73C102.431 109.32 102.02 108.796 101.696 108.158C101.372 107.508 101.179 106.734 101.116 105.837C101.054 104.94 101.139 104.147 101.37 103.458C101.602 102.769 101.936 102.187 102.373 101.712C102.81 101.237 103.324 100.872 103.915 100.615C104.506 100.345 105.136 100.187 105.806 100.141C106.463 100.095 107.103 100.165 107.725 100.35C108.359 100.522 108.925 100.813 109.424 101.223C109.922 101.633 110.333 102.163 110.658 102.813C110.982 103.464 111.176 104.237 111.238 105.135C111.3 106.032 111.216 106.825 110.984 107.514C110.752 108.19 110.417 108.766 109.98 109.24C109.543 109.715 109.023 110.088 108.42 110.358C107.828 110.615 107.204 110.766 106.547 110.812Z" fill="white"/>
<path d="M123.196 110.801L121.948 92.8253L115.858 93.248L115.548 88.7818C116.653 88.6803 117.606 88.5153 118.406 88.2867C119.229 88.0317 119.924 87.7115 120.491 87.326C121.058 86.9406 121.52 86.4758 121.878 85.9317C122.234 85.363 122.534 84.6993 122.778 83.9406L127.392 83.6204L129.249 110.381L123.196 110.801ZM144.031 105.312C145.385 105.218 146.476 104.735 147.306 103.861C148.158 102.961 148.53 101.736 148.423 100.186C148.366 99.374 148.182 98.6698 147.868 98.0734C147.579 97.4753 147.2 96.9947 146.73 96.6318C146.282 96.2425 145.769 95.969 145.189 95.8114C144.634 95.6522 144.061 95.593 143.471 95.634C142.413 95.7074 141.518 96.0044 140.788 96.5249C140.056 97.0207 139.486 97.7155 139.078 98.6092L133.466 98.4424L134.296 83.1412L152.198 81.8988L152.541 86.8449L139.696 87.7364L139.417 92.7999C140.026 92.3125 140.814 91.9117 141.781 91.5973C142.748 91.2829 143.7 91.0933 144.635 91.0284C145.84 90.9447 147.023 91.0604 148.182 91.3756C149.341 91.6907 150.379 92.2122 151.295 92.9398C152.234 93.6412 153.003 94.5645 153.601 95.7098C154.223 96.8288 154.588 98.1634 154.695 99.7137C154.801 101.239 154.6 102.613 154.091 103.835C153.581 105.033 152.848 106.06 151.894 106.918C150.965 107.774 149.849 108.444 148.547 108.93C147.271 109.415 145.894 109.708 144.417 109.81C143.039 109.906 141.722 109.812 140.466 109.528C139.235 109.243 138.114 108.764 137.103 108.093C136.092 107.421 135.229 106.566 134.514 105.528C133.824 104.488 133.318 103.262 132.998 101.85L138.867 101.443C139.245 102.974 139.899 104.029 140.83 104.607C141.783 105.159 142.85 105.394 144.031 105.312ZM177.924 107.485C176.029 107.617 174.346 107.412 172.875 106.871C171.401 106.306 170.144 105.466 169.102 104.351C168.059 103.212 167.231 101.798 166.619 100.11C166.008 98.4217 165.628 96.5071 165.479 94.3662C165.33 92.2254 165.443 90.2889 165.818 88.5568C166.192 86.8248 166.818 85.3348 167.696 84.0871C168.573 82.8393 169.704 81.846 171.087 81.1072C172.469 80.3683 174.108 79.9332 176.003 79.8017C177.873 79.6719 179.544 79.8773 181.016 80.4181C182.487 80.9588 183.744 81.7865 184.786 82.901C185.827 84.0156 186.653 85.4048 187.263 87.0685C187.873 88.7323 188.252 90.6346 188.401 92.7754C188.55 94.9163 188.438 96.865 188.065 98.6217C187.692 100.378 187.068 101.893 186.192 103.165C185.314 104.413 184.185 105.419 182.804 106.182C181.421 106.921 179.794 107.355 177.924 107.485ZM177.612 102.982C179.162 102.874 180.365 102.037 181.22 100.469C182.074 98.8768 182.388 96.4565 182.163 93.2083C181.939 89.9848 181.296 87.6681 180.234 86.2582C179.172 84.8484 177.866 84.1972 176.315 84.3048C174.741 84.4141 173.525 85.2403 172.667 86.7834C171.81 88.3264 171.493 90.7097 171.717 93.9333C171.942 97.1815 172.588 99.5351 173.654 100.994C174.717 102.429 176.037 103.091 177.612 102.982ZM204.346 105.651C202.451 105.783 200.768 105.578 199.296 105.038C197.823 104.472 196.566 103.632 195.524 102.518C194.481 101.378 193.653 99.9647 193.041 98.2764C192.43 96.588 192.049 94.6734 191.901 92.5325C191.752 90.3917 191.865 88.4552 192.239 86.7231C192.614 84.9911 193.24 83.5012 194.118 82.2534C194.995 81.0056 196.126 80.0123 197.508 79.2735C198.891 78.5346 200.53 78.0995 202.425 77.968C204.295 77.8382 205.966 78.0437 207.437 78.5844C208.909 79.1251 210.166 79.9528 211.207 81.0673C212.249 82.1819 213.075 83.5711 213.685 85.2348C214.295 86.8986 214.674 88.8009 214.823 90.9417C214.971 93.0826 214.859 95.0314 214.487 96.788C214.114 98.5447 213.49 100.059 212.614 101.332C211.736 102.579 210.607 103.585 209.226 104.348C207.843 105.087 206.216 105.522 204.346 105.651ZM204.033 101.148C205.584 101.041 206.787 100.203 207.642 98.6353C208.496 97.0431 208.81 94.6228 208.585 91.3747C208.361 88.1511 207.718 85.8344 206.656 84.4245C205.594 83.0147 204.288 82.3635 202.737 82.4711C201.162 82.5804 199.946 83.4066 199.089 84.9497C198.232 86.4927 197.915 88.876 198.139 92.0996C198.364 95.3478 199.01 97.7014 200.075 99.1605C201.139 100.595 202.459 101.258 204.033 101.148ZM230.768 103.818C228.873 103.949 227.19 103.745 225.718 103.204C224.245 102.638 222.987 101.799 221.946 100.684C220.902 99.5448 220.075 98.131 219.463 96.4427C218.851 94.7543 218.471 92.8397 218.323 90.6988C218.174 88.558 218.287 86.6215 218.661 84.8895C219.036 83.1574 219.662 81.6675 220.539 80.4197C221.417 79.1719 222.547 78.1786 223.93 77.4398C225.313 76.7009 226.952 76.2658 228.847 76.1343C230.717 76.0045 232.388 76.21 233.859 76.7507C235.331 77.2915 236.588 78.1191 237.629 79.2337C238.671 80.3482 239.497 81.7374 240.107 83.4011C240.717 85.0649 241.096 86.9672 241.245 89.108C241.393 91.2489 241.281 93.1977 240.908 94.9543C240.536 96.711 239.912 98.2255 239.036 99.4979C238.158 100.746 237.028 101.751 235.647 102.515C234.264 103.254 232.638 103.688 230.768 103.818ZM230.455 99.3145C232.006 99.2069 233.208 98.3693 234.064 96.8016C234.918 95.2094 235.232 92.7892 235.007 89.541C234.783 86.3174 234.14 84.0007 233.078 82.5908C232.016 81.181 230.709 80.5299 229.159 80.6374C227.584 80.7467 226.368 81.5729 225.511 83.116C224.654 84.659 224.337 87.0423 224.561 90.2659C224.786 93.5141 225.432 95.8677 226.497 97.3268C227.561 98.7612 228.88 99.4238 230.455 99.3145ZM276.627 82.8694L276.829 85.7854L252.173 87.4966L251.97 84.5806L266.993 83.538C267.54 83.228 267.973 82.8642 268.29 82.4466C268.607 82.029 268.748 81.5618 268.712 81.045C268.662 80.3314 268.288 79.7516 267.59 79.3055C266.889 78.8349 265.875 78.6457 264.546 78.7379C263.266 78.8267 262.2 79.1356 261.347 79.6646C260.518 80.192 259.987 80.9211 259.755 81.8521L253.849 82.2619C253.975 80.8685 254.348 79.6558 254.969 78.6237C255.613 77.5652 256.405 76.6943 257.347 76.0108C258.311 75.301 259.386 74.7566 260.572 74.3776C261.757 73.9986 262.965 73.7665 264.195 73.6811C265.524 73.5888 266.815 73.66 268.067 73.8945C269.32 74.129 270.437 74.546 271.418 75.1455C272.399 75.745 273.195 76.5304 273.807 77.5018C274.443 78.4714 274.808 79.6329 274.902 80.9863C274.958 81.7984 274.856 82.473 274.597 83.0103L276.627 82.8694ZM252.478 91.889L252.275 88.973L276.932 87.2618L277.134 90.1778L262.259 91.2102C261.638 91.5253 261.169 91.8916 260.852 92.3092C260.533 92.7023 260.392 93.1695 260.43 93.7108C260.495 94.6459 260.963 95.3305 261.833 95.7646C262.729 96.1969 263.779 96.3713 264.985 96.2876C266.732 96.1664 268.027 95.7551 268.868 95.0538C269.734 94.3508 270.307 93.5199 270.587 92.5609L276.529 92.1484C276.395 93.4188 276.031 94.5938 275.439 95.6734C274.871 96.7513 274.109 97.7067 273.153 98.5395C272.195 99.3478 271.066 100.007 269.766 100.518C268.465 101.004 267.027 101.301 265.452 101.411C264 101.511 262.622 101.422 261.316 101.141C260.011 100.861 258.854 100.397 257.845 99.7503C256.836 99.1033 256.012 98.2826 255.374 97.2884C254.735 96.2696 254.368 95.0834 254.274 93.73C254.221 92.9672 254.262 92.3091 254.397 91.7558L252.478 91.889Z" fill="white"/>
<path d="M165.648 132.215L165.29 127.052L159.903 127.426L159.695 124.434L165.082 124.06L164.717 118.797L167.834 118.581L168.199 123.843L173.561 123.471L173.769 126.464L168.407 126.836L168.765 131.999L165.648 132.215ZM188.568 128.344C189.033 128.312 189.469 128.215 189.876 128.053C190.282 127.891 190.626 127.675 190.908 127.405C191.207 127.133 191.428 126.826 191.571 126.482C191.73 126.12 191.794 125.723 191.764 125.29C191.727 124.758 191.58 124.317 191.321 123.968C191.062 123.602 190.717 123.316 190.285 123.113C189.868 122.891 189.382 122.749 188.827 122.687C188.27 122.609 187.667 122.592 187.019 122.637L186.296 122.688L186.109 119.994L186.707 119.953C188.004 119.863 189.011 119.567 189.728 119.066C190.461 118.548 190.798 117.864 190.739 117.016C190.711 116.617 190.604 116.274 190.417 115.986C190.246 115.697 190.021 115.462 189.741 115.281C189.461 115.1 189.143 114.972 188.787 114.896C188.43 114.804 188.069 114.771 187.703 114.796C186.655 114.869 185.836 115.227 185.246 115.869C184.671 116.494 184.375 117.283 184.358 118.236L181.091 118.463C181.165 116.637 181.765 115.175 182.892 114.078C184.034 112.963 185.644 112.333 187.722 112.189C188.471 112.137 189.217 112.177 189.961 112.309C190.722 112.44 191.399 112.685 191.992 113.045C192.601 113.404 193.102 113.879 193.494 114.47C193.903 115.059 194.136 115.778 194.195 116.626C194.256 117.507 194.078 118.313 193.661 119.044C193.243 119.758 192.698 120.33 192.026 120.761C192.506 120.929 192.939 121.157 193.327 121.448C193.713 121.722 194.045 122.05 194.322 122.431C194.598 122.796 194.81 123.199 194.958 123.64C195.121 124.063 195.218 124.499 195.249 124.948C195.312 125.863 195.185 126.682 194.868 127.406C194.55 128.113 194.082 128.721 193.466 129.232C192.865 129.725 192.149 130.117 191.317 130.409C190.486 130.7 189.596 130.879 188.648 130.945C187.617 131.016 186.675 130.923 185.822 130.665C184.985 130.405 184.258 130.03 183.639 129.538C183.035 129.029 182.542 128.42 182.159 127.711C181.775 127.003 181.53 126.234 181.422 125.407L184.665 125.182C184.762 125.626 184.909 126.05 185.104 126.454C185.315 126.857 185.582 127.206 185.903 127.501C186.241 127.795 186.624 128.019 187.052 128.173C187.497 128.326 188.003 128.383 188.568 128.344ZM204.89 129.817C203.677 129.902 202.596 129.743 201.65 129.341C200.72 128.937 199.918 128.341 199.245 127.553C198.589 126.763 198.063 125.805 197.667 124.68C197.289 123.554 197.051 122.3 196.955 120.92C196.861 119.557 196.923 118.291 197.143 117.123C197.379 115.954 197.768 114.941 198.31 114.085C198.868 113.211 199.58 112.519 200.447 112.007C201.329 111.478 202.377 111.172 203.591 111.087C204.788 111.004 205.851 111.164 206.782 111.568C207.727 111.953 208.528 112.541 209.184 113.331C209.856 114.103 210.381 115.052 210.76 116.178C211.156 117.304 211.401 118.548 211.495 119.911C211.591 121.291 211.521 122.566 211.285 123.735C211.065 124.903 210.676 125.924 210.119 126.798C209.578 127.671 208.867 128.372 207.984 128.901C207.119 129.429 206.088 129.734 204.89 129.817ZM204.71 127.224C205.941 127.138 206.831 126.483 207.381 125.259C207.931 124.035 208.13 122.333 207.979 120.155C207.828 117.977 207.396 116.337 206.685 115.233C205.972 114.113 205.001 113.596 203.771 113.681C202.54 113.767 201.641 114.414 201.074 115.623C200.521 116.814 200.321 118.498 200.472 120.676C200.623 122.854 201.056 124.512 201.769 125.648C202.5 126.784 203.48 127.309 204.71 127.224ZM221.428 128.67C220.214 128.754 219.134 128.595 218.187 128.193C217.257 127.79 216.455 127.194 215.783 126.405C215.126 125.615 214.6 124.658 214.205 123.532C213.826 122.406 213.589 121.153 213.493 119.773C213.398 118.409 213.461 117.144 213.68 115.976C213.917 114.806 214.306 113.794 214.848 112.938C215.405 112.063 216.117 111.371 216.984 110.86C217.866 110.331 218.914 110.024 220.128 109.94C221.325 109.857 222.389 110.017 223.319 110.42C224.264 110.805 225.065 111.393 225.722 112.183C226.393 112.955 226.919 113.904 227.298 115.031C227.693 116.156 227.938 117.4 228.033 118.764C228.129 120.144 228.058 121.418 227.822 122.587C227.602 123.755 227.214 124.776 226.656 125.65C226.115 126.523 225.404 127.224 224.522 127.753C223.656 128.281 222.625 128.587 221.428 128.67ZM221.248 126.076C222.478 125.991 223.368 125.336 223.918 124.111C224.468 122.887 224.667 121.186 224.516 119.008C224.365 116.83 223.934 115.189 223.222 114.085C222.51 112.965 221.538 112.448 220.308 112.534C219.078 112.619 218.179 113.266 217.611 114.475C217.059 115.666 216.858 117.351 217.009 119.529C217.161 121.707 217.593 123.364 218.307 124.501C219.037 125.636 220.017 126.161 221.248 126.076ZM243.223 131.217L242.933 127.027C242.001 127.092 241.112 127.028 240.263 126.836C239.414 126.645 238.655 126.296 237.985 125.791C237.332 125.285 236.793 124.621 236.368 123.799C235.959 122.958 235.712 121.923 235.626 120.693C235.546 119.529 235.65 118.511 235.941 117.638C236.247 116.748 236.688 116.008 237.265 115.416C237.858 114.807 238.56 114.341 239.373 114.017C240.186 113.693 241.058 113.499 241.989 113.435L241.666 108.771L244.908 108.546L245.231 113.21C246.162 113.145 247.053 113.217 247.903 113.425C248.753 113.633 249.505 113.999 250.159 114.522C250.829 115.026 251.368 115.699 251.778 116.539C252.202 117.362 252.455 118.355 252.536 119.519C252.621 120.749 252.511 121.81 252.205 122.7C251.915 123.572 251.473 124.304 250.879 124.897C250.302 125.488 249.606 125.937 248.792 126.244C247.978 126.551 247.106 126.737 246.175 126.802L246.465 130.992L243.223 131.217ZM242.174 116.103C241.16 116.174 240.368 116.554 239.798 117.245C239.243 117.919 239.019 119.029 239.127 120.575C239.18 121.34 239.299 121.975 239.484 122.48C239.686 122.984 239.94 123.384 240.244 123.68C240.548 123.96 240.912 124.152 241.337 124.256C241.762 124.36 242.232 124.394 242.747 124.358L242.174 116.103ZM245.99 124.133C246.505 124.098 246.966 123.999 247.372 123.837C247.779 123.675 248.113 123.435 248.375 123.116C248.636 122.78 248.823 122.35 248.937 121.824C249.067 121.297 249.106 120.651 249.053 119.886C249 119.121 248.872 118.479 248.668 117.958C248.481 117.42 248.226 116.995 247.903 116.683C247.596 116.353 247.23 116.128 246.804 116.007C246.394 115.885 245.932 115.842 245.417 115.878L245.99 124.133ZM261.818 123.21C262.766 123.144 263.47 122.695 263.93 121.861C264.407 121.026 264.599 119.952 264.508 118.638C264.417 117.324 264.078 116.287 263.49 115.526C262.918 114.747 262.158 114.39 261.211 114.456C260.263 114.522 259.525 114.966 258.998 115.788C258.487 116.608 258.278 117.692 258.371 119.039C258.467 120.419 258.825 121.48 259.444 122.222C260.079 122.947 260.871 123.276 261.818 123.21ZM255.823 130.342L254.589 112.56L258.03 112.321L258.15 114.042C258.472 113.385 258.961 112.858 259.619 112.462C260.275 112.049 261.027 111.813 261.875 111.754C262.707 111.696 263.483 111.809 264.204 112.093C264.942 112.376 265.582 112.808 266.124 113.389C266.682 113.968 267.132 114.68 267.475 115.525C267.834 116.369 268.05 117.315 268.123 118.362C268.198 119.443 268.116 120.426 267.876 121.311C267.654 122.195 267.298 122.964 266.808 123.616C266.334 124.25 265.752 124.758 265.06 125.14C264.384 125.521 263.639 125.74 262.825 125.797C262.126 125.845 261.409 125.745 260.674 125.495C259.938 125.245 259.328 124.761 258.844 124.043L259.264 130.104L255.823 130.342ZM273.569 111.243L274.5 124.661L271.059 124.9L270.127 111.482L273.569 111.243ZM273.245 106.579L273.467 109.771L270.025 110.01L269.804 106.818L273.245 106.579ZM282.611 110.315C283.326 110.265 284.023 110.317 284.701 110.47C285.397 110.623 286.033 110.879 286.609 111.24C287.186 111.601 287.678 112.076 288.087 112.666C288.495 113.256 288.786 113.963 288.96 114.786L285.668 115.014C285.492 114.392 285.139 113.89 284.612 113.509C284.099 113.11 283.494 112.935 282.796 112.983C281.848 113.049 281.109 113.468 280.578 114.24C280.063 115.011 279.855 116.103 279.953 117.516C280.051 118.929 280.401 119.999 281.003 120.726C281.62 121.435 282.427 121.755 283.425 121.686C284.057 121.642 284.61 121.436 285.086 121.069C285.579 120.701 285.913 120.101 286.089 119.27L289.381 119.042C289.245 119.97 288.991 120.765 288.619 121.425C288.246 122.069 287.791 122.602 287.252 123.024C286.73 123.444 286.142 123.761 285.488 123.973C284.835 124.186 284.15 124.317 283.436 124.366C282.405 124.438 281.478 124.327 280.656 124.033C279.833 123.739 279.118 123.304 278.51 122.728C277.901 122.136 277.418 121.426 277.059 120.599C276.717 119.754 276.51 118.824 276.44 117.81C276.369 116.796 276.454 115.846 276.693 114.961C276.949 114.074 277.347 113.303 277.886 112.647C278.424 111.975 279.088 111.436 279.879 111.031C280.669 110.625 281.58 110.386 282.611 110.315ZM291.688 123.468L290.756 110.05L302.753 109.218L303.684 122.635L300.242 122.874L299.5 112.175L294.387 112.53L295.129 123.229L291.688 123.468ZM309.64 108.74L310.571 122.157L307.129 122.396L306.198 108.978L309.64 108.74ZM309.316 104.076L309.537 107.268L306.096 107.507L305.874 104.315L309.316 104.076ZM314.022 121.918L313.09 108.5L316.532 108.261L316.892 113.449L322.479 113.061L322.119 107.874L325.56 107.635L326.492 121.052L323.05 121.291L322.667 115.78L317.081 116.167L317.463 121.679L314.022 121.918ZM332.436 107.158L333.367 120.575L329.926 120.814L328.995 107.396L332.436 107.158ZM332.113 102.494L332.334 105.686L328.892 105.925L328.671 102.733L332.113 102.494ZM336.818 120.336L335.887 106.918L342.496 106.459C343.211 106.41 343.88 106.413 344.502 106.471C345.141 106.526 345.702 106.671 346.186 106.905C346.67 107.139 347.061 107.471 347.358 107.901C347.655 108.332 347.828 108.896 347.876 109.594C347.967 110.908 347.466 111.87 346.372 112.48C347.036 112.652 347.593 112.972 348.043 113.442C348.509 113.894 348.771 114.544 348.83 115.392C348.881 116.124 348.792 116.765 348.562 117.315C348.332 117.849 347.987 118.299 347.528 118.665C347.068 119.015 346.511 119.287 345.856 119.483C345.218 119.678 344.508 119.802 343.727 119.856L336.818 120.336ZM340.073 117.403L343.191 117.187C344.787 117.076 345.549 116.505 345.478 115.475C345.441 114.943 345.206 114.575 344.774 114.371C344.358 114.149 343.751 114.066 342.953 114.121L339.86 114.336L340.073 117.403ZM339.704 112.091L342.622 111.889C343.271 111.844 343.771 111.7 344.121 111.459C344.471 111.201 344.628 110.822 344.594 110.323C344.558 109.808 344.351 109.48 343.974 109.339C343.596 109.181 343.074 109.126 342.409 109.172L339.516 109.373L339.704 112.091Z" fill="white"/>
</svg>
