<svg width="542" height="409" fill="none" xmlns="http://www.w3.org/2000/svg"><g filter="url(#a)"><path fill-rule="evenodd" clip-rule="evenodd" d="M381.946 160.528c6.184.875 10.4 6.718 9.281 12.863l-13.924 76.445a10.999 10.999 0 0 1-11.881 8.977L160.62 238.997a11 11 0 0 1-9.941-10.898l-.404-87.631c-.031-6.709 5.899-11.882 12.541-10.942l219.13 31.002Zm7.313 12.505c.916-5.028-2.533-9.808-7.593-10.524l-219.13-31.003c-5.435-.769-10.286 3.464-10.261 8.953l.404 87.631a9 9 0 0 0 8.133 8.917l204.802 19.816a9 9 0 0 0 9.721-7.346l13.924-76.444Z" fill="#fff"/></g><path fill-rule="evenodd" clip-rule="evenodd" d="m158.977 145.046-.917 96.396a9.999 9.999 0 0 0 9.085 10.053l44.581 4.094 73.134 23.337-12.735-17.79 100.907 9.266a10 10 0 0 0 10.753-8.166l15.036-82.556c1.013-5.558-2.777-10.851-8.366-11.683l-220.006-32.746c-6.005-.894-11.414 3.725-11.472 9.795Z" fill="#77B0C6"/><path fill-rule="evenodd" clip-rule="evenodd" d="m164.751 146.449-.302 92.275a10 10 0 0 0 9.127 9.994l41.025 3.595 66.638 21.819-10.802-16.926 101.873 8.926a10 10 0 0 0 10.711-8.17l14.295-78.482c1.014-5.566-2.789-10.864-8.387-11.686l-212.727-31.207c-6.023-.883-11.432 3.774-11.451 9.862Z" fill="#FF267E"/><path fill-rule="evenodd" clip-rule="evenodd" d="m164.751 146.449-.302 92.275a10 10 0 0 0 9.127 9.994l41.025 3.595 66.638 21.819-10.802-16.926 101.873 8.926a10 10 0 0 0 10.711-8.17l14.295-78.482c1.014-5.566-2.789-10.864-8.387-11.686l-212.727-31.207c-6.023-.883-11.432 3.774-11.451 9.862Z" fill="url(#b)"/><path d="m173.704 169.438 2.226-17.257 12.092 1.56-.356 2.761-8.688-1.121-1.87 14.496-3.404-.439Zm20.3.368c.904.117 1.652-.174 2.242-.872.606-.696.99-1.671 1.152-2.925.161-1.254.037-2.294-.372-3.121-.392-.841-1.04-1.32-1.944-1.437-.905-.116-1.683.162-2.335.837-.635.676-1.036 1.657-1.202 2.942-.17 1.317-.033 2.383.41 3.199.462.801 1.144 1.26 2.049 1.377Zm-6.988 5.584 2.189-16.971 3.285.423-.212 1.643a3.593 3.593 0 0 1 1.681-1.211c.696-.265 1.448-.346 2.257-.241a5.07 5.07 0 0 1 2.129.758 4.885 4.885 0 0 1 1.562 1.581c.417.651.706 1.406.87 2.266.179.862.204 1.793.075 2.792-.133 1.032-.396 1.942-.788 2.73-.376.79-.856 1.446-1.439 1.968a5.22 5.22 0 0 1-1.934 1.106 5.023 5.023 0 0 1-2.227.197 5.244 5.244 0 0 1-1.968-.69c-.646-.374-1.129-.944-1.449-1.711l-.746 5.784-3.285-.424Zm23.954-7.098a37.51 37.51 0 0 0-2.396.006c-.665.027-1.215.101-1.65.222-.433.106-.761.273-.985.503-.221.213-.354.494-.399.843-.059.461.072.881.394 1.261.322.381.856.619 1.602.715 1.031.133 1.814-.056 2.348-.568.534-.512.868-1.292 1.003-2.339l.083-.643Zm-.282 4.247c-.548.623-1.183 1.049-1.907 1.279-.705.215-1.542.26-2.51.136a5.888 5.888 0 0 1-1.727-.489 5.01 5.01 0 0 1-1.381-.929 3.736 3.736 0 0 1-.849-1.295 3.303 3.303 0 0 1-.178-1.62c.098-.762.378-1.371.84-1.828.48-.47 1.107-.825 1.88-1.064.789-.237 1.712-.392 2.77-.465a43.68 43.68 0 0 1 3.519-.079l.031-.238c.063-.492.053-.912-.031-1.262-.082-.365-.221-.666-.416-.901a1.656 1.656 0 0 0-.707-.526 3.25 3.25 0 0 0-.957-.269c-.714-.092-1.331-.002-1.85.27-.503.273-.816.765-.94 1.475l-3.071-.396a4.587 4.587 0 0 1 .748-1.67c.371-.5.827-.909 1.368-1.227a5.875 5.875 0 0 1 1.881-.701 7.27 7.27 0 0 1 2.281-.045 8.289 8.289 0 0 1 2.177.572c.659.262 1.216.64 1.668 1.134.453.494.775 1.125.966 1.892.194.75.221 1.665.082 2.745-.013.095-.043.268-.092.52l-.107.833c-.041.318-.092.65-.153.997l-.12.928c-.131 1.016-.205 1.845-.224 2.488-.018.643.001 1.242.059 1.798l-3.023-.39a12.635 12.635 0 0 1-.048-.756 85.8 85.8 0 0 1 .021-.917Zm17.195 4.202a6.8 6.8 0 0 1-2.144-.639 5.508 5.508 0 0 1-1.694-1.308 5.917 5.917 0 0 1-1.097-2.004c-.255-.775-.358-1.66-.311-2.654l-2.332-.301-.713 5.522-3.285-.423 1.652-12.806 3.285.423-.605 4.69 2.452.316c.269-.837.627-1.549 1.074-2.136a5.968 5.968 0 0 1 1.536-1.399 5.597 5.597 0 0 1 1.857-.704 6.69 6.69 0 0 1 2.063-.049 7.564 7.564 0 0 1 2.423.724 5.68 5.68 0 0 1 1.888 1.502c.531.633.917 1.393 1.158 2.279.24.886.286 1.908.137 3.066-.15 1.159-.453 2.136-.911 2.932-.458.796-1.024 1.433-1.698 1.91a5.666 5.666 0 0 1-2.207.974 7.538 7.538 0 0 1-2.528.085Zm.332-2.57c.936.121 1.732-.108 2.387-.684.673-.591 1.104-1.616 1.292-3.076.096-.746.099-1.391.008-1.935-.073-.558-.231-1.022-.474-1.392a2.26 2.26 0 0 0-.908-.843 3.261 3.261 0 0 0-1.23-.401c-.81-.105-1.51.136-2.102.721-.59.569-.981 1.6-1.173 3.091-.191 1.476-.082 2.571.326 3.285.424.716 1.049 1.127 1.874 1.234Zm8.472-1.618.368-2.856 7.879 1.016-.369 2.857-7.878-1.017Zm9.932 6.291 1.652-12.806 6.307.814c.683.088 1.311.217 1.886.388.591.173 1.092.415 1.504.726.411.312.716.698.915 1.159.199.461.255 1.025.169 1.691-.162 1.254-.815 2.065-1.96 2.434a3.316 3.316 0 0 1 1.392 1.22c.353.513.477 1.175.373 1.984-.09.698-.295 1.285-.614 1.76a3.31 3.31 0 0 1-1.228 1.075c-.499.243-1.075.394-1.728.455a9.2 9.2 0 0 1-2.075-.05l-6.593-.85Zm3.616-2.147 2.975.384c1.524.196 2.349-.198 2.476-1.181.065-.508-.086-.899-.454-1.172-.35-.287-.906-.48-1.668-.578l-2.951-.381-.378 2.928Zm.654-5.07 2.785.359c.619.08 1.116.039 1.492-.122.378-.177.597-.504.659-.98.063-.492-.069-.84-.398-1.043-.327-.22-.807-.371-1.442-.453l-2.761-.356-.335 2.595Zm14.985-3.318-1.652 12.806-3.284-.424 1.652-12.806 3.284.424Zm.574-4.451-.393 3.046-3.284-.423.393-3.047 3.284.424Zm3.948 18.053 1.317-10.211-4.165-.538.334-2.594 11.616 1.498-.334 2.595-4.166-.538-1.317 10.212-3.285-.424Zm18.026-3.628a37.51 37.51 0 0 0-2.396.006c-.665.027-1.215.101-1.65.223-.433.105-.761.272-.985.502-.221.213-.354.494-.399.844-.059.46.072.88.394 1.26.322.381.856.619 1.602.715 1.031.133 1.814-.056 2.348-.568.534-.512.868-1.292 1.003-2.339l.083-.643Zm-.282 4.247c-.548.623-1.183 1.049-1.907 1.279-.705.215-1.542.261-2.51.136a5.888 5.888 0 0 1-1.727-.489 5.01 5.01 0 0 1-1.381-.929 3.736 3.736 0 0 1-.849-1.295 3.303 3.303 0 0 1-.178-1.62c.098-.762.378-1.371.84-1.827.48-.471 1.107-.826 1.88-1.065.789-.237 1.712-.392 2.77-.465a44.147 44.147 0 0 1 3.519-.079l.031-.238c.063-.492.053-.912-.031-1.262-.082-.365-.221-.666-.416-.901a1.664 1.664 0 0 0-.707-.526 3.25 3.25 0 0 0-.957-.269c-.714-.092-1.331-.002-1.85.27-.503.273-.816.765-.94 1.475l-3.071-.396a4.587 4.587 0 0 1 .748-1.67c.371-.5.827-.909 1.368-1.227a5.875 5.875 0 0 1 1.881-.701 7.27 7.27 0 0 1 2.281-.045 8.289 8.289 0 0 1 2.177.572 4.468 4.468 0 0 1 1.668 1.134c.453.494.775 1.125.966 1.892.194.751.221 1.666.082 2.745-.013.095-.043.268-.092.52l-.107.833c-.041.318-.092.65-.153.997l-.12.928c-.131 1.016-.205 1.845-.224 2.488-.018.643.001 1.242.059 1.798l-3.023-.39a12.635 12.635 0 0 1-.048-.756 85.8 85.8 0 0 1 .021-.917Zm17.195 4.203a6.828 6.828 0 0 1-2.144-.64 5.508 5.508 0 0 1-1.694-1.308 5.917 5.917 0 0 1-1.097-2.004c-.255-.775-.358-1.66-.311-2.654l-2.332-.301-.713 5.522-3.285-.423 1.652-12.806 3.285.424-.605 4.689 2.452.316c.269-.836.627-1.548 1.074-2.136a5.968 5.968 0 0 1 1.536-1.399 5.597 5.597 0 0 1 1.857-.704 6.69 6.69 0 0 1 2.063-.049 7.564 7.564 0 0 1 2.423.724 5.68 5.68 0 0 1 1.888 1.502c.531.633.917 1.393 1.158 2.279.24.886.286 1.908.137 3.067-.15 1.158-.453 2.135-.911 2.931-.458.796-1.024 1.433-1.698 1.911a5.68 5.68 0 0 1-2.207.973 7.563 7.563 0 0 1-2.528.086Zm.332-2.571c.936.121 1.732-.107 2.387-.684.673-.591 1.104-1.616 1.292-3.076.096-.746.099-1.391.008-1.935-.073-.558-.231-1.022-.474-1.392a2.26 2.26 0 0 0-.908-.843 3.261 3.261 0 0 0-1.23-.401c-.81-.104-1.51.136-2.102.721-.59.569-.981 1.6-1.173 3.091-.191 1.476-.082 2.571.326 3.285.424.716 1.049 1.127 1.874 1.234Zm8.487-.236 3.689.476-.494 3.832-2.44 3.533-1.88-.243 2.283-3.819-1.619-.209.461-3.57ZM217.682 204.388l5.248-5.977a10.06 10.06 0 0 1-1.116-.961 6.425 6.425 0 0 1-.826-1.105 4.342 4.342 0 0 1-.445-1.237 4.92 4.92 0 0 1-.016-1.515c.204-1.586.899-2.747 2.082-3.482 1.206-.752 2.861-.992 4.963-.721l7.171.925-2.065 16.008-4.106-.53.695-5.385-2.708-.35-4.176 4.937-4.701-.607Zm11.999-7.194.541-4.195-2.856-.368c-.893-.116-1.583-.003-2.07.338-.465.323-.739.802-.821 1.436-.089.695.071 1.25.481 1.666.433.398 1.085.654 1.958.766l2.767.357Zm13.829 4.265.461-3.571 9.848 1.271-.461 3.57-9.848-1.27Zm19.365 8.759 2.783-21.571 4.255.549-1.34 10.384.03.003 9.105-9.382 4.76.614-9.331 9.263 6.876 12.351-4.939-.637-6.536-11.703-.03-.004-1.378 10.682-4.255-.549Zm27.707-9.796c-1.19-.153-2.18.173-2.969.978-.768.789-1.26 2.026-1.477 3.712-.218 1.686-.056 3.008.486 3.965.562.96 1.438 1.516 2.628 1.67 1.19.153 2.169-.164 2.936-.952.787-.786 1.29-2.022 1.507-3.708.218-1.686.045-3.009-.516-3.969-.54-.977-1.405-1.542-2.595-1.696Zm-1.746 13.538a9 9 0 0 1-2.94-.893 7.534 7.534 0 0 1-2.326-1.903c-.644-.789-1.118-1.728-1.421-2.815-.301-1.108-.361-2.366-.179-3.774.182-1.409.559-2.61 1.131-3.605.572-.995 1.269-1.793 2.093-2.392a7.125 7.125 0 0 1 2.728-1.221 8.559 8.559 0 0 1 3.075-.148c1.031.133 2 .439 2.906.919a7.097 7.097 0 0 1 2.359 1.878c.645.788 1.117 1.737 1.418 2.844.301 1.108.36 2.366.178 3.774-.181 1.409-.558 2.61-1.13 3.605-.569.975-1.266 1.763-2.089 2.362a7.454 7.454 0 0 1-2.763 1.247 8.902 8.902 0 0 1-3.04.122Zm21.726-5.032a46.56 46.56 0 0 0-2.995.007c-.832.034-1.519.127-2.063.279-.541.131-.952.341-1.23.627-.277.267-.443.619-.5 1.055-.074.575.09 1.101.493 1.576.402.476 1.07.773 2.002.894 1.289.166 2.268-.071 2.935-.711.667-.64 1.086-1.614 1.254-2.923l.104-.804Zm-.352 5.309c-.685.779-1.48 1.311-2.384 1.598-.882.269-1.928.326-3.138.17a7.36 7.36 0 0 1-2.159-.611 6.24 6.24 0 0 1-1.726-1.161 4.698 4.698 0 0 1-1.061-1.619 4.137 4.137 0 0 1-.223-2.025c.123-.952.473-1.713 1.051-2.284.6-.588 1.383-1.032 2.349-1.33.986-.297 2.14-.491 3.463-.582a54.39 54.39 0 0 1 4.399-.098l.038-.298c.079-.615.067-1.141-.038-1.578-.103-.457-.276-.832-.521-1.126a2.075 2.075 0 0 0-.883-.658 4.067 4.067 0 0 0-1.196-.336c-.893-.115-1.664-.003-2.313.337-.629.343-1.02.957-1.175 1.845l-3.838-.495a5.712 5.712 0 0 1 .934-2.088 5.688 5.688 0 0 1 1.711-1.534 7.327 7.327 0 0 1 2.351-.876c.889-.168 1.839-.186 2.851-.056.991.128 1.898.366 2.721.714.824.329 1.52.801 2.085 1.419.566.617.968 1.405 1.208 2.364.242.938.276 2.082.102 3.431-.016.119-.054.336-.115.651l-.134 1.041c-.051.397-.115.812-.191 1.246l-.15 1.16c-.163 1.27-.257 2.306-.28 3.11-.023.804.002 1.553.073 2.248l-3.778-.488c-.027-.265-.046-.58-.06-.945.007-.362.015-.744.027-1.146Zm5.566 2.805.418-3.243.387.05a1.59 1.59 0 0 0 1.121-.249c.333-.239.637-.644.913-1.213.297-.587.568-1.358.812-2.315.267-.974.534-2.18.8-3.617l.946-4.99 12.08 1.558-2.065 16.007-4.106-.529 1.647-12.765-4.136-.533-.73 3.778c-.567 2.992-1.433 5.169-2.596 6.531-1.162 1.342-2.734 1.886-4.718 1.63l-.773-.1Zm30.264-3.537a45.873 45.873 0 0 0-2.996.007c-.831.034-1.519.126-2.063.278-.541.132-.951.341-1.23.628-.276.267-.443.618-.499 1.055-.074.575.09 1.1.492 1.576.403.475 1.07.773 2.003.893 1.289.166 2.267-.07 2.935-.71.667-.64 1.085-1.615 1.254-2.924l.104-.803Zm-.353 5.308c-.685.779-1.479 1.312-2.384 1.599-.881.269-1.927.326-3.137.17a7.36 7.36 0 0 1-2.16-.612 6.21 6.21 0 0 1-1.725-1.16 4.687 4.687 0 0 1-1.062-1.619 4.137 4.137 0 0 1-.223-2.025c.123-.952.473-1.714 1.051-2.285.6-.588 1.384-1.031 2.35-1.33.986-.296 2.14-.49 3.463-.582a54.827 54.827 0 0 1 4.398-.098l.039-.297c.079-.615.066-1.141-.039-1.578-.102-.457-.276-.832-.52-1.126a2.073 2.073 0 0 0-.883-.658 4.052 4.052 0 0 0-1.197-.336c-.893-.115-1.663-.003-2.312.337-.629.342-1.021.957-1.176 1.844l-3.838-.495a5.701 5.701 0 0 1 .935-2.087 5.696 5.696 0 0 1 1.71-1.534 7.342 7.342 0 0 1 2.352-.876c.888-.168 1.839-.187 2.85-.056.992.128 1.899.366 2.721.714.825.328 1.52.801 2.086 1.418.565.618.968 1.406 1.207 2.364.242.939.276 2.083.102 3.431-.015.119-.053.336-.114.651l-.134 1.042c-.052.396-.115.812-.191 1.245l-.15 1.161c-.164 1.269-.257 2.306-.28 3.109-.023.804.001 1.553.073 2.248l-3.779-.487a15.558 15.558 0 0 1-.059-.946c.006-.362.015-.744.026-1.146ZM318.058 239.632a8.2 8.2 0 0 1-1.37 2.879 8.157 8.157 0 0 1-2.27 2.127c-.898.549-1.917.942-3.056 1.178-1.118.219-2.321.245-3.61.079-1.607-.207-3.002-.649-4.185-1.326a9.057 9.057 0 0 1-2.892-2.672c-.725-1.102-1.226-2.376-1.503-3.824-.257-1.445-.274-3.03-.052-4.756.22-1.705.657-3.212 1.309-4.519.653-1.307 1.477-2.381 2.472-3.22a9.199 9.199 0 0 1 3.498-1.788c1.336-.352 2.787-.426 4.354-.224 1.27.163 2.407.492 3.412.984a8.337 8.337 0 0 1 2.576 1.845 7.631 7.631 0 0 1 1.634 2.57c.401.959.617 2.016.65 3.169l-4.046-.522c-.102-.779-.299-1.44-.592-1.982a4.505 4.505 0 0 0-1.029-1.403 3.906 3.906 0 0 0-1.403-.846 6.757 6.757 0 0 0-1.669-.427 5.34 5.34 0 0 0-2.356.21c-.735.228-1.403.636-2.003 1.224-.6.588-1.111 1.339-1.531 2.252-.42.914-.711 1.996-.872 3.246-.167 1.289-.165 2.449.005 3.479.172 1.01.462 1.884.871 2.623.431.721.963 1.294 1.593 1.718.651.427 1.363.69 2.137.79.635.081 1.249.09 1.842.025a5.07 5.07 0 0 0 1.639-.514c.52-.276.981-.65 1.385-1.122.404-.472.742-1.064 1.015-1.775l4.047.522Zm5.015-14.084 15.71 2.027-.445 3.451-11.455-1.478-.691 5.356 10.83 1.397-.445 3.451-10.83-1.397-.756 5.862 11.455 1.478-.445 3.451-15.71-2.027 2.782-21.571Zm25.969 25.28-3.235-16.903-2.091 16.216-3.958-.51 2.783-21.572 6.189.799 3.068 17.486 7.256-16.154 6.248.806-2.782 21.571-3.957-.511 2.091-16.215-7.387 15.532-4.225-.545Z" fill="#005"/><defs><linearGradient id="b" x1="290.512" y1="149.863" x2="269.289" y2="266.385" gradientUnits="userSpaceOnUse"><stop stop-color="#DEF8FF"/><stop offset="1" stop-color="#A6D8EC"/></linearGradient><filter id="a" x=".275" y="-20.585" width="541.132" height="429.45" filterUnits="userSpaceOnUse" color-interpolation-filters="sRGB"><feFlood flood-opacity="0" result="BackgroundImageFix"/><feColorMatrix in="SourceAlpha" values="0 0 0 0 0 0 0 0 0 0 0 0 0 0 0 0 0 0 127 0" result="hardAlpha"/><feOffset/><feGaussianBlur stdDeviation="2"/><feComposite in2="hardAlpha" operator="out"/><feColorMatrix values="0 0 0 0 1 0 0 0 0 1 0 0 0 0 1 0 0 0 1 0"/><feBlend in2="BackgroundImageFix" result="effect1_dropShadow_33_13906"/><feColorMatrix in="SourceAlpha" values="0 0 0 0 0 0 0 0 0 0 0 0 0 0 0 0 0 0 127 0" result="hardAlpha"/><feOffset/><feGaussianBlur stdDeviation="5.5"/><feComposite in2="hardAlpha" operator="out"/><feColorMatrix values="0 0 0 0 1 0 0 0 0 1 0 0 0 0 1 0 0 0 1 0"/><feBlend in2="effect1_dropShadow_33_13906" result="effect2_dropShadow_33_13906"/><feColorMatrix in="SourceAlpha" values="0 0 0 0 0 0 0 0 0 0 0 0 0 0 0 0 0 0 127 0" result="hardAlpha"/><feOffset/><feGaussianBlur stdDeviation="9.5"/><feComposite in2="hardAlpha" operator="out"/><feColorMatrix values="0 0 0 0 1 0 0 0 0 1 0 0 0 0 1 0 0 0 1 0"/><feBlend in2="effect2_dropShadow_33_13906" result="effect3_dropShadow_33_13906"/><feColorMatrix in="SourceAlpha" values="0 0 0 0 0 0 0 0 0 0 0 0 0 0 0 0 0 0 127 0" result="hardAlpha"/><feOffset/><feGaussianBlur stdDeviation="20"/><feComposite in2="hardAlpha" operator="out"/><feColorMatrix values="0 0 0 0 1 0 0 0 0 1 0 0 0 0 1 0 0 0 1 0"/><feBlend in2="effect3_dropShadow_33_13906" result="effect4_dropShadow_33_13906"/><feColorMatrix in="SourceAlpha" values="0 0 0 0 0 0 0 0 0 0 0 0 0 0 0 0 0 0 127 0" result="hardAlpha"/><feOffset/><feGaussianBlur stdDeviation="40"/><feComposite in2="hardAlpha" operator="out"/><feColorMatrix values="0 0 0 0 1 0 0 0 0 1 0 0 0 0 1 0 0 0 1 0"/><feBlend in2="effect4_dropShadow_33_13906" result="effect5_dropShadow_33_13906"/><feColorMatrix in="SourceAlpha" values="0 0 0 0 0 0 0 0 0 0 0 0 0 0 0 0 0 0 127 0" result="hardAlpha"/><feOffset/><feGaussianBlur stdDeviation="45"/><feComposite in2="hardAlpha" operator="out"/><feColorMatrix values="0 0 0 0 1 0 0 0 0 1 0 0 0 0 1 0 0 0 1 0"/><feBlend in2="effect5_dropShadow_33_13906" result="effect6_dropShadow_33_13906"/><feColorMatrix in="SourceAlpha" values="0 0 0 0 0 0 0 0 0 0 0 0 0 0 0 0 0 0 127 0" result="hardAlpha"/><feOffset/><feGaussianBlur stdDeviation="50"/><feComposite in2="hardAlpha" operator="out"/><feColorMatrix values="0 0 0 0 1 0 0 0 0 1 0 0 0 0 1 0 0 0 1 0"/><feBlend in2="effect6_dropShadow_33_13906" result="effect7_dropShadow_33_13906"/><feColorMatrix in="SourceAlpha" values="0 0 0 0 0 0 0 0 0 0 0 0 0 0 0 0 0 0 127 0" result="hardAlpha"/><feOffset/><feGaussianBlur stdDeviation="75"/><feComposite in2="hardAlpha" operator="out"/><feColorMatrix values="0 0 0 0 1 0 0 0 0 1 0 0 0 0 1 0 0 0 1 0"/><feBlend in2="effect7_dropShadow_33_13906" result="effect8_dropShadow_33_13906"/><feBlend in="SourceGraphic" in2="effect8_dropShadow_33_13906" result="shape"/></filter></defs></svg>