<svg width="313" height="145" fill="none" xmlns="http://www.w3.org/2000/svg"><path d="M20.913 121.572 2.055 20.675a5 5 0 0 1 4.682-5.913L296.76 1.244a5 5 0 0 1 5.233 4.994v91.664a5 5 0 0 1-4.582 4.982L26.246 125.636a5 5 0 0 1-5.332-4.064Z" stroke="#fff" stroke-width="2"/><path fill-rule="evenodd" clip-rule="evenodd" d="M12.027 22.218 31.02 132.437a5 5 0 0 0 5.323 4.135l47.358-3.762 71.479 12.119-13.12-16.754 165.738-13.165a5.001 5.001 0 0 0 4.604-4.985V11.953a5 5 0 0 0-5.162-4.997L16.792 16.371a5 5 0 0 0-4.765 5.847Z" fill="#D81966"/><path fill-rule="evenodd" clip-rule="evenodd" d="m16.837 21.805 18.928 105.88a5 5 0 0 0 5.318 4.105l45.548-3.618 64.246 11.544-11.097-15.766 167.149-13.277a5 5 0 0 0 4.604-4.985v-93.74a5 5 0 0 0-5.158-4.997L21.602 15.928a5 5 0 0 0-4.765 5.877Z" fill="#FF267E"/><path d="m32.233 25.585 6.752-.468a12.1 12.1 0 0 1 2.29.057c.758.076 1.446.269 2.06.579.63.293 1.15.722 1.557 1.287.423.548.666 1.27.728 2.163a3.77 3.77 0 0 1-.109 1.21 4.596 4.596 0 0 1-.383 1.062c-.17.332-.365.634-.587.907a3.583 3.583 0 0 1-.63.62c.346.137.678.306.997.509.334.185.632.43.893.732.262.302.48.672.654 1.11.174.42.281.926.322 1.516.066.942-.063 1.753-.384 2.433a4.554 4.554 0 0 1-1.327 1.68c-.579.44-1.269.785-2.07 1.034-.785.23-1.625.377-2.52.439l-7.038.489-1.205-17.359Zm4.443 14.44 3.782-.263c1.006-.07 1.742-.33 2.208-.779.466-.45.671-1.073.616-1.871-.057-.814-.355-1.41-.894-1.79-.541-.396-1.346-.556-2.416-.482l-3.639.252.343 4.932Zm-.522-7.518 3.543-.246c.814-.057 1.431-.292 1.852-.706.436-.415.628-1.006.575-1.772-.048-.687-.317-1.205-.806-1.556-.49-.351-1.133-.5-1.931-.444l-3.544.246.31 4.478Zm16.127-3.814.893 12.88-3.304.23-.894-12.88 3.305-.23Zm-.311-4.477.212 3.064-3.304.23-.212-3.065 3.304-.23Zm7.414 16.927-.712-10.271-4.19.29-.182-2.61 11.684-.81.181 2.61-4.19.29.713 10.271-3.304.23Zm16.964-7.096c-.92.16-1.702.319-2.349.476-.647.157-1.171.338-1.574.542-.404.189-.693.417-.867.686-.175.253-.25.555-.226.906.032.463.244.85.634 1.159.39.31.96.438 1.71.386 1.038-.072 1.769-.411 2.192-1.018.423-.607.598-1.437.525-2.49l-.045-.647Zm.557 4.22c-.415.718-.955 1.261-1.619 1.628-.65.35-1.46.558-2.434.626a5.89 5.89 0 0 1-1.79-.14 4.992 4.992 0 0 1-1.537-.64c-.437-.29-.799-.658-1.087-1.103a3.312 3.312 0 0 1-.492-1.554c-.053-.766.102-1.418.465-1.957.379-.555.924-1.026 1.635-1.412.726-.387 1.601-.72 2.625-1a43.621 43.621 0 0 1 3.435-.768l-.017-.24c-.034-.494-.127-.905-.278-1.231-.152-.342-.347-.61-.585-.802a1.66 1.66 0 0 0-.796-.377 3.25 3.25 0 0 0-.992-.076c-.718.05-1.305.26-1.76.628-.44.367-.65.91-.633 1.631l-3.088.215c.02-.643.154-1.238.405-1.785a4.553 4.553 0 0 1 1.1-1.471 5.875 5.875 0 0 1 1.708-1.057 7.252 7.252 0 0 1 2.227-.492 8.277 8.277 0 0 1 2.247.133c.698.128 1.318.39 1.858.785.541.396.98.95 1.319 1.665.337.699.543 1.59.619 2.676.006.096.01.272.012.528l.058.838c.022.32.038.655.046 1.007l.065.934c.07 1.022.16 1.85.269 2.483.108.635.245 1.218.41 1.752l-3.04.211a12.565 12.565 0 0 1-.196-.732 85.882 85.882 0 0 1-.159-.903Zm17.685.745a6.794 6.794 0 0 1-2.227-.206 5.51 5.51 0 0 1-1.919-.95 5.924 5.924 0 0 1-1.469-1.75c-.402-.71-.677-1.557-.825-2.54l-2.347.162.386 5.555-3.304.229-.894-12.881 3.304-.23.327 4.717 2.466-.17c.1-.874.311-1.642.634-2.306a5.97 5.97 0 0 1 1.231-1.674 5.612 5.612 0 0 1 1.683-1.055 6.704 6.704 0 0 1 2.014-.452 7.56 7.56 0 0 1 2.518.234 5.673 5.673 0 0 1 2.145 1.102c.646.517 1.173 1.186 1.583 2.007.41.822.655 1.815.736 2.98.081 1.166-.025 2.184-.317 3.054-.292.87-.723 1.606-1.29 2.207a5.674 5.674 0 0 1-1.973 1.387 7.561 7.561 0 0 1-2.462.58Zm-.18-2.586c.943-.065 1.678-.445 2.207-1.139.544-.711.765-1.801.663-3.27-.052-.75-.176-1.383-.372-1.899-.181-.532-.427-.956-.738-1.271a2.26 2.26 0 0 0-1.055-.649 3.275 3.275 0 0 0-1.286-.151c-.814.056-1.453.43-1.919 1.12-.466.673-.647 1.76-.543 3.26.103 1.485.424 2.537.965 3.157.556.62 1.249.9 2.079.842Zm8.888-3.48-1.138-7.739-.309-4.453 3.304-.23.309 4.454.013 7.818-2.179.15Zm-.362 5.174-.249-3.591 3.543-.246.249 3.591-3.543.246ZM45.11 55.901l-3.56.247-.129-1.851 9.418-.654.128 1.852-3.575.248.674 9.72-2.282.159-.675-9.72Zm7.706 9.233-.596-8.587 2.155-.15.407 5.858 3.376-6.12 2.203-.153.596 8.587-2.155.15-.392-5.651-3.39 5.913-2.204.153Zm13.951-.968-.596-8.588 4.23-.293c.458-.032.886-.03 1.284.007a3.08 3.08 0 0 1 1.078.278c.31.15.56.362.75.638.19.275.3.636.331 1.083.059.84-.262 1.457-.962 1.847.424.11.78.315 1.07.616.297.29.465.705.503 1.248.032.468-.025.878-.171 1.23-.148.342-.368.63-.662.864a3.33 3.33 0 0 1-1.07.524 6.12 6.12 0 0 1-1.363.239l-4.422.307Zm2.083-1.877 1.996-.139c1.021-.07 1.509-.436 1.463-1.096-.023-.34-.173-.576-.45-.706-.266-.142-.655-.195-1.166-.16l-1.979.138.136 1.963Zm-.236-3.4 1.868-.13c.415-.028.735-.12.96-.275.223-.165.324-.407.302-.726-.023-.33-.156-.54-.397-.63-.242-.101-.576-.137-1.002-.107l-1.851.128.12 1.74Zm7.755 4.61-.596-8.587 2.155-.15.407 5.858 3.376-6.12 2.203-.153.596 8.587-2.155.15-.392-5.65-3.391 5.912-2.203.153Zm10.35-.718-.596-8.587 6.21-.431.12 1.74-4.006.278.475 6.847-2.203.153Zm11.576-2.295c.606-.042 1.057-.33 1.351-.864.305-.534.429-1.221.37-2.062-.058-.84-.275-1.505-.651-1.992-.366-.498-.853-.727-1.46-.684-.606.042-1.078.326-1.415.852-.328.525-.461 1.219-.401 2.08.06.884.29 1.563.686 2.038.407.463.913.674 1.52.632Zm-3.838 4.565-.79-11.381 2.203-.153.077 1.101c.206-.42.52-.757.94-1.011.42-.264.901-.415 1.444-.453a3.38 3.38 0 0 1 1.49.217c.473.181.883.458 1.229.83.357.37.646.826.865 1.367.23.54.368 1.145.415 1.815.048.692-.005 1.321-.158 1.888a4.086 4.086 0 0 1-.684 1.475 3.48 3.48 0 0 1-1.119.975 3.341 3.341 0 0 1-1.43.42 3.503 3.503 0 0 1-1.377-.193c-.47-.16-.861-.47-1.17-.929l.268 3.879-2.203.153Zm14.73-7.775c-.612.107-1.134.213-1.565.317a4.93 4.93 0 0 0-1.05.362c-.269.126-.462.278-.578.457a.923.923 0 0 0-.15.604c.021.309.162.566.422.773.261.206.641.292 1.141.257.692-.048 1.178-.274 1.46-.679.282-.404.399-.957.35-1.66l-.03-.43Zm.372 2.813c-.277.48-.637.841-1.079 1.086-.433.233-.974.372-1.623.417a3.932 3.932 0 0 1-1.194-.094 3.332 3.332 0 0 1-1.024-.426 2.499 2.499 0 0 1-.724-.735 2.207 2.207 0 0 1-.329-1.036c-.035-.51.068-.946.311-1.305.252-.37.615-.684 1.089-.941.485-.259 1.068-.48 1.75-.667a29.112 29.112 0 0 1 2.29-.512l-.011-.16a2.368 2.368 0 0 0-.185-.82 1.414 1.414 0 0 0-.39-.535 1.108 1.108 0 0 0-.531-.252 2.167 2.167 0 0 0-.661-.05c-.479.033-.87.172-1.174.418-.293.245-.434.608-.422 1.088l-2.059.143a3.03 3.03 0 0 1 .271-1.19c.177-.376.421-.703.733-.981.323-.29.702-.524 1.138-.704.448-.181.943-.29 1.485-.328a5.517 5.517 0 0 1 1.498.088c.466.086.879.26 1.239.524.361.264.654.634.879 1.11.225.465.362 1.06.413 1.784.004.063.007.18.008.352l.039.558c.015.213.025.437.03.672l.044.622c.047.681.107 1.233.179 1.656.072.423.163.812.273 1.168l-2.027.14a8.587 8.587 0 0 1-.13-.488c-.035-.19-.07-.39-.106-.602Zm3.986.83-.596-8.587 4.23-.294c.458-.031.886-.029 1.284.008.409.035.768.128 1.078.278.309.15.559.362.75.637.19.276.3.637.331 1.084.059.84-.262 1.456-.962 1.847.425.11.781.314 1.069.615.298.29.466.706.504 1.248.032.469-.025.879-.171 1.231-.148.342-.368.63-.662.864a3.335 3.335 0 0 1-1.07.523 6.137 6.137 0 0 1-1.363.24l-4.422.306Zm2.083-1.877 1.996-.138c1.021-.07 1.509-.436 1.463-1.096-.023-.34-.173-.576-.45-.706-.266-.142-.655-.196-1.166-.16l-1.979.137.136 1.963Zm-.235-3.4 1.867-.129c.415-.029.735-.12.959-.275.224-.165.325-.407.303-.727-.023-.33-.155-.54-.397-.63-.242-.1-.576-.136-1.002-.107l-1.851.129.121 1.74Zm11.355 4.361-.596-8.587 3.24-.225 2.391 6.025 1.52-6.297 3.24-.224.596 8.587-2.107.146-.472-6.8-1.842 6.96-1.549.108-2.786-6.639.472 6.8-2.107.146Zm15.681-8.177c-.639.044-1.122.318-1.451.822-.319.493-.447 1.191-.384 2.096.063.904.286 1.578.67 2.022.394.443.91.643 1.549.598.638-.044 1.117-.312 1.436-.805.329-.493.462-1.192.399-2.097-.062-.904-.291-1.578-.685-2.021-.385-.455-.896-.66-1.534-.615Zm.504 7.262a4.804 4.804 0 0 1-1.631-.16 4.012 4.012 0 0 1-1.416-.751 4.08 4.08 0 0 1-1.038-1.323c-.273-.548-.436-1.2-.488-1.955-.053-.756.018-1.424.213-2.004.195-.58.477-1.07.845-1.47.367-.4.8-.708 1.299-.924a4.561 4.561 0 0 1 1.592-.4 4.52 4.52 0 0 1 1.616.177c.534.145 1.011.39 1.43.735.42.345.766.792 1.04 1.34.273.547.436 1.199.488 1.954.052.756-.019 1.424-.214 2.004a4.055 4.055 0 0 1-.845 1.454c-.368.4-.806.713-1.314.941a4.755 4.755 0 0 1-1.577.382Zm4.834-.544 2.846-4.752-3.218-3.85 2.458-.171 3.024 3.832.016-.002-.279-4.022 2.203-.153.279 4.023.016-.002 2.498-4.215 2.538-.176-2.719 4.263 3.475 4.313-2.586.18-3.192-4.157-.016.001.303 4.358-2.203.152-.302-4.357-.016.001-2.587 4.558-2.538.176Zm13.536-.94-.121-1.739.208-.014a.85.85 0 0 0 .56-.248c.149-.16.266-.403.35-.73.094-.338.155-.77.183-1.295.037-.538.05-1.196.039-1.976l-.027-2.709 6.48-.45.596 8.588-2.203.153-.475-6.848-2.219.154.014 2.052c.017 1.624-.208 2.854-.674 3.688-.467.823-1.232 1.272-2.296 1.346l-.415.029Zm10.477-.726-.596-8.588 2.155-.15.407 5.859 3.376-6.12 2.203-.154.596 8.588-2.155.15-.392-5.651-3.391 5.913-2.203.153Zm10.35-.719-.596-8.587 4.23-.294a8.01 8.01 0 0 1 1.284.008c.409.035.768.128 1.078.278.309.15.559.362.75.637.19.276.3.637.331 1.084.059.84-.262 1.456-.962 1.847.425.11.781.315 1.069.615.298.29.466.706.504 1.249.032.468-.025.878-.171 1.23-.148.342-.368.63-.662.864a3.335 3.335 0 0 1-1.07.524 6.132 6.132 0 0 1-1.363.239l-4.422.306Zm2.084-1.876 1.995-.139c1.021-.07 1.509-.436 1.463-1.096-.023-.34-.173-.576-.45-.706-.266-.142-.655-.195-1.165-.16l-1.98.137.137 1.964Zm-.236-3.4 1.867-.13c.415-.029.735-.12.959-.275.224-.165.325-.407.303-.727-.023-.33-.155-.54-.397-.63-.242-.1-.576-.136-1.002-.107l-1.851.129.121 1.74Zm9.361-4.13.596 8.587-2.203.153-.596-8.587 2.203-.153Zm-.207-2.985.142 2.043-2.203.153-.142-2.043 2.203-.153Zm5.994 2.39c.457-.031.903.002 1.338.1.445.098.852.262 1.221.493.369.231.684.535.945.913.262.377.448.83.56 1.356l-2.107.146a1.749 1.749 0 0 0-.677-.963c-.327-.255-.715-.367-1.162-.336-.606.042-1.08.31-1.419.804-.33.493-.463 1.192-.4 2.097.063.904.286 1.589.672 2.054.395.454.911.658 1.55.614.404-.028.759-.16 1.063-.394.315-.236.529-.62.642-1.152l2.107-.146c-.087.594-.25 1.103-.488 1.526-.238.412-.53.753-.875 1.023-.334.269-.71.471-1.129.607-.418.136-.856.22-1.313.252-.66.045-1.253-.026-1.779-.214a3.863 3.863 0 0 1-1.374-.835 4.221 4.221 0 0 1-.928-1.363 5.795 5.795 0 0 1-.397-1.784 5.497 5.497 0 0 1 .162-1.824c.164-.567.419-1.06.764-1.48.344-.43.769-.776 1.275-1.035.506-.26 1.089-.412 1.749-.458Zm7.74 8.285-.475-6.848-2.793.194-.121-1.74 7.789-.54.121 1.74-2.793.193.475 6.848-2.203.153Zm6.33-.44-.596-8.587 2.203-.153.194 2.794 1.772-.123c1.213-.085 2.107.089 2.682.519.575.43.896 1.13.964 2.098.038.554.001 1.021-.111 1.403-.113.382-.305.7-.576.954-.261.243-.601.432-1.019.568a6.599 6.599 0 0 1-1.458.246l-4.055.281Zm2.083-1.876 1.581-.11c.51-.036.882-.152 1.114-.35.242-.21.347-.543.316-1-.028-.405-.176-.678-.442-.82-.267-.152-.656-.21-1.167-.175l-1.564.108.162 2.347Zm13.567-6.299c-.639.045-1.122.319-1.451.823-.319.492-.446 1.19-.384 2.095.063.905.286 1.579.67 2.023.394.443.911.642 1.549.598.639-.044 1.117-.313 1.436-.805.329-.494.462-1.193.4-2.097-.063-.905-.292-1.578-.686-2.021-.384-.455-.896-.66-1.534-.616Zm.504 7.263a4.804 4.804 0 0 1-1.631-.16 4.012 4.012 0 0 1-1.416-.751 4.083 4.083 0 0 1-1.038-1.324c-.273-.547-.436-1.2-.488-1.955-.053-.755.018-1.423.213-2.003.195-.58.477-1.07.845-1.47a3.81 3.81 0 0 1 1.299-.924 4.564 4.564 0 0 1 1.592-.4 4.52 4.52 0 0 1 1.616.177c.534.145 1.011.39 1.43.735.42.345.766.791 1.04 1.339.273.548.436 1.2.488 1.955.053.755-.019 1.423-.214 2.003a4.055 4.055 0 0 1-.845 1.454c-.368.4-.806.714-1.314.942a4.755 4.755 0 0 1-1.577.382Zm7.787-.75-.475-6.847-2.793.194-.121-1.74 7.789-.54.121 1.74-2.793.194.475 6.847-2.203.153Zm10.361-2.21c.607-.042 1.057-.33 1.352-.863.305-.535.428-1.222.37-2.063-.058-.84-.276-1.505-.652-1.992-.366-.498-.852-.726-1.458-.684-.607.042-1.079.326-1.417.852-.327.525-.461 1.219-.401 2.08.062.884.29 1.563.687 2.038.406.463.913.674 1.519.632Zm-3.837 4.565-.79-11.38 2.203-.154.076 1.102c.207-.42.52-.758.941-1.012.42-.264.901-.415 1.444-.453a3.376 3.376 0 0 1 1.49.217 3.25 3.25 0 0 1 1.229.83c.357.37.645.826.864 1.367.23.54.369 1.145.415 1.815.048.692-.004 1.321-.158 1.888a4.084 4.084 0 0 1-.683 1.475 3.48 3.48 0 0 1-1.119.976 3.343 3.343 0 0 1-1.431.42 3.502 3.502 0 0 1-1.376-.194c-.471-.16-.861-.47-1.171-.929l.269 3.879-2.203.153Zm9.751-3.484-.596-8.587 2.155-.15.407 5.858 3.376-6.12 2.203-.153.596 8.587-2.155.15-.392-5.65-3.391 5.913-2.203.152Zm10.35-.718-.596-8.587 3.24-.225 2.391 6.025 1.52-6.297 3.24-.224.596 8.587-2.107.146-.472-6.8-1.842 6.96-1.548.108-2.787-6.639.472 6.8-2.107.146Zm17.574-5.165c-.613.107-1.135.212-1.566.317a4.914 4.914 0 0 0-1.049.362c-.27.125-.462.278-.578.457a.917.917 0 0 0-.151.604c.022.308.162.566.423.772.26.207.64.293 1.14.258.692-.048 1.179-.274 1.461-.679.282-.404.398-.958.35-1.66l-.03-.431Zm.371 2.813c-.276.479-.636.84-1.079 1.085-.433.234-.974.373-1.623.418a3.923 3.923 0 0 1-1.193-.094 3.322 3.322 0 0 1-1.024-.426 2.502 2.502 0 0 1-.725-.736 2.206 2.206 0 0 1-.328-1.035c-.036-.511.068-.946.31-1.305.252-.37.615-.684 1.089-.942a8.51 8.51 0 0 1 1.75-.666 29.112 29.112 0 0 1 2.29-.512l-.011-.16a2.325 2.325 0 0 0-.185-.821 1.393 1.393 0 0 0-.39-.534 1.108 1.108 0 0 0-.531-.252 2.168 2.168 0 0 0-.661-.05c-.478.033-.87.172-1.173.418-.294.245-.434.607-.422 1.088l-2.059.142c.013-.428.103-.825.27-1.189.177-.376.422-.703.734-.981a3.91 3.91 0 0 1 1.138-.705c.447-.18.942-.29 1.485-.327a5.51 5.51 0 0 1 1.497.088c.466.085.879.26 1.24.524.36.263.653.633.879 1.11.224.465.362 1.06.412 1.783.005.064.007.181.009.352l.038.56c.015.212.025.436.031.67l.043.623c.047.681.107 1.233.179 1.656.072.422.163.812.274 1.168l-2.027.14a8.532 8.532 0 0 1-.131-.488l-.106-.602Zm5.918.696-.475-6.848-2.793.194-.121-1.74 7.789-.54.121 1.74-2.793.194.475 6.847-2.203.153Zm6.33-.44-.596-8.587 2.155-.15.407 5.859 3.376-6.12 2.203-.154.596 8.588-2.155.15-.392-5.651-3.391 5.913-2.203.153ZM68.692 97.665l-.26-3.735.48-.033a.958.958 0 0 0 .531-.198c.152-.128.275-.35.37-.667.096-.327.161-.77.197-1.328.036-.57.043-1.303.024-2.2l-.065-2.561 6.592-.458.475 6.848 1.325-.092.259 3.735-2.043.142-.139-1.995-5.841.405.138 1.995-2.043.142Zm6.141-4.18-.354-5.107-2.41.167.012 1.571c0 .45-.005.845-.014 1.188a7.098 7.098 0 0 1-.08.92c-.045.27-.108.526-.187.767-.08.24-.186.483-.319.727l3.352-.232Zm8.159-5.906c-.639.044-1.123.318-1.451.822-.319.493-.447 1.191-.384 2.096.063.904.286 1.579.67 2.022.394.443.91.643 1.549.599.638-.045 1.117-.313 1.435-.806.33-.493.463-1.192.4-2.096-.062-.905-.291-1.579-.685-2.022-.385-.454-.896-.66-1.534-.615Zm.504 7.262a4.805 4.805 0 0 1-1.631-.16 4.006 4.006 0 0 1-1.416-.75 4.066 4.066 0 0 1-1.038-1.324c-.273-.548-.436-1.2-.489-1.955-.052-.756.02-1.424.214-2.004.195-.58.477-1.07.845-1.47.367-.4.8-.707 1.299-.924a4.563 4.563 0 0 1 1.592-.399 4.52 4.52 0 0 1 1.616.176c.534.145 1.01.39 1.43.735.42.345.766.792 1.04 1.34.273.547.436 1.199.488 1.954.052.756-.019 1.424-.214 2.004a4.067 4.067 0 0 1-.845 1.454c-.368.4-.806.713-1.314.941a4.756 4.756 0 0 1-1.577.382ZM97.598 95.515 96.52 79.97l-5.267.365-.268-3.863c3.856-.364 5.439-1.596 6.253-4.187l3.991-.277 1.606 23.145-5.236.363Zm8.325-12.254c-.512-7.374 2.59-12.144 9.102-12.596 6.48-.45 10.211 3.846 10.723 11.22.514 7.407-2.581 12.273-9.061 12.722-6.513.452-10.25-3.94-10.764-11.346Zm14.429-1.001c-.385-5.555-2.375-7.886-5.057-7.7-2.713.188-4.362 2.772-3.977 8.327.39 5.618 2.385 8.014 5.098 7.826 2.682-.186 4.326-2.835 3.936-8.453Zm15.281-1.06c-.512-7.375 2.589-12.145 9.102-12.597 6.48-.45 10.211 3.846 10.722 11.22.514 7.407-2.58 12.273-9.061 12.723-6.512.451-10.249-3.94-10.763-11.347Zm14.429-1.002c-.385-5.555-2.375-7.886-5.057-7.7-2.713.188-4.362 2.772-3.977 8.327.39 5.619 2.385 8.014 5.098 7.826 2.682-.186 4.326-2.834 3.936-8.453Zm8.422-.584c-.512-7.375 2.59-12.145 9.102-12.597 6.48-.45 10.211 3.847 10.723 11.22.514 7.407-2.581 12.273-9.061 12.723-6.513.452-10.25-3.94-10.764-11.346Zm14.43-1.002c-.386-5.554-2.376-7.886-5.058-7.7-2.713.188-4.362 2.772-3.977 8.327.39 5.619 2.385 8.014 5.098 7.826 2.682-.186 4.326-2.834 3.937-8.453Zm8.422-.584c-.512-7.375 2.589-12.145 9.101-12.597 6.481-.45 10.211 3.847 10.723 11.22.514 7.407-2.581 12.273-9.061 12.723-6.512.452-10.249-3.94-10.763-11.346Zm14.429-1.002c-.386-5.554-2.376-7.886-5.057-7.7-2.714.188-4.363 2.773-3.977 8.327.39 5.619 2.384 8.014 5.098 7.826 2.681-.186 4.326-2.834 3.936-8.453Zm34.24-5.648 1.756-.122.175 2.522-21.325 1.48-.175-2.522 12.993-.901c.959-.516 1.548-1.263 1.486-2.156-.086-1.246-1.304-2.155-3.602-1.996-2.203.153-3.742 1.094-4.144 2.693l-5.108.355c.434-4.842 4.67-7.124 8.948-7.421 4.629-.322 8.932 1.593 9.26 6.318.051.734-.039 1.285-.264 1.75Zm-19.13 7.679-.175-2.522 21.325-1.48.175 2.522-12.865.893c-1.053.554-1.647 1.237-1.582 2.163.113 1.628 1.864 2.372 3.939 2.228 3.001-.208 4.381-1.587 4.845-3.223l5.139-.357c-.464 4.395-4.121 7.632-9.58 8.01-5.012.349-9.344-1.98-9.667-6.642-.042-.606-.018-1.185.106-1.707l-1.66.115ZM147.089 114.23l-.301-4.337-4.525.314-.175-2.514 4.525-.314-.306-4.42 2.618-.182.307 4.42 4.504-.312.175 2.514-4.505.312.301 4.337-2.618.182Zm19.253-3.252a3.618 3.618 0 0 0 1.098-.245c.342-.136.631-.317.868-.544.25-.228.436-.486.556-.775.134-.304.188-.638.162-1.001-.031-.447-.155-.817-.371-1.111a2.19 2.19 0 0 0-.871-.718 3.367 3.367 0 0 0-1.225-.358 7.397 7.397 0 0 0-1.518-.042l-.608.043-.157-2.263.503-.035c1.089-.075 1.935-.324 2.537-.744.616-.436.899-1.01.849-1.722a1.79 1.79 0 0 0-.27-.866 1.777 1.777 0 0 0-.568-.592 2.37 2.37 0 0 0-.801-.323 2.839 2.839 0 0 0-.911-.084c-.88.061-1.568.361-2.064.901-.483.525-.731 1.187-.746 1.988l-2.744.191c.062-1.534.566-2.762 1.512-3.684.96-.936 2.312-1.465 4.058-1.587a7.68 7.68 0 0 1 1.881.102c.639.11 1.208.316 1.706.618.512.301.932.7 1.262 1.197.343.495.539 1.099.588 1.811a3.514 3.514 0 0 1-.448 2.031 4.213 4.213 0 0 1-1.373 1.443c.402.14.766.332 1.092.576.325.23.603.506.836.826.232.307.41.646.534 1.016.137.355.218.721.244 1.099.054.768-.053 1.456-.319 2.064a4.23 4.23 0 0 1-1.178 1.534 5.886 5.886 0 0 1-1.805.988 8.523 8.523 0 0 1-2.242.45c-.866.061-1.657-.018-2.374-.235a5.564 5.564 0 0 1-1.834-.946 5.259 5.259 0 0 1-1.243-1.535 5.539 5.539 0 0 1-.619-1.935l2.724-.189c.082.373.205.729.369 1.069.177.338.401.631.671.879.284.247.606.435.966.565.373.128.798.176 1.273.143Zm13.711 1.238c-1.02.07-1.927-.063-2.723-.401a5.512 5.512 0 0 1-2.02-1.502c-.551-.663-.993-1.467-1.325-2.413-.318-.946-.517-1.999-.598-3.158-.079-1.145-.027-2.208.158-3.189.198-.982.525-1.833.98-2.552a5.31 5.31 0 0 1 1.795-1.746c.741-.444 1.621-.702 2.641-.772 1.005-.07 1.899.064 2.68.403a5.078 5.078 0 0 1 2.018 1.48c.565.65 1.006 1.447 1.324 2.393.332.945.538 1.99.618 3.136.08 1.159.021 2.229-.177 3.211-.185.982-.511 1.839-.98 2.573a5.263 5.263 0 0 1-1.793 1.767c-.727.443-1.593.7-2.598.77Zm-.152-2.179c1.034-.072 1.782-.622 2.243-1.65.462-1.029.63-2.458.503-4.287-.127-1.83-.489-3.208-1.087-4.135-.599-.941-1.415-1.376-2.448-1.304-1.034.072-1.789.615-2.266 1.631-.464 1.001-.632 2.416-.505 4.245.127 1.83.49 3.222 1.09 4.177.613.954 1.437 1.395 2.47 1.323Zm14.043 1.215c-1.02.07-1.927-.063-2.722-.401a5.496 5.496 0 0 1-2.02-1.502c-.551-.663-.993-1.467-1.325-2.413-.319-.946-.518-1.999-.599-3.158-.079-1.145-.026-2.208.158-3.189.199-.983.525-1.833.981-2.552a5.298 5.298 0 0 1 1.794-1.746c.741-.444 1.621-.702 2.641-.773 1.006-.07 1.899.065 2.68.404a5.083 5.083 0 0 1 2.019 1.48c.564.65 1.005 1.447 1.324 2.393.332.945.538 1.99.617 3.135.081 1.16.022 2.23-.177 3.212-.184.982-.511 1.839-.979 2.573a5.263 5.263 0 0 1-1.793 1.767c-.727.443-1.594.7-2.599.77Zm-.151-2.179c1.033-.072 1.781-.622 2.243-1.65.462-1.029.629-2.458.502-4.288-.127-1.829-.489-3.207-1.087-4.134-.598-.941-1.414-1.376-2.448-1.304-1.033.072-1.788.615-2.265 1.63-.464 1.001-.633 2.416-.506 4.246.127 1.83.491 3.222 1.09 4.177.614.953 1.437 1.395 2.471 1.323Zm18.459 4.318-.244-3.519a7.688 7.688 0 0 1-2.243-.161 4.951 4.951 0 0 1-1.913-.877c-.549-.425-1.001-.983-1.358-1.674-.344-.706-.552-1.576-.623-2.609-.068-.978.02-1.833.264-2.566.257-.747.627-1.369 1.112-1.866a5.04 5.04 0 0 1 1.771-1.176 7.255 7.255 0 0 1 2.197-.489l-.271-3.917 2.723-.19.272 3.918a7.261 7.261 0 0 1 2.244.181 4.844 4.844 0 0 1 1.895.921c.563.424 1.016.989 1.36 1.695.356.691.569 1.525.637 2.503.071 1.033-.021 1.924-.278 2.672-.244.732-.615 1.347-1.114 1.845a4.759 4.759 0 0 1-1.753 1.132 7.734 7.734 0 0 1-2.199.469l.245 3.519-2.724.189Zm-.881-12.695c-.852.059-1.517.379-1.996.959-.466.566-.654 1.498-.564 2.797.045.642.145 1.176.3 1.6.17.423.383.759.639 1.008.255.235.561.396.917.484.357.087.752.116 1.185.086l-.481-6.934Zm3.205 6.745a3.84 3.84 0 0 0 1.161-.249c.342-.136.622-.338.842-.606.219-.282.377-.643.472-1.085.11-.443.142-.985.098-1.628-.045-.642-.152-1.182-.323-1.619-.158-.452-.372-.809-.643-1.071a1.981 1.981 0 0 0-.923-.568 3.292 3.292 0 0 0-1.166-.108l.482 6.934Zm13.296-.775c.796-.056 1.387-.434 1.774-1.134.4-.701.562-1.604.485-2.707-.076-1.103-.361-1.975-.855-2.614-.48-.654-1.118-.954-1.914-.899-.797.056-1.416.428-1.859 1.119-.43.689-.605 1.599-.527 2.731.081 1.159.381 2.05.902 2.674.533.608 1.198.885 1.994.83Zm-5.036 5.991-1.037-14.937 2.891-.201.1 1.445a3.152 3.152 0 0 1 1.234-1.327c.552-.347 1.183-.545 1.896-.595a4.434 4.434 0 0 1 1.956.285c.62.238 1.157.6 1.612 1.088.469.487.847 1.085 1.135 1.795.302.709.484 1.503.545 2.383.063.908-.006 1.734-.207 2.477-.187.743-.486 1.388-.897 1.936-.399.533-.888.96-1.469 1.281a4.384 4.384 0 0 1-1.878.551 4.606 4.606 0 0 1-1.807-.253c-.618-.21-1.13-.616-1.537-1.22l.354 5.091-2.891.201Zm14.907-16.044.782 11.271-2.891.201-.782-11.271 2.891-.2Zm-.272-3.918.186 2.682-2.891.2-.186-2.68 2.891-.202Zm7.867 3.138c.6-.041 1.185.002 1.756.131a5.009 5.009 0 0 1 1.602.647 4.23 4.23 0 0 1 1.241 1.198c.343.495.588 1.089.734 1.78l-2.765.192a2.29 2.29 0 0 0-.888-1.265c-.43-.335-.938-.482-1.525-.441-.796.055-1.417.407-1.863 1.055-.433.648-.607 1.565-.525 2.752.082 1.188.376 2.086.882 2.697.518.595 1.196.864 2.034.806.531-.037.996-.21 1.396-.518.414-.309.694-.813.842-1.511l2.766-.192c-.115.78-.328 1.447-.64 2.002a4.624 4.624 0 0 1-1.149 1.343 4.632 4.632 0 0 1-1.481.798 7.199 7.199 0 0 1-1.725.33c-.866.06-1.644-.034-2.335-.28a5.073 5.073 0 0 1-1.802-1.096 5.528 5.528 0 0 1-1.219-1.789 7.62 7.62 0 0 1-.52-2.343 7.21 7.21 0 0 1 .213-2.393 5.357 5.357 0 0 1 1.002-1.943 5.097 5.097 0 0 1 1.674-1.358c.664-.341 1.429-.541 2.295-.602Zm7.624 11.049-.782-11.27 10.077-.7.782 11.271-2.891.2-.624-8.987-4.295.298.624 8.987-2.891.201Zm15.08-12.372.782 11.271-2.891.201-.782-11.271 2.891-.2Zm-.272-3.917.186 2.681-2.891.2-.186-2.68 2.891-.201Zm3.953 14.987-.783-11.27 2.892-.201.302 4.357 4.693-.326-.303-4.357 2.891-.2.782 11.27-2.891.201-.321-4.63-4.693.325.322 4.63-2.891.201Zm15.468-12.399.782 11.271-2.891.201-.782-11.271 2.891-.2Zm-.272-3.917.186 2.681-2.891.2-.186-2.68 2.891-.201Zm3.953 14.987-.782-11.27 5.551-.386a10.527 10.527 0 0 1 1.685.01 4.044 4.044 0 0 1 1.415.364c.406.197.734.475.984.837s.395.836.436 1.422c.076 1.104-.345 1.912-1.264 2.425a2.907 2.907 0 0 1 1.404.807c.391.38.611.926.661 1.639.042.614-.033 1.153-.225 1.615a2.9 2.9 0 0 1-.869 1.134 4.38 4.38 0 0 1-1.404.687 8.043 8.043 0 0 1-1.789.313l-5.803.403Zm2.734-2.463 2.619-.182c1.34-.093 1.981-.572 1.921-1.438-.031-.447-.228-.756-.591-.928-.35-.186-.86-.256-1.53-.21l-2.598.181.179 2.577Zm-.31-4.462 2.451-.17c.545-.038.965-.159 1.259-.362.294-.216.426-.534.397-.953-.03-.433-.203-.709-.52-.827-.318-.133-.756-.18-1.315-.14l-2.43.168.158 2.284Z" fill="#fff"/></svg>