<svg width="542" height="409" viewBox="0 0 542 409" fill="none" xmlns="http://www.w3.org/2000/svg">
<g filter="url(#filter0_dddddddd_33_13906)">
<path fill-rule="evenodd" clip-rule="evenodd" d="M381.946 160.528C388.13 161.403 392.346 167.246 391.227 173.391L377.303 249.836C376.278 255.462 371.114 259.364 365.422 258.813L160.62 238.997C155.001 238.454 150.705 233.745 150.679 228.099L150.275 140.468C150.244 133.759 156.174 128.586 162.816 129.526L381.946 160.528ZM389.259 173.033C390.175 168.005 386.726 163.225 381.666 162.509L162.536 131.506C157.101 130.737 152.25 134.97 152.275 140.459L152.679 228.09C152.7 232.709 156.215 236.562 160.812 237.007L365.614 256.823C370.271 257.273 374.497 254.08 375.335 249.477L389.259 173.033Z" fill="white"/>
</g>
<path fill-rule="evenodd" clip-rule="evenodd" d="M158.977 145.046L158.06 241.442C158.01 246.647 161.961 251.019 167.145 251.495L211.726 255.589L284.86 278.926L272.125 261.136L373.032 270.402C378.19 270.876 382.856 267.332 383.785 262.236L398.821 179.68C399.834 174.122 396.044 168.829 390.455 167.997L170.449 135.251C164.444 134.357 159.035 138.976 158.977 145.046Z" fill="#77B0C6"/>
<path fill-rule="evenodd" clip-rule="evenodd" d="M164.751 146.449L164.449 238.724C164.432 243.921 168.399 248.265 173.576 248.718L214.601 252.313L281.239 274.132L270.437 257.206L372.31 266.132C377.454 266.583 382.096 263.043 383.021 257.962L397.316 179.48C398.33 173.914 394.527 168.616 388.929 167.794L176.202 136.587C170.179 135.704 164.77 140.361 164.751 146.449Z" fill="#FF267E"/>
<path fill-rule="evenodd" clip-rule="evenodd" d="M164.751 146.449L164.449 238.724C164.432 243.921 168.399 248.265 173.576 248.718L214.601 252.313L281.239 274.132L270.437 257.206L372.31 266.132C377.454 266.583 382.096 263.043 383.021 257.962L397.316 179.48C398.33 173.914 394.527 168.616 388.929 167.794L176.202 136.587C170.179 135.704 164.77 140.361 164.751 146.449Z" fill="url(#paint0_linear_33_13906)"/>
<path d="M173.704 169.438L175.93 152.181L188.022 153.741L187.666 156.502L178.978 155.381L177.108 169.877L173.704 169.438ZM194.004 169.806C194.908 169.923 195.656 169.632 196.246 168.934C196.852 168.238 197.236 167.263 197.398 166.009C197.559 164.755 197.435 163.715 197.026 162.888C196.634 162.047 195.986 161.568 195.082 161.451C194.177 161.335 193.399 161.613 192.747 162.288C192.112 162.964 191.711 163.945 191.545 165.23C191.375 166.547 191.512 167.613 191.955 168.429C192.417 169.23 193.099 169.689 194.004 169.806ZM187.016 175.39L189.205 158.419L192.49 158.842L192.278 160.485C192.705 159.927 193.265 159.523 193.959 159.274C194.655 159.009 195.407 158.928 196.216 159.033C197.01 159.135 197.719 159.388 198.345 159.791C198.986 160.197 199.507 160.724 199.907 161.372C200.324 162.023 200.613 162.778 200.777 163.638C200.956 164.5 200.981 165.431 200.852 166.43C200.719 167.462 200.456 168.372 200.064 169.16C199.688 169.95 199.208 170.606 198.625 171.128C198.059 171.636 197.415 172.005 196.691 172.234C195.984 172.465 195.241 172.531 194.464 172.431C193.797 172.345 193.141 172.115 192.496 171.741C191.85 171.367 191.367 170.797 191.047 170.03L190.301 175.814L187.016 175.39ZM210.97 168.292C210.037 168.269 209.239 168.271 208.574 168.298C207.909 168.325 207.359 168.399 206.924 168.52C206.491 168.626 206.163 168.793 205.939 169.023C205.718 169.236 205.585 169.517 205.54 169.866C205.481 170.327 205.612 170.747 205.934 171.127C206.256 171.508 206.79 171.746 207.536 171.842C208.567 171.975 209.35 171.786 209.884 171.274C210.418 170.762 210.752 169.982 210.887 168.935L210.97 168.292ZM210.688 172.539C210.14 173.162 209.505 173.588 208.781 173.818C208.076 174.033 207.239 174.078 206.271 173.954C205.652 173.874 205.076 173.711 204.544 173.465C204.011 173.218 203.551 172.909 203.163 172.536C202.791 172.166 202.508 171.734 202.314 171.241C202.121 170.732 202.062 170.192 202.136 169.621C202.234 168.859 202.514 168.25 202.976 167.793C203.456 167.323 204.083 166.968 204.856 166.729C205.645 166.492 206.568 166.337 207.626 166.264C208.7 166.193 209.873 166.166 211.145 166.185L211.176 165.947C211.239 165.455 211.229 165.035 211.145 164.685C211.063 164.32 210.924 164.019 210.729 163.784C210.549 163.551 210.314 163.376 210.022 163.258C209.733 163.124 209.414 163.034 209.065 162.989C208.351 162.897 207.734 162.987 207.215 163.259C206.712 163.532 206.399 164.024 206.275 164.734L203.204 164.338C203.35 163.712 203.599 163.155 203.952 162.668C204.323 162.168 204.779 161.759 205.32 161.441C205.879 161.11 206.506 160.876 207.201 160.74C207.912 160.606 208.673 160.591 209.482 160.695C210.275 160.798 211.001 160.988 211.659 161.267C212.318 161.529 212.875 161.907 213.327 162.401C213.78 162.895 214.102 163.526 214.293 164.293C214.487 165.043 214.514 165.958 214.375 167.038C214.362 167.133 214.332 167.306 214.283 167.558C214.253 167.796 214.217 168.074 214.176 168.391C214.135 168.709 214.084 169.041 214.023 169.388C213.98 169.721 213.94 170.031 213.903 170.316C213.772 171.332 213.698 172.161 213.679 172.804C213.661 173.447 213.68 174.046 213.738 174.602L210.715 174.212C210.694 174 210.678 173.748 210.667 173.456C210.672 173.166 210.679 172.861 210.688 172.539ZM227.883 176.741C227.122 176.643 226.407 176.43 225.739 176.102C225.088 175.776 224.523 175.34 224.045 174.794C223.569 174.233 223.203 173.565 222.948 172.79C222.693 172.015 222.59 171.13 222.637 170.136L220.305 169.835L219.592 175.357L216.307 174.934L217.959 162.128L221.244 162.551L220.639 167.241L223.091 167.557C223.36 166.72 223.718 166.008 224.165 165.421C224.628 164.835 225.14 164.369 225.701 164.022C226.277 163.677 226.897 163.442 227.558 163.318C228.235 163.195 228.923 163.179 229.621 163.269C230.494 163.382 231.302 163.623 232.044 163.993C232.787 164.363 233.416 164.864 233.932 165.495C234.463 166.128 234.849 166.888 235.09 167.774C235.33 168.66 235.376 169.682 235.227 170.84C235.077 171.999 234.774 172.976 234.316 173.772C233.858 174.568 233.292 175.205 232.618 175.682C231.959 176.162 231.223 176.487 230.411 176.656C229.599 176.826 228.756 176.854 227.883 176.741ZM228.215 174.171C229.151 174.292 229.947 174.063 230.602 173.487C231.275 172.896 231.706 171.871 231.894 170.411C231.99 169.665 231.993 169.02 231.902 168.476C231.829 167.918 231.671 167.454 231.428 167.084C231.201 166.716 230.899 166.435 230.52 166.241C230.16 166.033 229.75 165.899 229.29 165.84C228.48 165.735 227.78 165.976 227.188 166.561C226.598 167.13 226.207 168.161 226.015 169.652C225.824 171.128 225.933 172.223 226.341 172.937C226.765 173.653 227.39 174.064 228.215 174.171ZM236.687 172.553L237.055 169.697L244.934 170.713L244.565 173.57L236.687 172.553ZM246.619 178.844L248.271 166.038L254.578 166.852C255.261 166.94 255.889 167.069 256.464 167.24C257.055 167.413 257.556 167.655 257.968 167.966C258.379 168.278 258.684 168.664 258.883 169.125C259.082 169.586 259.138 170.15 259.052 170.816C258.89 172.07 258.237 172.881 257.092 173.25C257.685 173.536 258.149 173.943 258.484 174.47C258.837 174.983 258.961 175.645 258.857 176.454C258.767 177.152 258.562 177.739 258.243 178.214C257.926 178.673 257.516 179.031 257.015 179.289C256.516 179.532 255.94 179.683 255.287 179.744C254.649 179.807 253.958 179.79 253.212 179.694L246.619 178.844ZM250.235 176.697L253.21 177.081C254.734 177.277 255.559 176.883 255.686 175.9C255.751 175.392 255.6 175.001 255.232 174.728C254.882 174.441 254.326 174.248 253.564 174.15L250.613 173.769L250.235 176.697ZM250.889 171.627L253.674 171.986C254.293 172.066 254.79 172.025 255.166 171.864C255.544 171.687 255.763 171.36 255.825 170.884C255.888 170.392 255.756 170.044 255.427 169.841C255.1 169.621 254.62 169.47 253.985 169.388L251.224 169.032L250.889 171.627ZM265.874 168.309L264.222 181.115L260.938 180.691L262.59 167.885L265.874 168.309ZM266.448 163.858L266.055 166.904L262.771 166.481L263.164 163.434L266.448 163.858ZM270.396 181.911L271.713 171.7L267.548 171.162L267.882 168.568L279.498 170.066L279.164 172.661L274.998 172.123L273.681 182.335L270.396 181.911ZM288.422 178.283C287.489 178.26 286.691 178.262 286.026 178.289C285.361 178.316 284.811 178.39 284.376 178.512C283.943 178.617 283.615 178.784 283.391 179.014C283.17 179.227 283.037 179.508 282.992 179.858C282.933 180.318 283.064 180.738 283.386 181.118C283.708 181.499 284.242 181.737 284.988 181.833C286.019 181.966 286.802 181.777 287.336 181.265C287.87 180.753 288.204 179.973 288.339 178.926L288.422 178.283ZM288.14 182.53C287.592 183.153 286.957 183.579 286.233 183.809C285.528 184.024 284.691 184.07 283.723 183.945C283.104 183.865 282.528 183.702 281.996 183.456C281.463 183.209 281.003 182.9 280.615 182.527C280.243 182.157 279.96 181.725 279.766 181.232C279.573 180.723 279.514 180.183 279.588 179.612C279.686 178.85 279.966 178.241 280.428 177.785C280.908 177.314 281.535 176.959 282.308 176.72C283.097 176.483 284.02 176.328 285.078 176.255C286.152 176.184 287.325 176.158 288.597 176.176L288.628 175.938C288.691 175.446 288.681 175.026 288.597 174.676C288.515 174.311 288.376 174.01 288.181 173.775C288.001 173.543 287.766 173.367 287.474 173.249C287.185 173.115 286.866 173.025 286.517 172.98C285.803 172.888 285.186 172.978 284.667 173.25C284.164 173.523 283.851 174.015 283.727 174.725L280.656 174.329C280.802 173.703 281.051 173.146 281.404 172.659C281.775 172.159 282.231 171.75 282.772 171.432C283.331 171.101 283.958 170.867 284.653 170.731C285.364 170.597 286.125 170.582 286.934 170.686C287.727 170.789 288.453 170.979 289.111 171.258C289.77 171.52 290.327 171.899 290.779 172.392C291.232 172.886 291.554 173.517 291.745 174.284C291.939 175.035 291.966 175.95 291.827 177.029C291.814 177.124 291.784 177.297 291.735 177.549C291.705 177.787 291.669 178.065 291.628 178.382C291.587 178.7 291.536 179.032 291.475 179.379C291.432 179.712 291.392 180.022 291.355 180.307C291.224 181.323 291.15 182.152 291.131 182.795C291.113 183.438 291.132 184.037 291.19 184.593L288.167 184.203C288.146 183.991 288.13 183.739 288.119 183.447C288.124 183.157 288.131 182.852 288.14 182.53ZM305.335 186.733C304.574 186.634 303.859 186.421 303.191 186.093C302.54 185.767 301.975 185.331 301.497 184.785C301.021 184.224 300.655 183.556 300.4 182.781C300.145 182.006 300.042 181.121 300.089 180.127L297.757 179.826L297.044 185.348L293.759 184.925L295.411 172.119L298.696 172.543L298.091 177.232L300.543 177.548C300.812 176.712 301.17 176 301.617 175.412C302.08 174.826 302.592 174.36 303.153 174.013C303.729 173.668 304.349 173.433 305.01 173.309C305.687 173.186 306.375 173.17 307.073 173.26C307.946 173.373 308.754 173.614 309.496 173.984C310.239 174.354 310.868 174.855 311.384 175.486C311.915 176.119 312.301 176.879 312.542 177.765C312.782 178.651 312.828 179.673 312.679 180.832C312.529 181.99 312.226 182.967 311.768 183.763C311.31 184.559 310.744 185.196 310.07 185.674C309.411 186.153 308.675 186.478 307.863 186.647C307.051 186.817 306.208 186.845 305.335 186.733ZM305.667 184.162C306.603 184.283 307.399 184.055 308.054 183.478C308.727 182.887 309.158 181.862 309.346 180.402C309.442 179.656 309.445 179.011 309.354 178.467C309.281 177.909 309.123 177.445 308.88 177.075C308.653 176.707 308.351 176.426 307.972 176.232C307.612 176.024 307.202 175.89 306.742 175.831C305.932 175.727 305.232 175.967 304.64 176.552C304.05 177.121 303.659 178.152 303.467 179.643C303.276 181.119 303.385 182.214 303.793 182.928C304.217 183.644 304.842 184.055 305.667 184.162ZM314.154 183.926L317.843 184.402L317.349 188.234L314.909 191.767L313.029 191.524L315.312 187.705L313.693 187.496L314.154 183.926Z" fill="#000055"/>
<path d="M217.682 204.388L222.93 198.411C222.507 198.094 222.135 197.774 221.814 197.45C221.495 197.106 221.22 196.738 220.988 196.345C220.777 195.955 220.628 195.542 220.543 195.108C220.46 194.654 220.455 194.149 220.527 193.593C220.731 192.007 221.426 190.846 222.609 190.111C223.815 189.359 225.47 189.119 227.572 189.39L234.743 190.315L232.678 206.323L228.572 205.793L229.267 200.408L226.559 200.058L222.383 204.995L217.682 204.388ZM229.681 197.194L230.222 192.999L227.366 192.631C226.473 192.515 225.783 192.628 225.296 192.969C224.831 193.292 224.557 193.771 224.475 194.405C224.386 195.1 224.546 195.655 224.956 196.071C225.389 196.469 226.041 196.725 226.914 196.837L229.681 197.194ZM243.51 201.459L243.971 197.888L253.819 199.159L253.358 202.729L243.51 201.459ZM262.875 210.218L265.658 188.647L269.913 189.196L268.573 199.58L268.603 199.583L277.708 190.201L282.468 190.815L273.137 200.078L280.013 212.429L275.074 211.792L268.538 200.089L268.508 200.085L267.13 210.767L262.875 210.218ZM290.582 200.422C289.392 200.269 288.402 200.595 287.613 201.4C286.845 202.189 286.353 203.426 286.136 205.112C285.918 206.798 286.08 208.12 286.622 209.077C287.184 210.037 288.06 210.593 289.25 210.747C290.44 210.9 291.419 210.583 292.186 209.795C292.973 209.009 293.476 207.773 293.693 206.087C293.911 204.401 293.738 203.078 293.177 202.118C292.637 201.141 291.772 200.576 290.582 200.422ZM288.836 213.96C287.785 213.825 286.805 213.527 285.896 213.067C284.99 212.587 284.215 211.952 283.57 211.164C282.926 210.375 282.452 209.436 282.149 208.349C281.848 207.241 281.788 205.983 281.97 204.575C282.152 203.166 282.529 201.965 283.101 200.97C283.673 199.975 284.37 199.177 285.194 198.578C286.017 197.978 286.927 197.571 287.922 197.357C288.921 197.123 289.945 197.073 290.997 197.209C292.028 197.342 292.997 197.648 293.903 198.128C294.831 198.591 295.618 199.217 296.262 200.006C296.907 200.794 297.379 201.743 297.68 202.85C297.981 203.958 298.04 205.216 297.858 206.624C297.677 208.033 297.3 209.234 296.728 210.229C296.159 211.204 295.462 211.992 294.639 212.591C293.815 213.191 292.894 213.606 291.876 213.838C290.881 214.053 289.867 214.093 288.836 213.96ZM310.562 208.928C309.396 208.899 308.398 208.901 307.567 208.935C306.735 208.969 306.048 209.062 305.504 209.214C304.963 209.345 304.552 209.555 304.274 209.841C303.997 210.108 303.831 210.46 303.774 210.896C303.7 211.471 303.864 211.997 304.267 212.472C304.669 212.948 305.337 213.245 306.269 213.366C307.558 213.532 308.537 213.295 309.204 212.655C309.871 212.015 310.29 211.041 310.458 209.732L310.562 208.928ZM310.21 214.237C309.525 215.016 308.73 215.548 307.826 215.835C306.944 216.104 305.898 216.161 304.688 216.005C303.915 215.905 303.195 215.702 302.529 215.394C301.863 215.086 301.287 214.699 300.803 214.233C300.339 213.77 299.985 213.23 299.742 212.614C299.501 211.978 299.427 211.303 299.519 210.589C299.642 209.637 299.992 208.876 300.57 208.305C301.17 207.717 301.953 207.273 302.919 206.975C303.905 206.678 305.059 206.484 306.382 206.393C307.724 206.304 309.191 206.271 310.781 206.295L310.819 205.997C310.898 205.382 310.886 204.856 310.781 204.419C310.678 203.962 310.505 203.587 310.26 203.293C310.036 203.002 309.741 202.783 309.377 202.635C309.016 202.467 308.617 202.356 308.181 202.299C307.288 202.184 306.517 202.296 305.868 202.636C305.239 202.979 304.848 203.593 304.693 204.481L300.855 203.986C301.036 203.203 301.348 202.507 301.789 201.898C302.253 201.272 302.823 200.761 303.5 200.364C304.198 199.95 304.982 199.658 305.851 199.488C306.74 199.32 307.69 199.302 308.702 199.432C309.693 199.56 310.6 199.798 311.423 200.146C312.247 200.475 312.943 200.947 313.508 201.565C314.074 202.182 314.476 202.97 314.716 203.929C314.958 204.867 314.992 206.011 314.818 207.36C314.802 207.479 314.764 207.696 314.703 208.011C314.665 208.308 314.62 208.655 314.569 209.052C314.518 209.449 314.454 209.864 314.378 210.298C314.324 210.714 314.275 211.101 314.228 211.458C314.065 212.728 313.971 213.764 313.948 214.568C313.925 215.372 313.95 216.121 314.021 216.816L310.243 216.328C310.216 216.063 310.197 215.748 310.183 215.383C310.19 215.021 310.198 214.639 310.21 214.237ZM315.776 217.042L316.194 213.799L316.581 213.849C316.997 213.903 317.371 213.82 317.702 213.6C318.035 213.361 318.339 212.956 318.615 212.387C318.912 211.8 319.183 211.029 319.427 210.072C319.694 209.098 319.961 207.892 320.227 206.455L321.173 201.465L333.253 203.023L331.188 219.03L327.082 218.501L328.729 205.736L324.593 205.203L323.863 208.981C323.296 211.973 322.43 214.15 321.267 215.512C320.105 216.854 318.533 217.398 316.549 217.142L315.776 217.042ZM346.04 213.505C344.874 213.475 343.875 213.478 343.044 213.512C342.213 213.546 341.525 213.638 340.981 213.79C340.44 213.922 340.03 214.131 339.751 214.418C339.475 214.685 339.308 215.036 339.252 215.473C339.178 216.048 339.342 216.573 339.744 217.049C340.147 217.524 340.814 217.822 341.747 217.942C343.036 218.108 344.014 217.872 344.682 217.232C345.349 216.592 345.767 215.617 345.936 214.308L346.04 213.505ZM345.687 218.813C345.002 219.592 344.208 220.125 343.303 220.412C342.422 220.681 341.376 220.738 340.166 220.582C339.392 220.482 338.672 220.278 338.006 219.97C337.34 219.663 336.765 219.276 336.281 218.81C335.816 218.347 335.462 217.807 335.219 217.191C334.978 216.555 334.904 215.88 334.996 215.166C335.119 214.214 335.469 213.452 336.047 212.881C336.647 212.293 337.431 211.85 338.397 211.551C339.383 211.255 340.537 211.061 341.86 210.969C343.202 210.88 344.668 210.848 346.258 210.871L346.297 210.574C346.376 209.959 346.363 209.433 346.258 208.996C346.156 208.539 345.982 208.164 345.738 207.87C345.513 207.579 345.219 207.359 344.855 207.212C344.493 207.044 344.094 206.932 343.658 206.876C342.765 206.761 341.995 206.873 341.346 207.213C340.717 207.555 340.325 208.17 340.17 209.057L336.332 208.562C336.514 207.779 336.825 207.083 337.267 206.475C337.731 205.849 338.301 205.338 338.977 204.941C339.676 204.527 340.46 204.235 341.329 204.065C342.217 203.897 343.168 203.878 344.179 204.009C345.171 204.137 346.078 204.375 346.9 204.723C347.725 205.051 348.42 205.524 348.986 206.141C349.551 206.759 349.954 207.547 350.193 208.505C350.435 209.444 350.469 210.588 350.295 211.936C350.28 212.055 350.242 212.272 350.181 212.587C350.143 212.885 350.098 213.232 350.047 213.629C349.995 214.025 349.932 214.441 349.856 214.874C349.802 215.291 349.752 215.678 349.706 216.035C349.542 217.304 349.449 218.341 349.426 219.144C349.403 219.948 349.427 220.697 349.499 221.392L345.72 220.905C345.694 220.639 345.674 220.324 345.661 219.959C345.667 219.597 345.676 219.215 345.687 218.813Z" fill="#000055"/>
<path d="M318.058 239.632C317.778 240.705 317.322 241.665 316.688 242.511C316.075 243.359 315.318 244.068 314.418 244.638C313.52 245.187 312.501 245.58 311.362 245.816C310.244 246.035 309.041 246.061 307.752 245.895C306.145 245.688 304.75 245.246 303.567 244.569C302.387 243.872 301.423 242.981 300.675 241.897C299.95 240.795 299.449 239.521 299.172 238.073C298.915 236.628 298.898 235.043 299.12 233.317C299.34 231.612 299.777 230.105 300.429 228.798C301.082 227.491 301.906 226.417 302.901 225.578C303.917 224.741 305.083 224.145 306.399 223.79C307.735 223.438 309.186 223.364 310.753 223.566C312.023 223.729 313.16 224.058 314.165 224.55C315.173 225.023 316.032 225.638 316.741 226.395C317.452 227.132 317.997 227.989 318.375 228.965C318.776 229.924 318.992 230.981 319.025 232.134L314.979 231.612C314.877 230.833 314.68 230.172 314.387 229.63C314.117 229.071 313.774 228.603 313.358 228.227C312.963 227.854 312.495 227.571 311.955 227.381C311.437 227.173 310.881 227.03 310.286 226.954C309.473 226.849 308.687 226.919 307.93 227.164C307.195 227.392 306.527 227.8 305.927 228.388C305.327 228.976 304.816 229.727 304.396 230.64C303.976 231.554 303.685 232.636 303.524 233.886C303.357 235.175 303.359 236.335 303.529 237.365C303.701 238.375 303.991 239.249 304.4 239.988C304.831 240.709 305.363 241.282 305.993 241.706C306.644 242.133 307.356 242.396 308.13 242.496C308.765 242.577 309.379 242.586 309.972 242.521C310.567 242.437 311.114 242.265 311.611 242.007C312.131 241.731 312.592 241.357 312.996 240.885C313.4 240.413 313.738 239.821 314.011 239.11L318.058 239.632ZM323.073 225.548L338.783 227.575L338.338 231.026L326.883 229.548L326.192 234.904L337.022 236.301L336.577 239.752L325.747 238.355L324.991 244.217L336.446 245.695L336.001 249.146L320.291 247.119L323.073 225.548ZM349.042 250.828L345.807 233.925L343.716 250.141L339.758 249.631L342.541 228.059L348.73 228.858L351.798 246.344L359.054 230.19L365.302 230.996L362.52 252.567L358.563 252.056L360.654 235.841L353.267 251.373L349.042 250.828Z" fill="#000055"/>
<defs>
<filter id="filter0_dddddddd_33_13906" x="0.275269" y="-20.5848" width="541.132" height="429.45" filterUnits="userSpaceOnUse" color-interpolation-filters="sRGB">
<feFlood flood-opacity="0" result="BackgroundImageFix"/>
<feColorMatrix in="SourceAlpha" type="matrix" values="0 0 0 0 0 0 0 0 0 0 0 0 0 0 0 0 0 0 127 0" result="hardAlpha"/>
<feOffset/>
<feGaussianBlur stdDeviation="2"/>
<feComposite in2="hardAlpha" operator="out"/>
<feColorMatrix type="matrix" values="0 0 0 0 1 0 0 0 0 1 0 0 0 0 1 0 0 0 1 0"/>
<feBlend mode="normal" in2="BackgroundImageFix" result="effect1_dropShadow_33_13906"/>
<feColorMatrix in="SourceAlpha" type="matrix" values="0 0 0 0 0 0 0 0 0 0 0 0 0 0 0 0 0 0 127 0" result="hardAlpha"/>
<feOffset/>
<feGaussianBlur stdDeviation="5.5"/>
<feComposite in2="hardAlpha" operator="out"/>
<feColorMatrix type="matrix" values="0 0 0 0 1 0 0 0 0 1 0 0 0 0 1 0 0 0 1 0"/>
<feBlend mode="normal" in2="effect1_dropShadow_33_13906" result="effect2_dropShadow_33_13906"/>
<feColorMatrix in="SourceAlpha" type="matrix" values="0 0 0 0 0 0 0 0 0 0 0 0 0 0 0 0 0 0 127 0" result="hardAlpha"/>
<feOffset/>
<feGaussianBlur stdDeviation="9.5"/>
<feComposite in2="hardAlpha" operator="out"/>
<feColorMatrix type="matrix" values="0 0 0 0 1 0 0 0 0 1 0 0 0 0 1 0 0 0 1 0"/>
<feBlend mode="normal" in2="effect2_dropShadow_33_13906" result="effect3_dropShadow_33_13906"/>
<feColorMatrix in="SourceAlpha" type="matrix" values="0 0 0 0 0 0 0 0 0 0 0 0 0 0 0 0 0 0 127 0" result="hardAlpha"/>
<feOffset/>
<feGaussianBlur stdDeviation="20"/>
<feComposite in2="hardAlpha" operator="out"/>
<feColorMatrix type="matrix" values="0 0 0 0 1 0 0 0 0 1 0 0 0 0 1 0 0 0 1 0"/>
<feBlend mode="normal" in2="effect3_dropShadow_33_13906" result="effect4_dropShadow_33_13906"/>
<feColorMatrix in="SourceAlpha" type="matrix" values="0 0 0 0 0 0 0 0 0 0 0 0 0 0 0 0 0 0 127 0" result="hardAlpha"/>
<feOffset/>
<feGaussianBlur stdDeviation="40"/>
<feComposite in2="hardAlpha" operator="out"/>
<feColorMatrix type="matrix" values="0 0 0 0 1 0 0 0 0 1 0 0 0 0 1 0 0 0 1 0"/>
<feBlend mode="normal" in2="effect4_dropShadow_33_13906" result="effect5_dropShadow_33_13906"/>
<feColorMatrix in="SourceAlpha" type="matrix" values="0 0 0 0 0 0 0 0 0 0 0 0 0 0 0 0 0 0 127 0" result="hardAlpha"/>
<feOffset/>
<feGaussianBlur stdDeviation="45"/>
<feComposite in2="hardAlpha" operator="out"/>
<feColorMatrix type="matrix" values="0 0 0 0 1 0 0 0 0 1 0 0 0 0 1 0 0 0 1 0"/>
<feBlend mode="normal" in2="effect5_dropShadow_33_13906" result="effect6_dropShadow_33_13906"/>
<feColorMatrix in="SourceAlpha" type="matrix" values="0 0 0 0 0 0 0 0 0 0 0 0 0 0 0 0 0 0 127 0" result="hardAlpha"/>
<feOffset/>
<feGaussianBlur stdDeviation="50"/>
<feComposite in2="hardAlpha" operator="out"/>
<feColorMatrix type="matrix" values="0 0 0 0 1 0 0 0 0 1 0 0 0 0 1 0 0 0 1 0"/>
<feBlend mode="normal" in2="effect6_dropShadow_33_13906" result="effect7_dropShadow_33_13906"/>
<feColorMatrix in="SourceAlpha" type="matrix" values="0 0 0 0 0 0 0 0 0 0 0 0 0 0 0 0 0 0 127 0" result="hardAlpha"/>
<feOffset/>
<feGaussianBlur stdDeviation="75"/>
<feComposite in2="hardAlpha" operator="out"/>
<feColorMatrix type="matrix" values="0 0 0 0 1 0 0 0 0 1 0 0 0 0 1 0 0 0 1 0"/>
<feBlend mode="normal" in2="effect7_dropShadow_33_13906" result="effect8_dropShadow_33_13906"/>
<feBlend mode="normal" in="SourceGraphic" in2="effect8_dropShadow_33_13906" result="shape"/>
</filter>
<linearGradient id="paint0_linear_33_13906" x1="290.512" y1="149.863" x2="269.289" y2="266.385" gradientUnits="userSpaceOnUse">
<stop stop-color="#DEF8FF"/>
<stop offset="1" stop-color="#A6D8EC"/>
</linearGradient>
</defs>
</svg>
