<svg width="359" height="167" viewBox="0 0 359 167" fill="none" xmlns="http://www.w3.org/2000/svg">
<path d="M22.254 136.239L2.11045 28.465C0.995139 22.4978 5.41061 16.9213 11.4746 16.6386L336.533 1.48777C342.233 1.22213 346.999 5.7713 346.999 11.4769V108.818C346.999 114.017 343.016 118.349 337.835 118.783L32.9199 144.367C27.8057 144.796 23.1969 141.284 22.254 136.239Z" stroke="white" stroke-width="2"/>
<path fill-rule="evenodd" clip-rule="evenodd" d="M13.5368 30.2564L33.9507 148.718C34.8286 153.813 39.4443 157.398 44.5973 156.989L95.3406 152.958L177.745 166.929L162.62 147.614L349.791 132.746C354.99 132.333 358.999 127.993 358.999 122.777V18.0029C358.999 12.353 354.322 7.82507 348.675 8.00812L23.0676 18.5634C17 18.7601 12.5059 24.2738 13.5368 30.2564Z" fill="#D81966"/>
<path fill-rule="evenodd" clip-rule="evenodd" d="M19.1205 29.8096L39.4029 143.268C40.3084 148.333 44.9095 151.884 50.0387 151.477L98.7196 147.61L172.786 160.919L159.993 142.743L348.791 127.746C353.99 127.333 357.999 122.993 357.999 117.777V17.9936C357.999 12.3473 353.327 7.8207 347.684 7.99858L28.6494 18.0548C22.5529 18.2469 18.0472 23.8052 19.1205 29.8096Z" fill="#FF267E"/>
<path d="M34.0042 33.543L42.1626 32.9768C43.0883 32.9125 44.0105 32.9357 44.929 33.0464C45.8462 33.1378 46.6763 33.3709 47.4194 33.7457C48.1804 34.0998 48.8075 34.6183 49.3006 35.3011C49.8117 35.9634 50.1047 36.8345 50.1797 37.9146C50.2145 38.416 50.1708 38.9035 50.0486 39.3771C49.9444 39.8301 49.7899 40.2575 49.5853 40.6593C49.3806 41.0611 49.1443 41.4263 48.8764 41.755C48.6265 42.063 48.3725 42.3132 48.1146 42.5056C48.533 42.6703 48.9348 42.875 49.32 43.1196C49.7231 43.3435 50.0827 43.6383 50.3988 44.004C50.7149 44.3697 50.9784 44.8165 51.1895 45.3445C51.3992 45.8532 51.5288 46.4643 51.5784 47.1779C51.6573 48.3159 51.5025 49.2956 51.1137 50.1172C50.743 50.9181 50.2085 51.5947 49.5104 52.147C48.811 52.6801 47.9775 53.0965 47.0099 53.3962C46.0603 53.6752 45.0454 53.8523 43.9654 53.9272L35.4598 54.5175L34.0042 33.543ZM39.372 50.9902L43.943 50.673C45.1581 50.5886 46.0472 50.275 46.6103 49.732C47.1734 49.1891 47.4214 48.4354 47.3545 47.4711C47.2863 46.4875 46.9261 45.7663 46.2741 45.3077C45.6208 44.8298 44.6481 44.6357 43.3558 44.7253L38.9584 45.0305L39.372 50.9902ZM38.7416 41.906L43.0233 41.6089C44.0069 41.5406 44.7527 41.2563 45.2606 40.7559C45.7878 40.2542 46.0193 39.5405 45.955 38.6147C45.8974 37.7854 45.5729 37.1587 44.9815 36.7346C44.3901 36.3105 43.6122 36.132 42.6478 36.1989L38.3661 36.4961L38.7416 41.906ZM58.228 37.2979L59.3082 52.8624L55.3158 53.1395L54.2356 37.5749L58.228 37.2979ZM57.8526 31.8879L58.1096 35.591L54.1172 35.868L53.8602 32.1649L57.8526 31.8879ZM66.8118 52.3417L65.9505 39.9305L60.8876 40.2819L60.6688 37.1285L74.7868 36.1487L75.0057 39.3021L69.9429 39.6534L70.8042 52.0646L66.8118 52.3417ZM87.3092 43.768C86.1986 43.9613 85.2526 44.153 84.4712 44.3428C83.6898 44.5327 83.0557 44.7512 82.569 44.9981C82.0809 45.2258 81.7318 45.5019 81.5218 45.8266C81.3104 46.132 81.2195 46.4968 81.2489 46.9211C81.2878 47.4804 81.543 47.9472 82.0147 48.3215C82.4864 48.6957 83.1755 48.8514 84.082 48.7885C85.3357 48.7014 86.2181 48.2914 86.7292 47.5582C87.2403 46.8251 87.4517 45.822 87.3634 44.5491L87.3092 43.768ZM87.9828 48.8666C87.481 49.7347 86.8289 50.3905 86.0263 50.8337C85.2417 51.2564 84.2611 51.5086 83.0846 51.5902C82.3324 51.6424 81.6114 51.5859 80.9217 51.4206C80.2319 51.2553 79.6133 50.9978 79.0657 50.6482C78.5375 50.2973 78.0997 49.8529 77.7523 49.3149C77.4035 48.7578 77.2051 48.132 77.1569 47.4377C77.0926 46.5119 77.2802 45.7237 77.7195 45.073C78.1768 44.4018 78.835 43.8328 79.6941 43.3662C80.5725 42.8983 81.6298 42.4955 82.866 42.1577C84.1216 41.8187 85.5051 41.5095 87.0168 41.2301L86.9967 40.9408C86.9552 40.3429 86.8432 39.8468 86.6608 39.4525C86.4771 39.0389 86.2415 38.7161 85.9541 38.4841C85.686 38.2508 85.3653 38.0986 84.9922 38.0276C84.6177 37.9373 84.2183 37.9069 83.794 37.9364C82.9261 37.9966 82.2169 38.2493 81.6664 38.6945C81.1352 39.1383 80.8804 39.7955 80.902 40.6661L77.17 40.9251C77.1936 40.1483 77.3569 39.4296 77.6599 38.769C77.9809 38.0878 78.4242 37.4951 78.99 36.9907C79.5737 36.4657 80.2612 36.0401 81.0525 35.7138C81.8631 35.3862 82.7603 35.1883 83.7439 35.1201C84.7082 35.0531 85.6131 35.1066 86.4585 35.2805C87.3026 35.4351 88.0513 35.7514 88.7046 36.2293C89.3579 36.7072 89.8889 37.3777 90.2977 38.2408C90.7051 39.0846 90.9543 40.1623 91.0453 41.4738C91.0533 41.5895 91.0584 41.8023 91.0605 42.1123C91.0806 42.4016 91.104 42.7391 91.1308 43.1248C91.1576 43.5106 91.1761 43.9163 91.1862 44.3419C91.2143 44.747 91.2404 45.123 91.2645 45.4702C91.3502 46.7046 91.4584 47.7048 91.589 48.4709C91.7197 49.2371 91.885 49.9427 92.0848 50.5877L88.4106 50.8427C88.3354 50.596 88.2568 50.301 88.1748 49.9579C88.1121 49.6134 88.0481 49.2496 87.9828 48.8666ZM109.352 49.7672C108.427 49.8315 107.529 49.7484 106.661 49.518C105.811 49.2862 105.038 48.9038 104.343 48.3707C103.645 47.8183 103.054 47.1133 102.568 46.2555C102.082 45.3978 101.749 44.3743 101.57 43.1852L98.7347 43.382L99.2005 50.0939L95.2081 50.3709L94.128 34.8064L98.1203 34.5293L98.5159 40.2286L101.496 40.0218C101.616 38.9669 101.872 38.0383 102.262 37.2361C102.671 36.4325 103.167 35.7585 103.749 35.2142C104.351 34.6686 105.029 34.2436 105.783 33.9394C106.556 33.6338 107.367 33.4515 108.216 33.3926C109.277 33.319 110.291 33.4133 111.259 33.6756C112.227 33.9379 113.091 34.3818 113.851 35.0073C114.631 35.6315 115.268 36.44 115.764 37.4327C116.259 38.4255 116.555 39.6259 116.653 41.0338C116.751 42.4418 116.623 43.6716 116.27 44.7232C115.916 45.7749 115.397 46.6636 114.711 47.3896C114.044 48.1141 113.249 48.6731 112.327 49.0666C111.405 49.4601 110.413 49.6936 109.352 49.7672ZM109.135 46.6428C110.273 46.5638 111.162 46.1048 111.802 45.2659C112.459 44.4063 112.726 43.0893 112.603 41.3149C112.54 40.4084 112.39 39.6436 112.153 39.0205C111.934 38.3768 111.637 37.8645 111.261 37.4836C110.905 37.1013 110.48 36.8401 109.986 36.7C109.51 36.5393 108.992 36.4783 108.433 36.5171C107.449 36.5854 106.676 37.0363 106.114 37.8699C105.55 38.6842 105.331 39.9979 105.457 41.8108C105.582 43.6045 105.97 44.876 106.623 45.6253C107.295 46.3732 108.133 46.7124 109.135 46.6428ZM119.875 42.4381L118.499 33.0859L118.125 27.7049L122.118 27.4278L122.491 32.8089L122.507 42.2554L119.875 42.4381ZM119.436 48.6895L119.135 44.3499L123.417 44.0528L123.718 48.3923L119.436 48.6895Z" fill="white"/>
<path d="M41.0353 67.3552L36.8084 67.6485L36.6558 65.4498L47.8389 64.6737L47.9915 66.8724L43.7457 67.167L44.5468 78.7103L41.8364 78.8984L41.0353 67.3552ZM50.1879 78.3188L49.4801 68.1213L52.039 67.9437L52.5218 74.9L56.5312 67.632L59.1469 67.4504L59.8546 77.6479L57.2958 77.8255L56.8301 71.1156L52.8036 78.1373L50.1879 78.3188ZM66.7545 77.1691L66.0467 66.9716L71.0697 66.623C71.613 66.5853 72.1211 66.5881 72.5939 66.6315C73.0793 66.674 73.506 66.784 73.8738 66.9617C74.2417 67.1393 74.5385 67.3917 74.7644 67.7188C74.9903 68.046 75.1216 68.4749 75.1584 69.0056C75.2277 70.0039 74.8467 70.735 74.0155 71.199C74.5198 71.3291 74.943 71.5727 75.2852 71.9299C75.6392 72.2735 75.8385 72.7676 75.8832 73.412C75.9218 73.968 75.8541 74.4552 75.6799 74.8736C75.505 75.2794 75.243 75.6213 74.8941 75.8995C74.5443 76.165 74.1206 76.3722 73.6231 76.521C73.1381 76.6689 72.5987 76.7635 72.0048 76.8047L66.7545 77.1691ZM69.2281 74.9404L71.5974 74.776C72.8105 74.6918 73.3898 74.258 73.3355 73.4746C73.3074 73.0702 73.1293 72.7905 72.8011 72.6355C72.4847 72.467 72.0232 72.4038 71.4166 72.4459L69.0663 72.6091L69.2281 74.9404ZM68.9479 70.9032L71.1656 70.7493C71.6584 70.7151 72.0381 70.6062 72.3047 70.4226C72.5704 70.2264 72.6901 69.9388 72.6638 69.5597C72.6366 69.1679 72.4796 68.9185 72.1929 68.8115C71.9052 68.6918 71.5087 68.6495 71.0032 68.6845L68.8045 68.8371L68.9479 70.9032ZM78.1567 76.3777L77.449 66.1803L80.0078 66.0027L80.4906 72.9589L84.5 65.6909L87.1157 65.5094L87.8235 75.7069L85.2646 75.8844L84.7989 69.1746L80.7724 76.1962L78.1567 76.3777ZM90.4475 75.5247L89.7397 65.3273L97.113 64.8156L97.2564 66.8816L92.4988 67.2118L93.0632 75.3432L90.4475 75.5247ZM104.193 72.7995C104.914 72.7495 105.448 72.4077 105.798 71.774C106.16 71.1394 106.307 70.3229 106.238 69.3247C106.168 68.3264 105.91 67.538 105.464 66.9595C105.029 66.3675 104.452 66.0965 103.732 66.1465C103.011 66.1965 102.451 66.5338 102.05 67.1584C101.661 67.7821 101.502 68.6058 101.573 69.6293C101.646 70.6781 101.918 71.4846 102.389 72.0486C102.872 72.5992 103.473 72.8495 104.193 72.7995ZM99.6366 78.22L98.6987 64.7055L101.314 64.524L101.405 65.8318C101.65 65.3324 102.022 64.932 102.522 64.6307C103.02 64.3167 103.592 64.1374 104.237 64.0926C104.868 64.0488 105.458 64.1348 106.007 64.3507C106.568 64.5657 107.054 64.8938 107.465 65.3351C107.889 65.7754 108.232 66.3167 108.492 66.9589C108.765 67.6002 108.929 68.3189 108.985 69.115C109.042 69.9363 108.979 70.6834 108.797 71.3563C108.628 72.0283 108.358 72.6121 107.986 73.1077C107.626 73.5898 107.183 73.9761 106.657 74.2665C106.144 74.5561 105.577 74.7223 104.958 74.7653C104.427 74.8021 103.883 74.7257 103.323 74.5359C102.764 74.3462 102.301 73.9784 101.933 73.4326L102.252 78.0385L99.6366 78.22ZM117.128 68.9878C116.401 69.1145 115.781 69.2401 115.269 69.3645C114.757 69.4889 114.342 69.632 114.023 69.7938C113.703 69.943 113.474 70.1239 113.337 70.3366C113.198 70.5367 113.138 70.7757 113.158 71.0537C113.183 71.4201 113.35 71.726 113.659 71.9712C113.969 72.2163 114.42 72.3183 115.014 72.2771C115.835 72.2201 116.413 71.9514 116.748 71.4711C117.083 70.9908 117.222 70.3336 117.164 69.4996L117.128 68.9878ZM117.57 72.3283C117.241 72.8971 116.814 73.3267 116.288 73.6171C115.774 73.8941 115.131 74.0593 114.36 74.1128C113.868 74.147 113.395 74.1099 112.943 74.0016C112.491 73.8933 112.086 73.7246 111.727 73.4956C111.381 73.2657 111.094 72.9745 110.867 72.6221C110.638 72.257 110.508 71.847 110.477 71.3921C110.435 70.7856 110.558 70.2692 110.845 69.8429C111.145 69.4031 111.576 69.0303 112.139 68.7246C112.715 68.418 113.407 68.1541 114.217 67.9328C115.04 67.7107 115.946 67.5081 116.937 67.3251L116.924 67.1356C116.896 66.7438 116.823 66.4188 116.703 66.1605C116.583 65.8895 116.429 65.678 116.24 65.526C116.065 65.3731 115.855 65.2734 115.61 65.2269C115.365 65.1678 115.103 65.1478 114.825 65.1671C114.257 65.2066 113.792 65.3722 113.431 65.6638C113.083 65.9546 112.916 66.3852 112.93 66.9556L110.485 67.1253C110.501 66.6163 110.608 66.1455 110.806 65.7127C111.017 65.2664 111.307 64.878 111.678 64.5475C112.06 64.2036 112.511 63.9247 113.029 63.711C113.56 63.4964 114.148 63.3667 114.792 63.322C115.424 63.2781 116.017 63.3132 116.571 63.4271C117.124 63.5284 117.614 63.7356 118.043 64.0487C118.471 64.3618 118.818 64.8011 119.086 65.3666C119.353 65.9194 119.516 66.6255 119.576 67.4848C119.581 67.5606 119.585 67.7 119.586 67.9031C119.599 68.0926 119.615 68.3138 119.632 68.5665C119.65 68.8192 119.662 69.085 119.668 69.3639C119.687 69.6292 119.704 69.8756 119.72 70.1031C119.776 70.9118 119.847 71.5672 119.932 72.0691C120.018 72.571 120.126 73.0333 120.257 73.4559L117.85 73.623C117.801 73.4614 117.749 73.2681 117.695 73.0433C117.654 72.8176 117.612 72.5793 117.57 72.3283ZM122.303 73.3139L121.596 63.1164L126.619 62.7679C127.162 62.7301 127.67 62.733 128.143 62.7763C128.628 62.8188 129.055 62.9289 129.423 63.1065C129.791 63.2841 130.088 63.5365 130.313 63.8637C130.539 64.1908 130.671 64.6198 130.707 65.1505C130.777 66.1488 130.396 66.8799 129.565 67.3439C130.069 67.4739 130.492 67.7176 130.834 68.0747C131.188 68.4184 131.388 68.9124 131.432 69.5569C131.471 70.1129 131.403 70.6001 131.229 71.0185C131.054 71.4242 130.792 71.7662 130.443 72.0443C130.093 72.3099 129.67 72.517 129.172 72.6658C128.687 72.8137 128.148 72.9083 127.554 72.9495L122.303 73.3139ZM124.777 71.0853L127.146 70.9209C128.359 70.8367 128.939 70.4029 128.884 69.6194C128.856 69.2151 128.678 68.9354 128.35 68.7804C128.034 68.6119 127.572 68.5487 126.966 68.5908L124.615 68.7539L124.777 71.0853ZM124.497 67.048L126.715 66.8941C127.207 66.8599 127.587 66.751 127.854 66.5675C128.119 66.3713 128.239 66.0836 128.213 65.7045C128.186 65.3128 128.029 65.0634 127.742 64.9563C127.454 64.8366 127.058 64.7943 126.552 64.8294L124.354 64.982L124.497 67.048ZM137.982 72.2258L137.274 62.0284L141.122 61.7613L143.961 68.9159L145.765 61.4391L149.613 61.172L150.321 71.3695L147.819 71.5431L147.259 63.4686L145.071 71.7339L143.232 71.8615L139.923 63.9776L140.484 72.0522L137.982 72.2258ZM156.602 62.5154C155.844 62.568 155.27 62.8935 154.88 63.492C154.501 64.0769 154.349 64.9064 154.424 65.9805C154.498 67.0546 154.763 67.8551 155.219 68.3822C155.687 68.9084 156.3 69.1452 157.059 69.0925C157.817 69.0399 158.385 68.7212 158.763 68.1362C159.155 67.5504 159.313 66.7205 159.238 65.6464C159.164 64.5723 158.892 63.7722 158.424 63.246C157.968 62.7063 157.36 62.4627 156.602 62.5154ZM157.201 71.1396C156.531 71.1861 155.885 71.123 155.264 70.9503C154.642 70.7649 154.081 70.4673 153.583 70.0575C153.085 69.6477 152.674 69.1239 152.35 68.4861C152.026 67.8356 151.832 67.0618 151.77 66.1647C151.708 65.2675 151.793 64.4744 152.024 63.7854C152.256 63.0964 152.59 62.5145 153.027 62.0398C153.463 61.5651 153.978 61.1992 154.569 60.9423C155.16 60.6728 155.79 60.5148 156.46 60.4683C157.117 60.4227 157.757 60.4926 158.379 60.6779C159.013 60.8498 159.579 61.1406 160.078 61.5504C160.576 61.9602 160.987 62.4904 161.312 63.1408C161.636 63.7912 161.83 64.565 161.892 65.4622C161.954 66.3594 161.869 67.1525 161.638 67.8415C161.406 68.5179 161.071 69.0934 160.634 69.5681C160.197 70.0429 159.677 70.4154 159.074 70.6859C158.482 70.9428 157.858 71.094 157.201 71.1396ZM162.942 70.4936L166.321 64.8501L162.5 60.2777L165.418 60.0751L169.01 64.6254L169.029 64.6241L168.698 59.8475L171.313 59.666L171.645 64.4425L171.664 64.4412L174.63 59.4358L177.644 59.2267L174.415 64.2884L178.541 69.411L175.471 69.6241L171.681 64.6876L171.662 64.6889L172.021 69.8635L169.405 70.045L169.046 64.8705L169.027 64.8718L165.956 70.2844L162.942 70.4936ZM179.015 69.3781L178.872 67.312L179.118 67.2949C179.384 67.2765 179.605 67.1786 179.784 67.0012C179.961 66.8111 180.1 66.5222 180.2 66.1343C180.311 65.7329 180.384 65.22 180.417 64.5956C180.461 63.9576 180.477 63.1757 180.463 62.2497L180.431 59.0333L188.126 58.4992L188.834 68.6967L186.218 68.8782L185.654 60.7468L183.019 60.9296L183.036 63.3663C183.055 65.2949 182.788 66.7546 182.235 67.7452C181.681 68.7233 180.772 69.2562 179.508 69.3439L179.015 69.3781ZM191.457 68.5146L190.75 58.3171L193.309 58.1395L193.791 65.0958L197.801 57.8278L200.416 57.6462L201.124 67.8437L198.565 68.0213L198.1 61.3114L194.073 68.3331L191.457 68.5146ZM203.748 67.6616L203.04 57.4641L208.063 57.1155C208.607 57.0778 209.115 57.0807 209.588 57.124C210.073 57.1665 210.5 57.2766 210.868 57.4542C211.235 57.6318 211.532 57.8842 211.758 58.2114C211.984 58.5385 212.115 58.9674 212.152 59.4982C212.221 60.4964 211.84 61.2276 211.009 61.6916C211.513 61.8216 211.937 62.0652 212.279 62.4224C212.633 62.7661 212.832 63.2601 212.877 63.9046C212.916 64.4606 212.848 64.9478 212.674 65.3661C212.499 65.7719 212.237 66.1139 211.888 66.392C211.538 66.6575 211.114 66.8647 210.617 67.0135C210.132 67.1614 209.592 67.256 208.999 67.2972L203.748 67.6616ZM206.222 65.433L208.591 65.2686C209.804 65.1844 210.384 64.7506 210.329 63.9671C210.301 63.5627 210.123 63.2831 209.795 63.1281C209.478 62.9596 209.017 62.8964 208.41 62.9385L206.06 63.1016L206.222 65.433ZM205.942 61.3957L208.159 61.2418C208.652 61.2076 209.032 61.0987 209.298 60.9151C209.564 60.7189 209.684 60.4313 209.658 60.0522C209.63 59.6605 209.473 59.4111 209.187 59.304C208.899 59.1843 208.502 59.142 207.997 59.1771L205.798 59.3297L205.942 61.3957ZM217.058 56.4913L217.766 66.6887L215.15 66.8703L214.443 56.6728L217.058 56.4913ZM216.812 52.9468L216.981 55.373L214.365 55.5545L214.197 53.1283L216.812 52.9468ZM223.93 55.7858C224.473 55.7481 225.003 55.7875 225.519 55.9041C226.048 56.0198 226.531 56.2148 226.969 56.4891C227.407 56.7634 227.781 57.1247 228.092 57.573C228.402 58.0212 228.624 58.5582 228.756 59.1839L226.254 59.3575C226.12 58.8843 225.852 58.503 225.451 58.2134C225.062 57.9103 224.602 57.7771 224.071 57.8139C223.351 57.8639 222.789 58.1823 222.385 58.769C221.994 59.3548 221.836 60.1847 221.91 61.2588C221.985 62.3329 222.251 63.1461 222.708 63.6984C223.177 64.2372 223.791 64.4803 224.549 64.4277C225.029 64.3944 225.45 64.2382 225.811 63.9592C226.186 63.6793 226.44 63.2236 226.574 62.5921L229.076 62.4185C228.972 63.124 228.779 63.7278 228.497 64.2299C228.213 64.7194 227.867 65.1244 227.457 65.4448C227.06 65.7644 226.614 66.0049 226.117 66.1663C225.62 66.3278 225.1 66.4273 224.557 66.4651C223.773 66.5194 223.069 66.435 222.444 66.2117C221.819 65.9884 221.276 65.6579 220.814 65.2202C220.351 64.7699 219.983 64.2303 219.711 63.6017C219.451 62.9595 219.294 62.253 219.24 61.4822C219.187 60.7114 219.251 59.9895 219.433 59.3167C219.627 58.6429 219.929 58.0569 220.339 57.5587C220.748 57.0478 221.253 56.6382 221.854 56.3299C222.455 56.0216 223.147 55.8402 223.93 55.7858ZM233.122 65.623L232.558 57.4916L229.241 57.7218L229.097 55.6558L238.347 55.0138L238.49 57.0799L235.173 57.3101L235.738 65.4415L233.122 65.623ZM240.639 65.1014L239.931 54.9039L242.547 54.7224L242.777 58.0394L244.881 57.8934C246.322 57.7934 247.383 57.999 248.066 58.5103C248.749 59.0216 249.131 59.8522 249.211 61.0021C249.256 61.6591 249.212 62.2145 249.079 62.6682C248.945 63.1219 248.717 63.4995 248.396 63.8012C248.085 64.0894 247.682 64.3142 247.185 64.4756C246.7 64.6236 246.123 64.7208 245.453 64.7672L240.639 65.1014ZM243.113 62.8727L244.989 62.7425C245.596 62.7004 246.037 62.5619 246.312 62.3269C246.6 62.0784 246.725 61.6825 246.687 61.1391C246.654 60.6589 246.479 60.3346 246.163 60.1661C245.845 59.985 245.383 59.9154 244.777 59.9575L242.919 60.0865L243.113 62.8727ZM259.222 55.3934C258.464 55.4461 257.89 55.7716 257.5 56.37C257.122 56.955 256.97 57.7845 257.044 58.8586C257.119 59.9327 257.384 60.7332 257.839 61.2603C258.308 61.7865 258.921 62.0232 259.679 61.9706C260.437 61.918 261.005 61.5992 261.384 61.0143C261.775 60.4285 261.933 59.5985 261.859 58.5245C261.784 57.4504 261.513 56.6502 261.044 56.1241C260.588 55.5844 259.981 55.3408 259.222 55.3934ZM259.821 64.0177C259.151 64.0642 258.506 64.0011 257.884 63.8283C257.262 63.643 256.702 63.3454 256.203 62.9356C255.705 62.5257 255.294 62.0019 254.971 61.3641C254.646 60.7137 254.453 59.9399 254.391 59.0427C254.328 58.1456 254.413 57.3525 254.644 56.6635C254.876 55.9744 255.21 55.3926 255.647 54.9179C256.084 54.4431 256.598 54.0773 257.19 53.8204C257.78 53.5509 258.411 53.3928 259.08 53.3464C259.738 53.3008 260.377 53.3706 261 53.556C261.634 53.7278 262.2 54.0187 262.698 54.4285C263.196 54.8383 263.608 55.3685 263.932 56.0189C264.257 56.6693 264.45 57.4431 264.512 58.3403C264.574 59.2375 264.49 60.0306 264.258 60.7196C264.026 61.396 263.691 61.9715 263.254 62.4462C262.818 62.9209 262.297 63.2935 261.694 63.5639C261.102 63.8208 260.478 63.9721 259.821 64.0177ZM269.069 63.1283L268.504 54.9969L265.187 55.2271L265.044 53.161L274.294 52.5191L274.437 54.5851L271.12 54.8153L271.684 62.9468L269.069 63.1283ZM281.373 60.5032C282.093 60.4532 282.628 60.1113 282.977 59.4776C283.34 58.843 283.486 58.0266 283.417 57.0283C283.348 56.03 283.09 55.2417 282.643 54.6632C282.209 54.0712 281.631 53.8002 280.911 53.8502C280.191 53.9002 279.63 54.2375 279.229 54.862C278.84 55.4858 278.682 56.3094 278.753 57.3329C278.826 58.3817 279.097 59.1882 279.568 59.7523C280.051 60.3029 280.652 60.5532 281.373 60.5032ZM276.816 65.9237L275.878 52.4092L278.494 52.2276L278.584 53.5355C278.829 53.036 279.201 52.6356 279.701 52.3343C280.2 52.0203 280.771 51.841 281.416 51.7963C282.048 51.7524 282.638 51.8385 283.186 52.0543C283.747 52.2694 284.233 52.5975 284.645 53.0387C285.069 53.4791 285.411 54.0203 285.671 54.6625C285.945 55.3038 286.109 56.0225 286.164 56.8186C286.221 57.64 286.159 58.3871 285.977 59.0599C285.807 59.7319 285.537 60.3157 285.165 60.8113C284.805 61.2934 284.362 61.6797 283.836 61.9701C283.323 62.2597 282.757 62.426 282.137 62.4689C281.607 62.5058 281.062 62.4293 280.503 62.2396C279.944 62.0498 279.48 61.682 279.112 61.1362L279.432 65.7421L276.816 65.9237ZM288.395 61.787L287.687 51.5896L290.246 51.412L290.729 58.3683L294.738 51.1002L297.354 50.9187L298.062 61.1162L295.503 61.2937L295.037 54.5839L291.011 61.6055L288.395 61.787ZM300.686 60.9341L299.978 50.7366L303.826 50.4695L306.665 57.6242L308.47 50.1473L312.318 49.8802L313.025 60.0777L310.523 60.2513L309.963 52.1768L307.775 60.4421L305.936 60.5697L302.628 52.6858L303.188 60.7604L300.686 60.9341ZM321.555 54.8005C320.827 54.9272 320.207 55.0527 319.695 55.1772C319.183 55.3016 318.768 55.4447 318.449 55.6065C318.129 55.7556 317.9 55.9366 317.763 56.1493C317.624 56.3493 317.565 56.5884 317.584 56.8664C317.609 57.2328 317.777 57.5386 318.086 57.7838C318.395 58.029 318.846 58.131 319.44 58.0898C320.262 58.0328 320.84 57.7641 321.175 57.2838C321.509 56.8034 321.648 56.1463 321.59 55.3123L321.555 54.8005ZM321.996 58.141C321.667 58.7098 321.24 59.1394 320.714 59.4298C320.2 59.7067 319.558 59.8719 318.787 59.9254C318.294 59.9596 317.822 59.9226 317.37 59.8143C316.918 59.706 316.512 59.5373 316.154 59.3083C315.808 59.0783 315.521 58.7872 315.293 58.4347C315.065 58.0697 314.935 57.6597 314.903 57.2048C314.861 56.5983 314.984 56.0818 315.272 55.6556C315.571 55.2158 316.002 54.843 316.565 54.5373C317.141 54.2307 317.834 53.9668 318.643 53.7455C319.466 53.5234 320.373 53.3208 321.363 53.1378L321.35 52.9482C321.323 52.5565 321.249 52.2315 321.13 51.9731C321.009 51.7022 320.855 51.4907 320.667 51.3387C320.491 51.1858 320.281 51.0861 320.036 51.0396C319.791 50.9804 319.529 50.9605 319.251 50.9798C318.683 51.0193 318.218 51.1848 317.858 51.4765C317.509 51.7673 317.343 52.1979 317.357 52.7683L314.912 52.938C314.927 52.429 315.034 51.9581 315.233 51.5254C315.443 51.0791 315.733 50.6907 316.104 50.3602C316.486 50.0163 316.937 49.7374 317.455 49.5237C317.986 49.309 318.574 49.1794 319.219 49.1346C319.85 49.0908 320.443 49.1258 320.997 49.2398C321.55 49.3411 322.041 49.5483 322.469 49.8614C322.897 50.1745 323.245 50.6138 323.513 51.1793C323.779 51.7321 323.943 52.4382 324.002 53.2974C324.008 53.3733 324.011 53.5127 324.012 53.7158C324.025 53.9053 324.041 54.1264 324.058 54.3792C324.076 54.6319 324.088 54.8977 324.095 55.1766C324.113 55.4419 324.13 55.6883 324.146 55.9158C324.202 56.7245 324.273 57.3798 324.359 57.8818C324.444 58.3837 324.552 58.846 324.683 59.2686L322.276 59.4357C322.227 59.274 322.175 59.0808 322.122 58.856C322.081 58.6303 322.039 58.392 321.996 58.141ZM329.023 58.9674L328.459 50.836L325.142 51.0662L324.998 49.0002L334.248 48.3582L334.392 50.4243L331.075 50.6545L331.639 58.7859L329.023 58.9674ZM336.54 58.4458L335.832 48.2483L338.391 48.0707L338.874 55.027L342.883 47.7589L345.499 47.5774L346.207 57.7749L343.648 57.9525L343.182 51.2426L339.156 58.2642L336.54 58.4458Z" fill="white"/>
<path d="M88.9674 114.165L88.6596 109.73L89.2282 109.69C89.4683 109.674 89.6787 109.596 89.8595 109.456C90.0394 109.304 90.1861 109.04 90.2997 108.664C90.4124 108.275 90.4902 107.749 90.533 107.086C90.575 106.41 90.5844 105.539 90.5613 104.474L90.4835 101.433L98.3117 100.889L98.876 109.021L100.449 108.912L100.757 113.347L98.3309 113.515L98.1664 111.146L91.2291 111.627L91.3935 113.997L88.9674 114.165ZM96.2603 109.202L95.8393 103.137L92.9772 103.335L92.9924 105.201C92.9913 105.734 92.9859 106.204 92.976 106.611C92.9653 107.006 92.9334 107.37 92.8804 107.704C92.8265 108.025 92.7524 108.328 92.6579 108.614C92.5635 108.9 92.4375 109.188 92.2799 109.479L96.2603 109.202ZM105.948 102.188C105.19 102.24 104.616 102.566 104.226 103.164C103.847 103.749 103.695 104.579 103.77 105.653C103.844 106.727 104.109 107.527 104.565 108.055C105.033 108.581 105.646 108.817 106.405 108.765C107.163 108.712 107.731 108.393 108.11 107.809C108.501 107.223 108.659 106.393 108.584 105.319C108.51 104.245 108.238 103.444 107.77 102.918C107.314 102.379 106.706 102.135 105.948 102.188ZM106.547 110.812C105.877 110.858 105.231 110.795 104.61 110.623C103.988 110.437 103.427 110.14 102.929 109.73C102.431 109.32 102.02 108.796 101.696 108.158C101.372 107.508 101.179 106.734 101.116 105.837C101.054 104.94 101.139 104.147 101.37 103.458C101.602 102.769 101.936 102.187 102.373 101.712C102.81 101.237 103.324 100.872 103.915 100.615C104.506 100.345 105.136 100.187 105.806 100.141C106.463 100.095 107.103 100.165 107.725 100.35C108.359 100.522 108.925 100.813 109.424 101.223C109.922 101.633 110.333 102.163 110.658 102.813C110.982 103.464 111.176 104.237 111.238 105.135C111.3 106.032 111.216 106.825 110.984 107.514C110.752 108.19 110.417 108.766 109.98 109.24C109.543 109.715 109.023 110.088 108.42 110.358C107.828 110.615 107.204 110.766 106.547 110.812Z" fill="white"/>
<path d="M126.346 83.2479C127.748 83.1505 129.052 83.2331 130.257 83.4956C131.461 83.7336 132.516 84.1548 133.423 84.7595C134.329 85.3395 135.048 86.0808 135.581 86.9835C136.138 87.8844 136.457 88.9254 136.539 90.1066C136.637 91.5092 136.434 92.8708 135.933 94.1914C135.455 95.5103 134.705 96.811 133.681 98.0936C132.682 99.3745 131.435 100.648 129.941 101.914C128.444 103.155 126.751 104.41 124.861 105.678L137.669 104.79L138.015 109.773L117.456 111.199L117.11 106.216C118.816 104.788 120.487 103.398 122.124 102.048C123.76 100.674 125.201 99.3498 126.448 98.0764C127.717 96.7767 128.719 95.5327 129.453 94.3444C130.186 93.1561 130.514 92.0083 130.438 90.9009C130.357 89.7444 129.929 88.9211 129.153 88.4309C128.376 87.9162 127.483 87.6938 126.474 87.7638C125.932 87.8014 125.398 87.9374 124.87 88.1718C124.365 88.38 123.918 88.7077 123.529 89.1551C123.164 89.6007 122.885 90.2012 122.69 90.9565C122.493 91.6872 122.456 92.5799 122.579 93.6346L116.562 94.0521C116.404 92.4807 116.527 91.0504 116.932 89.7612C117.362 88.4704 118.014 87.3619 118.89 86.4357C119.765 85.5096 120.839 84.7798 122.113 84.2463C123.385 83.6883 124.796 83.3555 126.346 83.2479ZM148.875 81.6843C150.277 81.587 151.581 81.6696 152.786 81.9321C153.99 82.1701 155.045 82.5913 155.952 83.196C156.858 83.776 157.577 84.5173 158.109 85.42C158.667 86.3209 158.986 87.3619 159.068 88.5431C159.165 89.9457 158.963 91.3073 158.461 92.6279C157.984 93.9468 157.234 95.2475 156.21 96.5301C155.211 97.811 153.964 99.0844 152.47 100.35C150.973 101.591 149.28 102.846 147.39 104.115L160.198 103.226L160.544 108.209L139.985 109.636L139.639 104.653C141.345 103.224 143.016 101.835 144.653 100.485C146.289 99.1102 147.73 97.7863 148.977 96.5129C150.246 95.2132 151.248 93.9692 151.981 92.7809C152.715 91.5926 153.043 90.4448 152.966 89.3374C152.886 88.1809 152.458 87.3575 151.682 86.8674C150.905 86.3527 150.012 86.1303 149.003 86.2003C148.461 86.2379 147.927 86.3739 147.399 86.6083C146.894 86.8164 146.447 87.1442 146.058 87.5915C145.693 88.0372 145.413 88.6377 145.219 89.393C145.022 90.1237 144.985 91.0164 145.108 92.0711L139.091 92.4886C138.933 90.9172 139.056 89.4869 139.461 88.1977C139.891 86.9069 140.543 85.7984 141.418 84.8722C142.294 83.9461 143.368 83.2163 144.642 82.6828C145.913 82.1248 147.324 81.7919 148.875 81.6843ZM173.677 103.255C175.03 103.161 176.121 102.677 176.951 101.804C177.803 100.904 178.176 99.6789 178.068 98.1286C178.012 97.3166 177.827 96.6123 177.514 96.0159C177.225 95.4178 176.845 94.9373 176.375 94.5743C175.928 94.185 175.414 93.9116 174.835 93.754C174.28 93.5947 173.707 93.5356 173.116 93.5765C172.058 93.65 171.164 93.9469 170.433 94.4674C169.701 94.9633 169.131 95.6581 168.724 96.5518L163.112 96.3849L163.941 81.0838L181.843 79.8414L182.186 84.7875L169.341 85.6789L169.062 90.7424C169.671 90.2551 170.459 89.8542 171.427 89.5398C172.394 89.2254 173.345 89.0358 174.28 88.9709C175.486 88.8872 176.668 89.003 177.828 89.3181C178.987 89.6333 180.025 90.1547 180.94 90.8824C181.879 91.5837 182.648 92.5071 183.247 93.6523C183.868 94.7713 184.233 96.106 184.341 97.6562C184.446 99.1819 184.245 100.556 183.736 101.778C183.226 102.975 182.494 104.003 181.54 104.86C180.61 105.716 179.494 106.387 178.193 106.873C176.916 107.357 175.539 107.651 174.063 107.753C172.685 107.849 171.368 107.755 170.112 107.471C168.881 107.185 167.759 106.707 166.748 106.035C165.738 105.364 164.875 104.509 164.16 103.47C163.469 102.43 162.964 101.204 162.643 99.7925L168.512 99.3852C168.891 100.917 169.545 101.972 170.475 102.55C171.428 103.102 172.495 103.337 173.677 103.255ZM207.57 105.428C205.675 105.559 203.992 105.355 202.52 104.814C201.047 104.248 199.789 103.408 198.748 102.294C197.704 101.155 196.877 99.741 196.265 98.0526C195.653 96.3642 195.273 94.4496 195.125 92.3088C194.976 90.1679 195.089 88.2315 195.463 86.4994C195.837 84.7673 196.463 83.2774 197.341 82.0296C198.219 80.7819 199.349 79.7886 200.732 79.0497C202.115 78.3109 203.754 77.8757 205.648 77.7442C207.519 77.6144 209.19 77.8199 210.661 78.3606C212.133 78.9014 213.389 79.729 214.431 80.8436C215.473 81.9581 216.299 83.3473 216.909 85.0111C217.519 86.6748 217.898 88.5771 218.046 90.718C218.195 92.8588 218.083 94.8076 217.71 96.5643C217.338 98.321 216.713 99.8355 215.837 101.108C214.96 102.356 213.83 103.361 212.449 104.125C211.066 104.864 209.44 105.298 207.57 105.428ZM207.257 100.924C208.807 100.817 210.01 99.9792 210.866 98.4116C211.72 96.8193 212.034 94.3991 211.808 91.1509C211.585 87.9273 210.942 85.6106 209.88 84.2008C208.817 82.7909 207.511 82.1398 205.961 82.2474C204.386 82.3567 203.17 83.1829 202.313 84.7259C201.456 86.269 201.139 88.6523 201.363 91.8759C201.588 95.124 202.233 97.4777 203.299 98.9367C204.363 100.371 205.682 101.034 207.257 100.924ZM233.991 103.594C232.097 103.725 230.414 103.521 228.942 102.98C227.469 102.415 226.211 101.575 225.169 100.46C224.126 99.321 223.298 97.9073 222.687 96.2189C222.075 94.5305 221.695 92.6159 221.546 90.4751C221.398 88.3342 221.511 86.3978 221.885 84.6657C222.259 82.9336 222.885 81.4437 223.763 80.1959C224.641 78.9482 225.771 77.9549 227.154 77.216C228.537 76.4772 230.175 76.042 232.07 75.9105C233.94 75.7807 235.611 75.9862 237.083 76.527C238.555 77.0677 239.811 77.8953 240.853 79.0099C241.895 80.1245 242.72 81.5136 243.33 83.1774C243.94 84.8411 244.32 86.7434 244.468 88.8843C244.617 91.0251 244.505 92.9739 244.132 94.7306C243.76 96.4873 243.135 98.0018 242.259 99.2742C241.382 100.522 240.252 101.528 238.871 102.291C237.488 103.03 235.862 103.464 233.991 103.594ZM233.679 99.0908C235.229 98.9832 236.432 98.1456 237.288 96.5779C238.141 94.9856 238.456 92.5654 238.23 89.3172C238.007 86.0936 237.364 83.7769 236.301 82.3671C235.239 80.9572 233.933 80.3061 232.383 80.4137C230.808 80.523 229.592 81.3492 228.735 82.8922C227.877 84.4353 227.561 86.8186 227.784 90.0422C228.01 93.2903 228.655 95.644 229.721 97.103C230.785 98.5375 232.104 99.2001 233.679 99.0908ZM260.413 101.76C258.519 101.892 256.835 101.687 255.364 101.146C253.89 100.581 252.633 99.7411 251.591 98.6265C250.548 97.4874 249.72 96.0736 249.109 94.3852C248.497 92.6969 248.117 90.7822 247.968 88.6414C247.82 86.5005 247.932 84.5641 248.307 82.832C248.681 81.0999 249.307 79.61 250.185 78.3623C251.063 77.1145 252.193 76.1212 253.576 75.3823C254.958 74.6435 256.597 74.2083 258.492 74.0768C260.362 73.947 262.033 74.1525 263.505 74.6933C264.976 75.234 266.233 76.0617 267.275 77.1762C268.316 78.2908 269.142 79.6799 269.752 81.3437C270.362 83.0074 270.741 84.9097 270.89 87.0506C271.039 89.1915 270.927 91.1402 270.554 92.8969C270.181 94.6536 269.557 96.1681 268.681 97.4405C267.803 98.6882 266.674 99.6938 265.293 100.457C263.91 101.196 262.283 101.63 260.413 101.76ZM260.101 97.2571C261.651 97.1495 262.854 96.3119 263.709 94.7442C264.563 93.1519 264.877 90.7317 264.652 87.4835C264.428 84.2599 263.785 81.9432 262.723 80.5334C261.661 79.1235 260.355 78.4724 258.805 78.58C257.23 78.6893 256.014 79.5155 255.156 81.0585C254.299 82.6016 253.982 84.9849 254.206 88.2085C254.432 91.4567 255.077 93.8103 256.143 95.2693C257.207 96.7038 258.526 97.3664 260.101 97.2571ZM306.273 80.8119L306.475 83.7279L281.818 85.4391L281.616 82.5231L296.639 81.4805C297.186 81.1706 297.618 80.8068 297.935 80.3892C298.252 79.9715 298.393 79.5043 298.357 78.9876C298.308 78.274 297.934 77.6941 297.235 77.2481C296.535 76.7774 295.52 76.5882 294.192 76.6805C292.912 76.7693 291.845 77.0782 290.992 77.6072C290.163 78.1345 289.633 78.8637 289.401 79.7946L283.495 80.2045C283.621 78.8111 283.994 77.5983 284.615 76.5662C285.258 75.5078 286.051 74.6368 286.992 73.9533C287.957 73.2435 289.032 72.6991 290.217 72.3202C291.402 71.9412 292.61 71.709 293.841 71.6236C295.169 71.5314 296.46 71.6025 297.713 71.8371C298.965 72.0716 300.082 72.4886 301.063 73.0881C302.045 73.6876 302.841 74.473 303.452 75.4443C304.088 76.414 304.453 77.5755 304.547 78.9289C304.603 79.7409 304.502 80.4156 304.242 80.9528L306.273 80.8119ZM282.123 89.8316L281.921 86.9156L306.577 85.2044L306.78 88.1204L291.905 89.1527C291.284 89.4678 290.814 89.8342 290.497 90.2518C290.178 90.6448 290.038 91.112 290.075 91.6534C290.14 92.5885 290.608 93.273 291.479 93.7071C292.374 94.1395 293.425 94.3138 294.631 94.2302C296.378 94.1089 297.672 93.6977 298.514 92.9964C299.38 92.2934 299.952 91.4624 300.232 90.5034L306.175 90.091C306.04 91.3613 305.677 92.5363 305.084 93.616C304.516 94.6939 303.754 95.6493 302.798 96.4821C301.84 97.2903 300.712 97.9497 299.412 98.4603C298.11 98.9462 296.672 99.2438 295.097 99.3531C293.646 99.4539 292.267 99.3641 290.962 99.0838C289.657 98.8035 288.499 98.3398 287.49 97.6928C286.481 97.0458 285.658 96.2252 285.02 95.231C284.38 94.2121 284.014 93.026 283.92 91.6726C283.867 90.9097 283.908 90.2517 284.042 89.6984L282.123 89.8316Z" fill="white"/>
<path d="M165.648 132.215L165.29 127.052L159.903 127.426L159.695 124.434L165.082 124.06L164.717 118.797L167.834 118.581L168.2 123.843L173.562 123.471L173.769 126.464L168.407 126.836L168.766 131.999L165.648 132.215ZM188.568 128.344C189.034 128.312 189.47 128.215 189.876 128.053C190.282 127.891 190.627 127.675 190.909 127.405C191.207 127.133 191.428 126.826 191.571 126.482C191.73 126.12 191.794 125.723 191.764 125.29C191.727 124.758 191.58 124.317 191.322 123.968C191.062 123.602 190.717 123.316 190.285 123.113C189.869 122.891 189.383 122.749 188.827 122.687C188.27 122.609 187.668 122.592 187.019 122.637L186.296 122.688L186.109 119.994L186.708 119.953C188.005 119.863 189.011 119.567 189.729 119.066C190.461 118.548 190.798 117.864 190.739 117.016C190.711 116.617 190.604 116.274 190.417 115.986C190.247 115.697 190.021 115.462 189.742 115.281C189.462 115.1 189.144 114.972 188.788 114.896C188.43 114.804 188.069 114.771 187.703 114.796C186.656 114.869 185.837 115.227 185.246 115.869C184.672 116.494 184.376 117.283 184.358 118.236L181.091 118.463C181.165 116.637 181.765 115.175 182.892 114.078C184.034 112.963 185.644 112.333 187.723 112.189C188.471 112.137 189.217 112.177 189.961 112.309C190.722 112.44 191.399 112.685 191.992 113.045C192.602 113.404 193.102 113.879 193.494 114.47C193.903 115.059 194.136 115.778 194.195 116.626C194.256 117.507 194.079 118.313 193.661 119.044C193.243 119.758 192.698 120.33 192.026 120.761C192.506 120.929 192.939 121.157 193.327 121.448C193.714 121.722 194.045 122.05 194.323 122.431C194.598 122.796 194.81 123.199 194.958 123.64C195.121 124.063 195.218 124.499 195.249 124.948C195.312 125.863 195.186 126.682 194.868 127.406C194.55 128.113 194.082 128.721 193.466 129.232C192.866 129.725 192.149 130.117 191.318 130.409C190.486 130.7 189.596 130.879 188.648 130.945C187.617 131.016 186.675 130.923 185.822 130.665C184.986 130.405 184.258 130.03 183.639 129.538C183.036 129.029 182.542 128.42 182.159 127.711C181.776 127.003 181.53 126.234 181.423 125.407L184.665 125.182C184.762 125.626 184.909 126.05 185.104 126.454C185.316 126.857 185.582 127.206 185.903 127.501C186.241 127.795 186.624 128.019 187.053 128.173C187.498 128.326 188.003 128.383 188.568 128.344ZM204.891 129.817C203.677 129.902 202.597 129.743 201.65 129.341C200.72 128.937 199.918 128.341 199.245 127.553C198.589 126.763 198.063 125.805 197.668 124.68C197.289 123.554 197.051 122.3 196.956 120.92C196.861 119.557 196.924 118.291 197.143 117.123C197.38 115.954 197.769 114.941 198.311 114.085C198.868 113.211 199.58 112.519 200.447 112.007C201.329 111.478 202.377 111.172 203.591 111.087C204.788 111.004 205.852 111.164 206.782 111.568C207.727 111.953 208.528 112.541 209.185 113.331C209.856 114.103 210.382 115.052 210.761 116.178C211.156 117.304 211.401 118.548 211.496 119.911C211.591 121.291 211.521 122.566 211.285 123.735C211.065 124.903 210.677 125.924 210.119 126.798C209.578 127.671 208.867 128.372 207.985 128.901C207.119 129.429 206.088 129.734 204.891 129.817ZM204.711 127.224C205.941 127.138 206.831 126.483 207.381 125.259C207.931 124.035 208.13 122.333 207.979 120.155C207.828 117.977 207.397 116.337 206.685 115.233C205.973 114.113 205.001 113.596 203.771 113.681C202.54 113.767 201.641 114.414 201.074 115.623C200.522 116.814 200.321 118.498 200.472 120.676C200.623 122.854 201.056 124.512 201.77 125.648C202.5 126.784 203.48 127.309 204.711 127.224ZM221.428 128.67C220.214 128.754 219.134 128.595 218.187 128.193C217.257 127.79 216.456 127.194 215.783 126.405C215.126 125.615 214.601 124.658 214.205 123.532C213.826 122.406 213.589 121.153 213.493 119.773C213.398 118.409 213.461 117.144 213.681 115.976C213.917 114.806 214.306 113.794 214.848 112.938C215.406 112.063 216.118 111.371 216.984 110.86C217.867 110.331 218.914 110.024 220.128 109.94C221.325 109.857 222.389 110.017 223.319 110.42C224.265 110.805 225.066 111.393 225.722 112.183C226.394 112.955 226.919 113.904 227.298 115.031C227.693 116.156 227.938 117.4 228.033 118.764C228.129 120.144 228.059 121.418 227.822 122.587C227.603 123.755 227.214 124.776 226.657 125.65C226.116 126.523 225.404 127.224 224.522 127.753C223.657 128.281 222.625 128.587 221.428 128.67ZM221.248 126.076C222.478 125.991 223.369 125.336 223.918 124.111C224.468 122.887 224.668 121.186 224.517 119.008C224.365 116.83 223.934 115.189 223.223 114.085C222.51 112.965 221.539 112.448 220.308 112.534C219.078 112.619 218.179 113.266 217.611 114.475C217.059 115.666 216.858 117.351 217.01 119.529C217.161 121.707 217.593 123.364 218.307 124.501C219.037 125.636 220.018 126.161 221.248 126.076ZM243.224 131.217L242.933 127.027C242.002 127.092 241.112 127.028 240.263 126.836C239.414 126.645 238.655 126.296 237.985 125.791C237.332 125.285 236.793 124.621 236.368 123.799C235.959 122.958 235.712 121.923 235.627 120.693C235.546 119.529 235.651 118.511 235.941 117.638C236.247 116.748 236.688 116.008 237.265 115.416C237.858 114.807 238.561 114.341 239.373 114.017C240.186 113.693 241.058 113.499 241.989 113.435L241.666 108.771L244.908 108.546L245.232 113.21C246.163 113.145 247.053 113.217 247.903 113.425C248.753 113.633 249.505 113.999 250.159 114.522C250.829 115.026 251.369 115.699 251.778 116.539C252.203 117.362 252.455 118.355 252.536 119.519C252.621 120.749 252.511 121.81 252.205 122.7C251.915 123.572 251.473 124.304 250.879 124.897C250.302 125.488 249.607 125.937 248.793 126.244C247.979 126.551 247.106 126.737 246.175 126.802L246.466 130.992L243.224 131.217ZM242.175 116.103C241.16 116.174 240.368 116.554 239.798 117.245C239.243 117.919 239.02 119.029 239.127 120.575C239.18 121.34 239.299 121.975 239.485 122.48C239.687 122.984 239.94 123.384 240.245 123.68C240.548 123.96 240.912 124.152 241.337 124.256C241.762 124.36 242.232 124.394 242.748 124.358L242.175 116.103ZM245.99 124.133C246.505 124.098 246.966 123.999 247.373 123.837C247.779 123.675 248.113 123.435 248.375 123.116C248.636 122.78 248.823 122.35 248.937 121.824C249.067 121.297 249.106 120.651 249.053 119.886C249 119.121 248.872 118.479 248.669 117.958C248.481 117.42 248.226 116.995 247.904 116.683C247.597 116.353 247.23 116.128 246.804 116.007C246.395 115.885 245.932 115.842 245.417 115.878L245.99 124.133ZM261.819 123.21C262.766 123.144 263.47 122.695 263.93 121.861C264.407 121.026 264.6 119.952 264.508 118.638C264.417 117.324 264.078 116.287 263.491 115.526C262.919 114.747 262.159 114.39 261.211 114.456C260.263 114.522 259.526 114.966 258.998 115.788C258.487 116.608 258.278 117.692 258.371 119.039C258.467 120.419 258.825 121.48 259.444 122.222C260.079 122.947 260.871 123.276 261.819 123.21ZM255.823 130.342L254.589 112.56L258.031 112.321L258.15 114.042C258.472 113.385 258.962 112.858 259.619 112.462C260.275 112.049 261.028 111.813 261.875 111.754C262.707 111.696 263.483 111.809 264.205 112.093C264.943 112.376 265.582 112.808 266.124 113.389C266.682 113.968 267.132 114.68 267.475 115.525C267.834 116.369 268.05 117.315 268.123 118.362C268.198 119.443 268.116 120.426 267.877 121.311C267.654 122.195 267.298 122.964 266.809 123.616C266.335 124.25 265.752 124.758 265.06 125.14C264.385 125.521 263.64 125.74 262.825 125.797C262.127 125.845 261.41 125.745 260.674 125.495C259.938 125.245 259.328 124.761 258.844 124.043L259.265 130.104L255.823 130.342ZM273.569 111.243L274.501 124.661L271.059 124.9L270.128 111.482L273.569 111.243ZM273.246 106.579L273.467 109.771L270.025 110.01L269.804 106.818L273.246 106.579ZM282.611 110.315C283.326 110.265 284.023 110.317 284.702 110.47C285.397 110.623 286.033 110.879 286.61 111.24C287.186 111.601 287.678 112.076 288.087 112.666C288.495 113.256 288.787 113.963 288.961 114.786L285.669 115.014C285.492 114.392 285.14 113.89 284.612 113.509C284.1 113.11 283.494 112.935 282.796 112.983C281.848 113.049 281.109 113.468 280.578 114.24C280.063 115.011 279.855 116.103 279.953 117.516C280.051 118.929 280.401 119.999 281.003 120.726C281.62 121.435 282.428 121.755 283.425 121.686C284.057 121.642 284.611 121.436 285.086 121.069C285.579 120.701 285.913 120.101 286.089 119.27L289.381 119.042C289.245 119.97 288.991 120.765 288.62 121.425C288.247 122.069 287.791 122.602 287.252 123.024C286.73 123.444 286.142 123.761 285.488 123.973C284.835 124.186 284.151 124.317 283.436 124.366C282.405 124.438 281.478 124.327 280.656 124.033C279.834 123.739 279.119 123.304 278.511 122.728C277.901 122.136 277.418 121.426 277.06 120.599C276.717 119.754 276.51 118.824 276.44 117.81C276.37 116.796 276.454 115.846 276.693 114.961C276.949 114.074 277.347 113.303 277.886 112.647C278.424 111.975 279.088 111.436 279.879 111.031C280.669 110.625 281.58 110.386 282.611 110.315ZM291.688 123.468L290.757 110.05L302.753 109.218L303.684 122.635L300.242 122.874L299.5 112.175L294.387 112.53L295.13 123.229L291.688 123.468ZM309.64 108.74L310.571 122.157L307.129 122.396L306.198 108.978L309.64 108.74ZM309.316 104.076L309.538 107.268L306.096 107.507L305.874 104.315L309.316 104.076ZM314.022 121.918L313.091 108.5L316.532 108.261L316.892 113.449L322.479 113.061L322.119 107.874L325.561 107.635L326.492 121.052L323.05 121.291L322.668 115.78L317.081 116.167L317.464 121.679L314.022 121.918ZM332.437 107.158L333.368 120.575L329.926 120.814L328.995 107.396L332.437 107.158ZM332.113 102.494L332.334 105.686L328.893 105.925L328.671 102.733L332.113 102.494ZM336.819 120.336L335.887 106.918L342.497 106.459C343.211 106.41 343.88 106.413 344.502 106.471C345.141 106.526 345.702 106.671 346.186 106.905C346.67 107.139 347.061 107.471 347.358 107.901C347.655 108.332 347.828 108.896 347.876 109.594C347.968 110.908 347.466 111.87 346.373 112.48C347.036 112.652 347.593 112.972 348.043 113.442C348.509 113.894 348.771 114.544 348.83 115.392C348.881 116.124 348.792 116.765 348.563 117.315C348.332 117.849 347.988 118.299 347.529 118.665C347.068 119.015 346.511 119.287 345.856 119.483C345.218 119.678 344.508 119.802 343.727 119.856L336.819 120.336ZM340.073 117.403L343.191 117.187C344.787 117.076 345.549 116.505 345.478 115.475C345.441 114.943 345.207 114.575 344.775 114.371C344.358 114.149 343.751 114.066 342.953 114.121L339.86 114.336L340.073 117.403ZM339.705 112.091L342.623 111.889C343.271 111.844 343.771 111.7 344.122 111.459C344.471 111.201 344.629 110.822 344.594 110.323C344.558 109.808 344.352 109.48 343.974 109.339C343.596 109.181 343.074 109.126 342.409 109.172L339.516 109.373L339.705 112.091Z" fill="white"/>
</svg>
