<svg width="359" height="167" fill="none" xmlns="http://www.w3.org/2000/svg"><path d="M22.254 136.239 2.11 28.465c-1.115-5.967 3.3-11.544 9.365-11.826L336.533 1.488c5.7-.266 10.466 4.283 10.466 9.989v97.341a9.999 9.999 0 0 1-9.164 9.965L32.92 144.367a10 10 0 0 1-10.666-8.128Z" stroke="#fff" stroke-width="2"/><path fill-rule="evenodd" clip-rule="evenodd" d="M13.537 30.256 33.95 148.718a10 10 0 0 0 10.646 8.271l50.744-4.031 82.404 13.971-15.125-19.315 187.171-14.868a10 10 0 0 0 9.208-9.968V18.003c0-5.65-4.677-10.178-10.324-9.995L23.068 18.563c-6.068.197-10.562 5.71-9.531 11.693Z" fill="#D81966"/><path fill-rule="evenodd" clip-rule="evenodd" d="m19.12 29.81 20.283 113.458a10 10 0 0 0 10.636 8.209l48.68-3.867 74.067 13.309-12.793-18.176 188.798-14.997a10 10 0 0 0 9.208-9.969V17.994c0-5.647-4.672-10.173-10.315-9.995L28.649 18.055c-6.096.192-10.602 5.75-9.528 11.755Z" fill="#FF267E"/><path d="m34.004 33.543 8.159-.566a14.609 14.609 0 0 1 2.766.07c.917.09 1.747.324 2.49.699a4.764 4.764 0 0 1 1.882 1.555c.51.662.804 1.533.879 2.613.035.502-.01.99-.131 1.463-.105.453-.26.88-.464 1.282a6.135 6.135 0 0 1-.709 1.096c-.25.308-.503.558-.761.75.418.165.82.37 1.205.615.403.224.763.518 1.079.884.316.366.58.813.79 1.34.21.51.34 1.12.39 1.834.078 1.138-.077 2.118-.465 2.94-.371.8-.905 1.477-1.604 2.029-.699.533-1.532.95-2.5 1.25-.95.278-1.965.455-3.045.53l-8.505.59-1.456-20.974Zm5.368 17.447 4.571-.317c1.215-.084 2.104-.398 2.667-.941.563-.543.811-1.297.745-2.26-.069-.985-.429-1.706-1.08-2.164-.654-.478-1.627-.672-2.92-.583l-4.397.306.414 5.96Zm-.63-9.084 4.281-.297c.984-.068 1.73-.353 2.238-.853.527-.502.758-1.215.694-2.141-.058-.83-.382-1.456-.974-1.88-.59-.425-1.369-.603-2.333-.536l-4.282.297.376 5.41Zm19.486-4.608 1.08 15.564-3.992.277-1.08-15.564 3.992-.277Zm-.375-5.41.257 3.703-3.993.277-.257-3.703 3.993-.277Zm8.959 20.454L65.95 39.93l-5.063.35-.22-3.152 14.119-.98.219 3.153-5.063.351.861 12.412-3.992.277Zm20.497-8.574c-1.11.193-2.056.385-2.838.575-.781.19-1.415.408-1.902.655-.488.228-.837.504-1.047.829-.212.305-.303.67-.273 1.094.039.56.294 1.026.766 1.4.471.375 1.16.53 2.067.467 1.254-.087 2.136-.497 2.647-1.23.511-.733.723-1.736.634-3.009l-.054-.781Zm.674 5.099c-.502.868-1.154 1.523-1.957 1.967-.784.422-1.765.675-2.941.756a7.116 7.116 0 0 1-2.163-.17 6.034 6.034 0 0 1-1.856-.772 4.539 4.539 0 0 1-1.314-1.333 4.002 4.002 0 0 1-.595-1.877c-.064-.926.123-1.714.563-2.365.457-.671 1.115-1.24 1.974-1.707.879-.468 1.936-.87 3.172-1.208 1.256-.34 2.64-.649 4.15-.928l-.02-.29c-.04-.597-.153-1.093-.335-1.487-.184-.414-.42-.737-.707-.969a2.007 2.007 0 0 0-.962-.456 3.93 3.93 0 0 0-1.198-.092c-.868.06-1.577.313-2.128.758-.53.444-.786 1.101-.764 1.972l-3.732.26a5.519 5.519 0 0 1 .49-2.157 5.5 5.5 0 0 1 1.33-1.778 7.097 7.097 0 0 1 2.063-1.277c.81-.328 1.707-.526 2.69-.594.965-.067 1.87-.013 2.716.16.844.155 1.592.471 2.246.95.653.477 1.184 1.148 1.593 2.01.407.845.656 1.922.747 3.234.008.116.013.328.016.638l.07 1.013c.027.386.045.791.055 1.217l.078 1.128c.086 1.235.194 2.235.325 3a16.6 16.6 0 0 0 .496 2.118l-3.674.255a15.223 15.223 0 0 1-.236-.885 99.501 99.501 0 0 1-.192-1.091Zm21.369.9a8.206 8.206 0 0 1-2.691-.249 6.645 6.645 0 0 1-2.318-1.147c-.698-.553-1.289-1.258-1.775-2.116-.486-.857-.819-1.88-.998-3.07l-2.835.197.466 6.712-3.993.277-1.08-15.565 3.992-.277.396 5.7 2.98-.207c.12-1.055.376-1.984.766-2.786.409-.803.905-1.477 1.487-2.022a6.787 6.787 0 0 1 2.034-1.275 8.102 8.102 0 0 1 2.433-.546 9.137 9.137 0 0 1 3.043.283 6.848 6.848 0 0 1 2.592 1.331c.78.625 1.417 1.433 1.913 2.426.495.992.791 2.193.889 3.6.098 1.409-.03 2.639-.383 3.69-.354 1.052-.873 1.94-1.559 2.666a6.861 6.861 0 0 1-2.384 1.678 9.134 9.134 0 0 1-2.975.7Zm-.217-3.124c1.138-.08 2.027-.538 2.667-1.377.657-.86.924-2.177.801-3.951-.063-.907-.213-1.671-.45-2.294-.219-.644-.516-1.157-.892-1.537a2.732 2.732 0 0 0-1.275-.784 3.956 3.956 0 0 0-1.553-.183c-.984.068-1.757.52-2.319 1.353-.564.814-.783 2.128-.657 3.94.125 1.794.513 3.066 1.166 3.815.672.748 1.51 1.087 2.512 1.018Zm10.74-4.205-1.376-9.352-.374-5.381 3.993-.277.373 5.38.016 9.447-2.632.183Zm-.439 6.252-.301-4.34 4.282-.297.301 4.34-4.282.297ZM41.035 67.355l-4.227.294-.152-2.2 11.183-.775.152 2.198-4.245.295.8 11.543-2.71.189-.8-11.544Zm9.153 10.964L49.48 68.12l2.559-.177.483 6.956 4.01-7.268 2.615-.181.708 10.197-2.56.178-.465-6.71-4.027 7.021-2.615.182Zm16.566-1.15-.707-10.197 5.023-.349a9.509 9.509 0 0 1 1.524.008c.485.043.912.153 1.28.33.368.178.664.43.89.758.226.327.358.756.394 1.287.07.998-.311 1.73-1.143 2.193.505.13.928.374 1.27.73.354.345.553.839.598 1.483.039.556-.03 1.043-.203 1.462a2.621 2.621 0 0 1-.786 1.026c-.35.265-.773.472-1.271.621a7.272 7.272 0 0 1-1.618.284l-5.25.364Zm2.474-2.228 2.37-.165c1.212-.084 1.792-.518 1.737-1.301-.028-.405-.206-.684-.534-.84-.317-.168-.778-.231-1.385-.189l-2.35.163.162 2.332Zm-.28-4.038 2.217-.154c.493-.034.873-.143 1.14-.326.265-.197.385-.484.359-.863-.028-.392-.184-.641-.471-.749-.288-.12-.684-.162-1.19-.126l-2.199.152.144 2.066Zm9.209 5.475-.708-10.198 2.559-.177.483 6.956 4.009-7.268 2.616-.182.707 10.198-2.558.178-.466-6.71-4.027 7.021-2.615.182Zm12.29-.853-.707-10.198 7.373-.511.143 2.066-4.757.33.564 8.131-2.616.182Zm13.746-2.725c.72-.05 1.255-.392 1.605-1.026.362-.635.509-1.451.439-2.45-.069-.998-.327-1.786-.773-2.364-.435-.592-1.012-.863-1.733-.813-.72.05-1.281.387-1.682 1.011-.388.624-.547 1.448-.476 2.471.073 1.05.345 1.856.816 2.42.482.55 1.084.8 1.804.75Zm-4.556 5.42-.939-13.514 2.616-.182.091 1.308c.245-.5.617-.9 1.117-1.201a3.633 3.633 0 0 1 1.714-.538 4.019 4.019 0 0 1 1.771.258 3.86 3.86 0 0 1 1.458.984c.424.44.767.982 1.027 1.624.273.641.437 1.36.493 2.156.057.821-.006 1.569-.188 2.241a4.868 4.868 0 0 1-.811 1.752 4.157 4.157 0 0 1-1.329 1.159c-.514.29-1.08.455-1.699.498a4.159 4.159 0 0 1-1.635-.229c-.559-.19-1.022-.558-1.39-1.103l.319 4.605-2.615.182Zm17.491-9.232a29.46 29.46 0 0 0-1.859.377c-.512.124-.928.267-1.247.429-.319.149-.548.33-.686.543-.138.2-.198.439-.178.717.025.366.192.672.501.917s.761.347 1.355.306c.821-.057 1.399-.326 1.734-.806.335-.48.474-1.137.416-1.971l-.036-.512Zm.441 3.34c-.328.57-.756.999-1.281 1.29-.514.276-1.157.441-1.928.495a4.664 4.664 0 0 1-1.417-.111 3.952 3.952 0 0 1-1.216-.506 2.965 2.965 0 0 1-.86-.874 2.61 2.61 0 0 1-.39-1.23c-.042-.606.08-1.123.368-1.55.3-.439.731-.812 1.294-1.117.575-.307 1.268-.57 2.078-.792a34.573 34.573 0 0 1 2.72-.608l-.014-.19c-.027-.391-.1-.716-.22-.975a1.652 1.652 0 0 0-.463-.634 1.308 1.308 0 0 0-.63-.299 2.571 2.571 0 0 0-.785-.06c-.569.04-1.033.205-1.394.497-.348.29-.515.721-.501 1.292l-2.445.17c.016-.51.123-.98.321-1.413.21-.447.501-.835.872-1.165a4.65 4.65 0 0 1 1.351-.837 5.744 5.744 0 0 1 1.763-.389 6.559 6.559 0 0 1 1.779.105 3.531 3.531 0 0 1 1.471.622c.428.313.776.752 1.044 1.318.267.552.43 1.259.49 2.118.005.076.009.215.01.418l.046.663c.018.253.03.52.036.798l.052.74c.056.808.127 1.463.212 1.965.086.502.194.964.325 1.387l-2.407.167a9.597 9.597 0 0 1-.155-.58 73.044 73.044 0 0 1-.126-.715Zm4.734.986-.707-10.197 5.023-.35a9.505 9.505 0 0 1 1.524.01c.485.042.912.152 1.28.33.368.177.664.43.89.757.226.327.357.756.394 1.286.07.999-.311 1.73-1.143 2.194.505.13.928.374 1.27.73.354.344.553.838.598 1.483.039.556-.029 1.043-.203 1.462a2.621 2.621 0 0 1-.786 1.025c-.35.266-.773.473-1.271.622a7.27 7.27 0 0 1-1.618.284l-5.251.364Zm2.474-2.229 2.369-.164c1.213-.084 1.793-.518 1.738-1.302-.028-.404-.206-.683-.534-.838-.316-.169-.778-.232-1.384-.19l-2.351.163.162 2.331Zm-.28-4.037 2.217-.154c.493-.034.873-.143 1.14-.327.265-.196.385-.483.359-.862-.028-.392-.184-.641-.471-.749-.288-.12-.684-.162-1.19-.127l-2.199.153.144 2.066Zm13.484 5.178-.707-10.198 3.847-.267 2.84 7.155 1.804-7.477 3.848-.267.708 10.198-2.502.173-.561-8.074-2.188 8.265-1.838.128-3.309-7.884.56 8.074-2.502.174Zm18.621-9.71c-.758.052-1.332.378-1.723.976-.378.585-.53 1.414-.455 2.489.074 1.074.339 1.874.795 2.401.468.526 1.081.763 1.839.71.759-.052 1.327-.37 1.705-.956.391-.585.55-1.415.475-2.49-.074-1.074-.346-1.874-.814-2.4-.456-.54-1.064-.783-1.822-.73Zm.599 8.624a5.705 5.705 0 0 1-1.937-.19 4.747 4.747 0 0 1-1.681-.892 4.839 4.839 0 0 1-1.233-1.572c-.324-.65-.518-1.424-.58-2.321-.062-.898.022-1.69.254-2.38.231-.689.566-1.27 1.003-1.745.436-.475.951-.84 1.542-1.098a5.418 5.418 0 0 1 1.891-.474 5.365 5.365 0 0 1 1.919.21c.634.172 1.2.463 1.699.873.498.41.909.94 1.234 1.59.324.65.517 1.424.58 2.321.062.897-.023 1.69-.254 2.38a4.837 4.837 0 0 1-1.004 1.726 4.721 4.721 0 0 1-1.56 1.118 5.652 5.652 0 0 1-1.873.454Zm5.741-.646 3.379-5.644-3.822-4.572 2.919-.203 3.592 4.55h.019l-.332-4.777 2.616-.182.332 4.777.019-.002 2.966-5.005 3.014-.21-3.229 5.062 4.126 5.123-3.07.213-3.79-4.936-.019.001.359 5.175-2.616.181-.359-5.174h-.019l-3.072 5.413-3.013.21Zm16.073-1.116-.143-2.066.246-.017c.266-.018.487-.116.665-.294.178-.19.316-.479.416-.867.112-.401.185-.914.217-1.538.045-.638.061-1.42.047-2.346l-.033-3.217 7.696-.534.708 10.198-2.616.181-.564-8.131-2.635.183.017 2.436c.019 1.929-.248 3.389-.801 4.38-.554.977-1.463 1.51-2.727 1.598l-.493.034Zm12.442-.863-.707-10.198 2.558-.177.483 6.956 4.01-7.268 2.615-.182.708 10.198-2.559.177-.465-6.71-4.027 7.022-2.616.182Zm12.291-.853-.708-10.198 5.023-.348a9.517 9.517 0 0 1 1.525.008c.485.043.912.153 1.279.33.368.178.665.43.891.757.226.328.357.757.394 1.287.069.998-.312 1.73-1.143 2.194.504.13.928.373 1.27.73.354.344.553.838.598 1.483.038.556-.029 1.043-.203 1.461a2.621 2.621 0 0 1-.786 1.026c-.35.266-.774.473-1.271.622a7.279 7.279 0 0 1-1.619.283l-5.25.365Zm2.474-2.229 2.369-.164c1.213-.085 1.792-.518 1.738-1.302-.028-.404-.206-.684-.534-.839-.317-.168-.778-.231-1.385-.19l-2.35.164.162 2.331Zm-.28-4.037 2.217-.154c.493-.034.873-.143 1.139-.327.266-.196.386-.484.359-.863-.027-.392-.184-.64-.471-.748-.287-.12-.684-.162-1.189-.127l-2.199.153.144 2.066Zm11.116-4.905.708 10.198-2.616.181-.707-10.197 2.615-.182Zm-.246-3.544.169 2.426-2.616.182-.168-2.427 2.615-.181Zm7.118 2.839a5.458 5.458 0 0 1 1.589.118c.529.116 1.012.31 1.45.585.438.275.812.636 1.123 1.084.31.448.531.985.664 1.61l-2.502.175a2.076 2.076 0 0 0-.803-1.145c-.39-.303-.85-.436-1.38-.399-.721.05-1.283.368-1.686.955-.391.586-.55 1.416-.475 2.49.075 1.074.34 1.887.798 2.44.469.538 1.083.781 1.841.729.48-.034.901-.19 1.262-.469.375-.28.629-.735.763-1.367l2.501-.173c-.103.705-.296 1.309-.578 1.811-.284.49-.63.894-1.04 1.215-.397.32-.843.56-1.34.721a6.485 6.485 0 0 1-1.56.3c-.784.053-1.488-.031-2.113-.254a4.579 4.579 0 0 1-1.63-.992 5 5 0 0 1-1.103-1.618 6.898 6.898 0 0 1-.471-2.12 6.531 6.531 0 0 1 .193-2.165c.194-.674.496-1.26.906-1.758.409-.511.914-.92 1.515-1.23.6-.307 1.292-.489 2.076-.543Zm9.192 9.837-.564-8.131-3.317.23-.144-2.066 9.25-.642.143 2.066-3.317.23.565 8.132-2.616.181Zm7.517-.522-.708-10.197 2.616-.182.23 3.317 2.104-.146c1.44-.1 2.502.106 3.185.617.683.512 1.065 1.342 1.145 2.492.045.657.001 1.213-.132 1.666a2.482 2.482 0 0 1-.684 1.133c-.31.288-.713.513-1.21.675-.485.148-1.062.245-1.732.291l-4.814.334Zm2.473-2.228 1.877-.13c.606-.043 1.048-.181 1.323-.416.288-.248.413-.645.375-1.188-.033-.48-.208-.804-.525-.973-.317-.181-.779-.25-1.385-.208l-1.858.129.193 2.786Zm16.11-7.48c-.758.053-1.332.379-1.722.977-.379.585-.53 1.415-.456 2.489.075 1.074.34 1.874.795 2.401.468.526 1.082.763 1.84.71.758-.052 1.326-.37 1.705-.956.391-.586.549-1.415.474-2.49-.074-1.074-.345-1.874-.814-2.4-.456-.54-1.063-.783-1.822-.73Zm.599 8.625a5.71 5.71 0 0 1-1.937-.19 4.767 4.767 0 0 1-1.681-.892 4.823 4.823 0 0 1-1.232-1.572c-.325-.65-.518-1.424-.581-2.321-.062-.897.023-1.69.254-2.38.232-.688.566-1.27 1.003-1.745a4.52 4.52 0 0 1 1.543-1.097 5.415 5.415 0 0 1 1.89-.475 5.365 5.365 0 0 1 1.919.21 4.483 4.483 0 0 1 1.699.873c.498.41.909.94 1.234 1.59.324.65.518 1.424.58 2.321.062.897-.022 1.69-.254 2.38a4.822 4.822 0 0 1-1.004 1.726 4.721 4.721 0 0 1-1.56 1.118 5.652 5.652 0 0 1-1.873.454Zm9.248-.89-.565-8.131-3.317.23-.143-2.066 9.25-.642.143 2.066-3.317.23.564 8.132-2.615.181Zm12.303-2.625c.721-.05 1.256-.392 1.605-1.025.363-.635.509-1.451.44-2.45-.07-.998-.327-1.786-.774-2.365-.435-.592-1.012-.863-1.732-.813-.721.05-1.281.387-1.682 1.012-.389.624-.547 1.447-.476 2.471.072 1.049.344 1.855.815 2.42.483.55 1.084.8 1.804.75Zm-4.556 5.42-.938-13.514 2.616-.181.09 1.307c.245-.499.617-.9 1.117-1.2a3.637 3.637 0 0 1 1.715-.539 4.012 4.012 0 0 1 1.77.258 3.85 3.85 0 0 1 1.458.985c.425.44.767.981 1.027 1.624a6.64 6.64 0 0 1 .493 2.156c.057.821-.006 1.568-.187 2.241a4.87 4.87 0 0 1-.812 1.751c-.36.483-.803.869-1.329 1.16a3.967 3.967 0 0 1-1.699.498 4.157 4.157 0 0 1-1.634-.23c-.56-.19-1.023-.557-1.391-1.103l.319 4.606-2.615.182Zm11.579-4.136-.708-10.197 2.559-.178.483 6.956 4.009-7.268 2.616-.181.708 10.197-2.559.178-.466-6.71-4.026 7.022-2.616.181Zm12.291-.853-.708-10.197 3.848-.267 2.839 7.154 1.805-7.477 3.847-.267.708 10.198-2.502.173-.56-8.074-2.188 8.265-1.839.128-3.309-7.884.561 8.075-2.502.173Zm20.868-6.133a29.46 29.46 0 0 0-1.859.376c-.512.125-.927.268-1.246.43-.32.149-.549.33-.686.542-.139.2-.198.44-.179.717.025.367.193.673.502.918s.76.347 1.354.306c.821-.057 1.4-.326 1.734-.806.335-.48.474-1.138.416-1.972l-.036-.511Zm.442 3.34c-.329.569-.756.998-1.282 1.289-.514.277-1.157.442-1.927.495a4.665 4.665 0 0 1-1.418-.11 3.946 3.946 0 0 1-1.215-.507 2.969 2.969 0 0 1-.861-.873 2.61 2.61 0 0 1-.39-1.23c-.042-.607.081-1.123.369-1.55.299-.44.73-.812 1.293-1.118.576-.306 1.268-.57 2.078-.791a34.528 34.528 0 0 1 2.72-.608l-.013-.19c-.028-.391-.101-.717-.22-.975a1.674 1.674 0 0 0-.463-.634 1.317 1.317 0 0 0-.631-.3 2.571 2.571 0 0 0-.785-.06c-.568.04-1.033.206-1.394.498-.348.29-.515.72-.5 1.291l-2.445.17c.015-.509.122-.98.32-1.413a3.61 3.61 0 0 1 .872-1.165 4.65 4.65 0 0 1 1.351-.836 5.74 5.74 0 0 1 1.764-.39 6.554 6.554 0 0 1 1.778.106 3.537 3.537 0 0 1 1.472.621c.428.314.776.753 1.043 1.318.267.553.431 1.26.49 2.118.005.076.009.216.01.419l.046.663c.018.253.03.519.037.798l.051.739c.056.809.127 1.464.212 1.966.086.502.194.964.325 1.387l-2.407.167a9.626 9.626 0 0 1-.154-.58 51.552 51.552 0 0 1-.126-.715Zm7.027.827-.564-8.132-3.317.23-.144-2.066 9.25-.642.143 2.066-3.317.23.565 8.132-2.616.181Zm7.517-.522-.708-10.198 2.559-.177.483 6.956 4.009-7.268 2.616-.181.708 10.197-2.559.178-.466-6.71-4.026 7.021-2.616.182ZM88.967 114.165l-.307-4.435.568-.04c.24-.016.45-.094.632-.234.18-.152.326-.416.44-.792.112-.389.19-.915.233-1.578a32.42 32.42 0 0 0 .028-2.612l-.078-3.041 7.829-.544.564 8.132 1.573-.109.308 4.435-2.426.168-.165-2.369-6.937.481.165 2.37-2.427.168Zm7.293-4.963-.42-6.065-2.863.198.015 1.866a64.281 64.281 0 0 1-.016 1.41c-.01.395-.043.759-.096 1.093a6.133 6.133 0 0 1-.222.91 5.32 5.32 0 0 1-.378.865l3.98-.277Zm9.688-7.014c-.758.052-1.332.378-1.722.976-.379.585-.531 1.415-.456 2.489.074 1.074.339 1.874.795 2.402.468.526 1.081.762 1.84.71.758-.053 1.326-.372 1.705-.956.391-.586.549-1.416.474-2.49-.074-1.074-.346-1.875-.814-2.401-.456-.539-1.064-.783-1.822-.73Zm.599 8.624a5.735 5.735 0 0 1-1.937-.189 4.766 4.766 0 0 1-1.681-.893 4.841 4.841 0 0 1-1.233-1.572c-.324-.65-.517-1.424-.58-2.321-.062-.897.023-1.69.254-2.379.232-.689.566-1.271 1.003-1.746.437-.475.951-.84 1.542-1.097a5.4 5.4 0 0 1 1.891-.474 5.365 5.365 0 0 1 1.919.209 4.5 4.5 0 0 1 1.699.873c.498.41.909.94 1.234 1.59.324.651.518 1.424.58 2.322.062.897-.022 1.69-.254 2.379a4.816 4.816 0 0 1-1.004 1.726 4.712 4.712 0 0 1-1.56 1.118 5.66 5.66 0 0 1-1.873.454ZM122.349 110.86l-1.248-17.976-6.09.423-.31-4.466c4.458-.421 6.288-1.846 7.23-4.842l4.614-.32 1.857 26.761-6.053.42Zm9.625-14.168c-.591-8.527 2.994-14.042 10.524-14.565 7.493-.52 11.806 4.447 12.398 12.974.594 8.563-2.984 14.189-10.477 14.709-7.529.523-11.85-4.555-12.445-13.118Zm16.684-1.158c-.446-6.423-2.747-9.12-5.847-8.904-3.138.218-5.044 3.206-4.599 9.629.451 6.496 2.757 9.266 5.895 9.048 3.1-.215 5.002-3.277 4.551-9.773Zm17.668-1.227c-.592-8.526 2.994-14.042 10.524-14.564 7.493-.52 11.806 4.447 12.398 12.974.594 8.563-2.984 14.189-10.477 14.709-7.53.523-11.85-4.555-12.445-13.119Zm16.684-1.157c-.446-6.423-2.747-9.12-5.847-8.904-3.138.218-5.045 3.206-4.599 9.629.451 6.496 2.757 9.266 5.895 9.048 3.1-.215 5.002-3.277 4.551-9.773Zm9.738-.676c-.592-8.527 2.994-14.042 10.524-14.565 7.493-.52 11.806 4.447 12.398 12.974.594 8.563-2.984 14.19-10.477 14.71-7.53.522-11.851-4.556-12.445-13.12Zm16.684-1.158c-.446-6.423-2.747-9.119-5.848-8.904-3.137.218-5.044 3.206-4.598 9.629.451 6.496 2.757 9.266 5.895 9.048 3.1-.215 5.002-3.277 4.551-9.773Zm9.738-.676c-.592-8.526 2.994-14.042 10.524-14.564 7.493-.52 11.806 4.447 12.398 12.973.594 8.564-2.984 14.19-10.477 14.71-7.53.522-11.851-4.556-12.445-13.119Zm16.684-1.158c-.446-6.422-2.747-9.118-5.848-8.903-3.137.217-5.044 3.206-4.598 9.628.451 6.497 2.757 9.267 5.894 9.049 3.101-.216 5.003-3.278 4.552-9.774Zm39.59-6.53 2.03-.141.203 2.916-24.657 1.71-.202-2.915 15.022-1.043c1.109-.596 1.791-1.46 1.719-2.493-.1-1.44-1.508-2.491-4.166-2.307-2.547.177-4.326 1.265-4.791 3.114l-5.906.41c.502-5.598 5.4-8.237 10.346-8.58 5.352-.372 10.328 1.842 10.707 7.304.059.85-.045 1.487-.305 2.024Zm-22.119 8.878-.203-2.916 24.657-1.711.202 2.916-14.875 1.032c-1.216.641-1.903 1.43-1.829 2.501.131 1.882 2.156 2.743 4.555 2.577 3.47-.241 5.065-1.835 5.602-3.727l5.942-.412c-.537 5.081-4.765 8.824-11.077 9.262-5.795.402-10.804-2.292-11.178-7.68-.048-.702-.02-1.372.123-1.975l-1.919.133ZM165.648 132.215l-.358-5.163-5.387.374-.208-2.992 5.387-.374-.365-5.263 3.117-.216.365 5.262 5.362-.372.208 2.993-5.362.372.358 5.163-3.117.216Zm22.92-3.871a4.316 4.316 0 0 0 1.308-.291c.406-.162.75-.378 1.032-.648.299-.272.52-.579.663-.923.159-.362.223-.759.193-1.192-.037-.532-.184-.973-.443-1.322a2.594 2.594 0 0 0-1.036-.855 4.028 4.028 0 0 0-1.458-.426 8.703 8.703 0 0 0-1.808-.05l-.723.051-.187-2.694.598-.041c1.297-.09 2.304-.386 3.021-.887.733-.518 1.07-1.202 1.011-2.05a2.131 2.131 0 0 0-.322-1.03 2.101 2.101 0 0 0-.676-.705 2.826 2.826 0 0 0-.954-.385 3.389 3.389 0 0 0-1.084-.1c-1.048.073-1.867.431-2.457 1.073-.575.625-.871 1.414-.888 2.367l-3.267.227c.074-1.826.674-3.288 1.801-4.385 1.142-1.115 2.752-1.745 4.83-1.889a9.142 9.142 0 0 1 2.239.12 5.754 5.754 0 0 1 2.031.736c.609.359 1.11.834 1.502 1.425.409.589.642 1.308.701 2.156.061.881-.117 1.687-.534 2.418a5.013 5.013 0 0 1-1.635 1.717c.48.168.913.396 1.301.687.386.274.718.602.995.983.276.365.488.768.636 1.209.163.423.26.859.291 1.308.063.915-.064 1.734-.381 2.458a5.033 5.033 0 0 1-1.402 1.826c-.601.493-1.317.885-2.149 1.177-.831.291-1.721.47-2.669.536-1.031.071-1.973-.022-2.826-.28-.837-.26-1.564-.635-2.183-1.127a6.247 6.247 0 0 1-1.48-1.827 6.576 6.576 0 0 1-.737-2.304l3.243-.225c.097.444.244.868.439 1.272.211.403.478.752.799 1.047.338.294.721.518 1.149.672.445.153.951.21 1.516.171Zm16.322 1.473c-1.213.085-2.294-.074-3.24-.476-.93-.404-1.732-1-2.405-1.788-.656-.79-1.182-1.748-1.578-2.873-.378-1.126-.616-2.38-.712-3.76-.094-1.363-.032-2.629.188-3.797.236-1.169.625-2.182 1.167-3.038a6.324 6.324 0 0 1 2.137-2.078c.882-.529 1.93-.835 3.144-.92 1.197-.083 2.26.077 3.191.481a6.042 6.042 0 0 1 2.402 1.763c.672.772 1.197 1.721 1.576 2.847.396 1.126.641 2.37.735 3.733.096 1.38.026 2.655-.21 3.824-.22 1.168-.609 2.189-1.166 3.063a6.262 6.262 0 0 1-2.135 2.103c-.865.528-1.896.833-3.094.916Zm-.18-2.593c1.231-.086 2.121-.741 2.671-1.965.55-1.224.749-2.926.598-5.104-.151-2.178-.583-3.818-1.294-4.922-.713-1.12-1.684-1.637-2.914-1.552-1.231.086-2.13.733-2.697 1.942-.553 1.191-.753 2.875-.602 5.053.151 2.178.584 3.836 1.297 4.972.731 1.136 1.711 1.661 2.941 1.576Zm16.718 1.446c-1.214.084-2.294-.075-3.241-.477a6.54 6.54 0 0 1-2.404-1.788c-.657-.79-1.183-1.747-1.578-2.873-.379-1.126-.616-2.379-.712-3.759-.095-1.364-.032-2.629.187-3.797.237-1.17.626-2.182 1.168-3.038a6.294 6.294 0 0 1 2.136-2.078c.882-.529 1.93-.836 3.144-.92 1.197-.083 2.261.077 3.191.48a6.052 6.052 0 0 1 2.403 1.763c.671.772 1.197 1.721 1.576 2.848.395 1.125.64 2.369.735 3.733.096 1.38.025 2.654-.211 3.823-.22 1.168-.608 2.189-1.166 3.063a6.268 6.268 0 0 1-2.134 2.103c-.866.528-1.897.834-3.094.917Zm-.18-2.594c1.23-.085 2.12-.74 2.67-1.965.55-1.224.749-2.925.598-5.103-.151-2.178-.582-3.819-1.294-4.923-.712-1.12-1.684-1.637-2.914-1.551-1.23.085-2.129.732-2.697 1.941-.552 1.191-.753 2.876-.602 5.054.152 2.178.584 3.835 1.298 4.972.73 1.135 1.71 1.66 2.941 1.575Zm21.975 5.141-.29-4.19a9.153 9.153 0 0 1-2.67-.191 5.882 5.882 0 0 1-2.278-1.045c-.653-.506-1.192-1.17-1.617-1.992-.409-.841-.656-1.876-.742-3.106-.08-1.164.024-2.182.315-3.055.306-.89.747-1.63 1.324-2.222a6.008 6.008 0 0 1 2.108-1.399 8.618 8.618 0 0 1 2.616-.582l-.323-4.664 3.242-.225.323 4.664a8.647 8.647 0 0 1 2.672.215c.85.208 1.602.574 2.256 1.097.67.504 1.209 1.177 1.619 2.017.424.823.677 1.816.758 2.98.085 1.23-.025 2.291-.331 3.181-.29.872-.732 1.604-1.326 2.197a5.67 5.67 0 0 1-2.087 1.347 9.188 9.188 0 0 1-2.617.558l.29 4.19-3.242.225Zm-1.049-15.114c-1.014.071-1.806.451-2.376 1.142-.555.674-.779 1.784-.671 3.33.053.765.172 1.4.357 1.905.202.504.456.904.76 1.2.304.28.668.472 1.093.576.425.104.895.138 1.41.102l-.573-8.255Zm3.816 8.03a4.549 4.549 0 0 0 1.382-.296 2.437 2.437 0 0 0 1.003-.721c.261-.336.448-.766.562-1.292.13-.527.169-1.173.116-1.938-.053-.765-.181-1.407-.385-1.928-.187-.538-.442-.963-.765-1.275a2.354 2.354 0 0 0-1.099-.676 3.894 3.894 0 0 0-1.387-.129l.573 8.255Zm15.828-.923c.948-.066 1.652-.515 2.112-1.349.477-.835.669-1.909.578-3.223-.091-1.314-.43-2.351-1.018-3.112-.572-.779-1.332-1.136-2.279-1.07-.948.066-1.686.51-2.213 1.332-.511.82-.72 1.904-.627 3.251.096 1.38.454 2.441 1.073 3.183.635.725 1.427 1.054 2.374.988Zm-5.995 7.132-1.234-17.782 3.441-.239.12 1.721a3.74 3.74 0 0 1 1.469-1.58c.656-.413 1.408-.649 2.256-.708a5.274 5.274 0 0 1 2.329.339 5.082 5.082 0 0 1 1.92 1.296c.558.579 1.008 1.291 1.351 2.136.359.844.575 1.79.648 2.837.075 1.081-.007 2.064-.247 2.949-.222.884-.578 1.653-1.068 2.305a5.443 5.443 0 0 1-1.748 1.524c-.676.381-1.421.6-2.235.657a5.472 5.472 0 0 1-2.151-.302c-.736-.25-1.346-.734-1.83-1.452l.42 6.061-3.441.238Zm17.746-19.099.931 13.418-3.441.239-.932-13.418 3.442-.239Zm-.324-4.664.222 3.192-3.442.239-.221-3.192 3.441-.239Zm9.366 3.736a7.173 7.173 0 0 1 2.09.155 5.978 5.978 0 0 1 1.908.77 5.047 5.047 0 0 1 1.478 1.426c.408.59.699 1.297.873 2.12l-3.292.228a2.726 2.726 0 0 0-1.056-1.505c-.513-.399-1.118-.574-1.816-.526-.948.066-1.687.485-2.218 1.257-.515.771-.723 1.863-.625 3.276.098 1.413.448 2.483 1.05 3.21.617.709 1.424 1.029 2.422.96a2.997 2.997 0 0 0 1.661-.617c.493-.368.827-.968 1.003-1.799l3.292-.228c-.136.928-.39 1.723-.762 2.383a5.503 5.503 0 0 1-1.367 1.599c-.522.42-1.11.737-1.764.949a8.464 8.464 0 0 1-2.052.393c-1.031.072-1.958-.039-2.78-.333a6.028 6.028 0 0 1-2.146-1.305 6.59 6.59 0 0 1-1.451-2.129 9.054 9.054 0 0 1-.619-2.789 8.57 8.57 0 0 1 .253-2.849 6.386 6.386 0 0 1 1.193-2.314 6.052 6.052 0 0 1 1.993-1.616c.79-.406 1.701-.645 2.732-.716Zm9.077 13.153-.932-13.418 11.997-.832.931 13.417-3.442.239-.742-10.699-5.113.355.742 10.699-3.441.239Zm17.952-14.728.931 13.417-3.442.239-.931-13.418 3.442-.238Zm-.324-4.664.221 3.192-3.441.239-.222-3.192 3.442-.239Zm4.706 17.842-.932-13.418 3.442-.239.36 5.188 5.587-.388-.36-5.187 3.441-.239.932 13.417-3.442.239-.383-5.511-5.586.387.382 5.512-3.441.239Zm18.414-14.76.931 13.417-3.441.239-.931-13.418 3.441-.238Zm-.323-4.664.221 3.192-3.442.239-.221-3.192 3.442-.239Zm4.705 17.842-.931-13.418 6.609-.459a12.477 12.477 0 0 1 2.006.012c.639.055 1.2.2 1.684.434.484.234.875.566 1.172.996.297.431.47.995.518 1.693.091 1.314-.41 2.276-1.504 2.886a3.463 3.463 0 0 1 1.671.962c.466.452.728 1.102.787 1.95.051.732-.038 1.373-.268 1.923-.23.534-.575.984-1.034 1.35-.46.35-1.017.622-1.672.818a9.536 9.536 0 0 1-2.129.373l-6.909.48Zm3.255-2.933 3.118-.216c1.596-.111 2.358-.682 2.287-1.712-.037-.532-.272-.9-.704-1.104-.416-.222-1.023-.305-1.821-.25l-3.093.215.213 3.067Zm-.369-5.312 2.918-.202c.649-.045 1.149-.189 1.499-.43.35-.258.507-.637.473-1.136-.036-.515-.243-.843-.62-.984-.378-.158-.9-.213-1.565-.167l-2.893.201.188 2.718Z" fill="#fff"/></svg>