<svg width="426" height="411" fill="none" xmlns="http://www.w3.org/2000/svg"><g filter="url(#a)"><path fill-rule="evenodd" clip-rule="evenodd" d="M68.491 178.188a6 6 0 0 0-5.075 7.018l12.738 69.94a6.001 6.001 0 0 0 6.481 4.897l186.947-18.089a6 6 0 0 0 5.422-5.944l.367-79.703c.017-3.654-3.208-6.474-6.827-5.971L68.491 178.188Zm-3.108 6.66a4 4 0 0 1 3.384-4.679l200.053-27.852a4 4 0 0 1 4.551 3.98l-.367 79.704a4 4 0 0 1-3.615 3.963L82.442 258.052a4 4 0 0 1-4.32-3.265l-12.739-69.939Z" fill="#fff"/></g><path fill-rule="evenodd" clip-rule="evenodd" d="m267.916 160.153.828 87.022a5 5 0 0 1-4.527 5.025l-140.57 13.35-45.215 19.3 9.237-15.883-11.564 1.099a5 5 0 0 1-5.392-4.082l-13.656-74.979a5 5 0 0 1 4.183-5.842l200.94-29.908a5 5 0 0 1 5.736 4.898Z" fill="#77B0C6"/><path fill-rule="evenodd" clip-rule="evenodd" d="m263.138 161.302.273 83.608a5 5 0 0 1-4.546 4.996l-135.159 12.319-42.834 18.666 7.934-15.485-12.656 1.153a5 5 0 0 1-5.373-4.083l-13.039-71.585a5 5 0 0 1 4.194-5.843l195.48-28.677a5 5 0 0 1 5.726 4.931Z" fill="#FF267E"/><path fill-rule="evenodd" clip-rule="evenodd" d="m263.138 161.302.273 83.608a5 5 0 0 1-4.546 4.996l-135.159 12.319-42.834 18.666 7.934-15.485-12.656 1.153a5 5 0 0 1-5.373-4.083l-13.039-71.585a5 5 0 0 1 4.194-5.843l195.48-28.677a5 5 0 0 1 5.726 4.931Z" fill="url(#b)"/><path d="m73.14 209.128-1.848-14.382 10.078-1.294.295 2.301-7.24.93 1.551 12.081-2.837.364Zm16.442-3.987c.754-.097 1.295-.489 1.624-1.176.341-.689.445-1.556.311-2.601s-.454-1.857-.958-2.438c-.493-.595-1.117-.845-1.87-.748-.755.097-1.323.486-1.706 1.167-.37.679-.486 1.555-.349 2.626.141 1.097.477 1.928 1.006 2.492.541.549 1.189.775 1.942.678Zm-4.455 5.976-1.816-14.144 2.737-.351.176 1.369c.227-.54.593-.984 1.1-1.331.505-.361 1.094-.584 1.769-.671a4.226 4.226 0 0 1 1.876.162 4.074 4.074 0 0 1 1.593.945c.473.437.866.984 1.179 1.643.326.657.543 1.402.65 2.236.11.859.09 1.648-.06 2.366a5.116 5.116 0 0 1-.744 1.891c-.35.529-.791.962-1.326 1.299a4.174 4.174 0 0 1-1.754.629 4.386 4.386 0 0 1-1.732-.141c-.6-.165-1.109-.523-1.53-1.074l.62 4.821-2.738.351Zm17.814-10.777c-.757.178-1.401.348-1.931.511-.53.162-.958.338-1.283.527-.327.177-.556.381-.688.613a1.146 1.146 0 0 0-.144.764c.05.384.244.695.584.934.34.238.82.318 1.442.238.86-.11 1.451-.428 1.773-.954.322-.525.428-1.224.315-2.097l-.068-.536Zm.669 3.484c-.311.617-.733 1.095-1.268 1.433-.523.322-1.188.535-1.995.639a4.915 4.915 0 0 1-1.496-.03 4.15 4.15 0 0 1-1.309-.457 3.118 3.118 0 0 1-.958-.865 2.758 2.758 0 0 1-.485-1.268c-.082-.635.016-1.185.292-1.651.288-.48.718-.899 1.29-1.254.587-.358 1.298-.678 2.136-.96a36.407 36.407 0 0 1 2.82-.806l-.025-.198c-.053-.41-.15-.747-.292-1.012a1.752 1.752 0 0 0-.525-.638 1.374 1.374 0 0 0-.681-.275 2.718 2.718 0 0 0-.828-.015c-.596.076-1.074.279-1.435.608-.347.327-.496.789-.447 1.388l-2.558.329a3.809 3.809 0 0 1 .25-1.505c.194-.481.475-.907.844-1.278.38-.384.837-.705 1.369-.962a6.058 6.058 0 0 1 1.829-.517 6.918 6.918 0 0 1 1.875.001c.587.073 1.116.26 1.585.563.469.303.861.743 1.178 1.321.314.564.529 1.296.644 2.195.011.08.023.226.037.439l.089.695c.034.264.063.543.087.835l.099.774c.109.846.224 1.531.345 2.053.12.522.263 1.001.426 1.437l-2.519.324a10.11 10.11 0 0 1-.198-.6 58.775 58.775 0 0 1-.176-.743Zm14.748-.241a5.695 5.695 0 0 1-1.863-.063 4.607 4.607 0 0 1-1.642-.697 4.936 4.936 0 0 1-1.307-1.385c-.369-.571-.639-1.262-.811-2.073l-1.944.25.591 4.602-2.737.351-1.371-10.672 2.738-.352.502 3.908 2.043-.262c.04-.731.179-1.381.415-1.949.249-.57.564-1.054.943-1.452.392-.4.842-.72 1.349-.959.52-.242 1.071-.4 1.653-.475a6.326 6.326 0 0 1 2.106.072c.677.142 1.29.413 1.838.813.562.398 1.034.929 1.415 1.593.381.663.633 1.478.757 2.443.124.966.086 1.817-.115 2.556-.201.738-.523 1.371-.966 1.898-.43.526-.955.943-1.574 1.251a6.287 6.287 0 0 1-2.02.602Zm-.275-2.142c.781-.101 1.374-.452 1.78-1.056.418-.618.549-1.536.393-2.752-.08-.622-.214-1.142-.402-1.562-.177-.434-.402-.775-.676-1.022a1.878 1.878 0 0 0-.909-.488 2.709 2.709 0 0 0-1.077-.063c-.675.086-1.189.428-1.542 1.024-.356.584-.453 1.497-.294 2.74.158 1.23.477 2.09.957 2.579a2.029 2.029 0 0 0 1.77.6Zm6.489-3.092-.306-2.381 6.566-.843.306 2.381-6.566.843Zm9.334 2.975-1.37-10.672 5.256-.675a9.967 9.967 0 0 1 1.603-.085 3.86 3.86 0 0 1 1.365.268c.397.164.725.411.982.741.258.33.422.773.493 1.328.135 1.045-.221 1.837-1.066 2.375.538.106.998.336 1.379.69.394.339.633.846.72 1.521.075.582.033 1.098-.124 1.548a2.769 2.769 0 0 1-.762 1.127c-.352.3-.784.544-1.298.731a7.61 7.61 0 0 1-1.683.397l-5.495.706Zm2.463-2.494 2.479-.318c1.27-.163 1.852-.655 1.747-1.475-.055-.423-.259-.706-.614-.849-.342-.157-.831-.195-1.466-.114l-2.46.316.314 2.44Zm-.543-4.225 2.321-.298c.516-.066.908-.204 1.177-.414.267-.222.375-.532.324-.928-.053-.41-.233-.663-.541-.758-.309-.108-.729-.128-1.258-.06l-2.301.296.278 2.162Zm11.38-5.837 1.371 10.672-2.738.352-1.37-10.673 2.737-.351Zm-.476-3.71.326 2.539-2.738.352-.326-2.539 2.738-.352Zm6.992 13.721-1.093-8.51-3.471.446-.278-2.162 9.68-1.243.278 2.162-3.471.446 1.093 8.51-2.738.351Zm13.767-6.728c-.757.178-1.401.348-1.931.51-.53.162-.958.338-1.283.528-.327.176-.556.38-.688.612a1.152 1.152 0 0 0-.144.765c.05.383.244.694.584.933.34.239.82.318 1.442.238.86-.11 1.451-.428 1.773-.953.322-.526.428-1.225.315-2.098l-.068-.535Zm.669 3.483c-.311.618-.733 1.096-1.268 1.433-.523.323-1.188.536-1.995.639a4.885 4.885 0 0 1-1.496-.029 4.18 4.18 0 0 1-1.309-.457 3.154 3.154 0 0 1-.958-.865 2.769 2.769 0 0 1-.485-1.269c-.082-.634.016-1.185.292-1.65.288-.481.718-.899 1.291-1.255.586-.358 1.297-.677 2.135-.96a36.824 36.824 0 0 1 2.82-.806l-.025-.198c-.053-.41-.15-.747-.292-1.011a1.752 1.752 0 0 0-.525-.638 1.385 1.385 0 0 0-.681-.276 2.688 2.688 0 0 0-.828-.014c-.595.076-1.074.278-1.435.607-.347.327-.496.79-.446 1.388l-2.559.329a3.805 3.805 0 0 1 .25-1.504c.194-.482.475-.908.844-1.278a4.885 4.885 0 0 1 1.369-.962 6.027 6.027 0 0 1 1.829-.517 6.878 6.878 0 0 1 1.875.001c.587.072 1.116.26 1.585.562.469.303.861.743 1.178 1.321.314.565.529 1.297.644 2.196.011.079.023.226.037.439l.089.694c.034.265.063.543.087.836l.099.774c.109.846.224 1.53.345 2.052.121.523.263 1.002.426 1.438l-2.519.323a10.055 10.055 0 0 1-.198-.599 63.509 63.509 0 0 1-.176-.744Zm14.748-.241a5.64 5.64 0 0 1-1.863-.063 4.588 4.588 0 0 1-1.642-.696 4.95 4.95 0 0 1-1.307-1.385c-.369-.571-.639-1.262-.811-2.074l-1.944.25.591 4.602-2.737.352-1.371-10.673 2.738-.351.502 3.908 2.043-.263c.04-.731.179-1.38.415-1.948.249-.57.564-1.054.943-1.452.392-.4.842-.72 1.349-.96.52-.242 1.071-.4 1.653-.474a6.273 6.273 0 0 1 2.106.072 4.71 4.71 0 0 1 1.838.812c.562.399 1.034.93 1.415 1.593.381.664.633 1.478.757 2.444.124.965.086 1.817-.115 2.555-.201.738-.523 1.371-.966 1.899-.43.525-.955.942-1.574 1.25a6.287 6.287 0 0 1-2.02.602Zm-.275-2.142c.781-.1 1.374-.452 1.78-1.055.418-.619.549-1.536.393-2.753-.08-.621-.214-1.142-.402-1.561-.177-.435-.402-.775-.676-1.023a1.895 1.895 0 0 0-.909-.488 2.746 2.746 0 0 0-1.077-.063c-.675.087-1.189.428-1.542 1.025-.356.583-.453 1.496-.294 2.739.158 1.23.477 2.09.957 2.58.492.488 1.083.687 1.77.599Zm6.793-1.981 3.074-.395.411 3.194-1.222 3.363-1.567.201 1.035-3.561-1.349.173-.382-2.975ZM115.782 227.167l2.969-5.927a8.46 8.46 0 0 1-1.103-.539 5.328 5.328 0 0 1-.898-.716 3.587 3.587 0 0 1-.62-.904 4.076 4.076 0 0 1-.333-1.217c-.17-1.323.145-2.405.944-3.247.814-.86 2.097-1.403 3.849-1.628l5.976-.768 1.713 13.341-3.422.439-.576-4.488-2.257.29-2.324 4.861-3.918.503Zm8.155-8.332-.449-3.496-2.381.305c-.743.096-1.276.332-1.597.71-.307.358-.427.802-.359 1.331.075.579.321.992.74 1.241.432.23 1.012.299 1.74.205l2.306-.296Zm12.048.52-.382-2.976 8.208-1.054.382 2.975-8.208 1.055Zm17.46 2.975-2.309-17.978 3.546-.455 1.112 8.654.025-.003 5.36-9.485 3.967-.51-5.568 9.436 8.15 8.507-4.116.528-7.739-8.055-.025.003 1.143 8.902-3.546.456Zm20.27-13.744c-.992.127-1.721.599-2.188 1.415-.452.797-.588 1.899-.407 3.304.18 1.405.59 2.436 1.229 3.094.655.655 1.479.919 2.471.791.992-.127 1.714-.59 2.166-1.387.468-.8.612-1.902.432-3.307s-.598-2.435-1.254-3.09c-.641-.674-1.457-.947-2.449-.82Zm1.449 11.282a7.501 7.501 0 0 1-2.559-.1 6.243 6.243 0 0 1-2.276-1.043c-.686-.5-1.266-1.157-1.74-1.97-.477-.829-.79-1.831-.941-3.004-.151-1.174-.1-2.222.151-3.145s.645-1.713 1.183-2.37a5.942 5.942 0 0 1 1.942-1.56 7.107 7.107 0 0 1 2.447-.768 7.042 7.042 0 0 1 2.537.128 5.91 5.91 0 0 1 2.298 1.015c.686.5 1.267 1.165 1.743 1.995.476.829.79 1.831.94 3.004.151 1.174.101 2.222-.15 3.145-.253.906-.649 1.688-1.186 2.345a6.196 6.196 0 0 1-1.964 1.588 7.42 7.42 0 0 1-2.425.74Zm16.453-8.641c-.946.222-1.751.435-2.414.638-.662.202-1.197.422-1.604.659-.408.221-.695.476-.859.766-.167.274-.226.592-.18.956.062.479.305.868.73 1.166.425.299 1.025.398 1.802.298 1.075-.138 1.814-.535 2.217-1.192.403-.657.534-1.53.394-2.621l-.086-.67Zm.836 4.354c-.388.772-.916 1.37-1.584 1.791-.654.404-1.486.67-2.494.8a6.145 6.145 0 0 1-1.87-.038 5.169 5.169 0 0 1-1.636-.571 3.913 3.913 0 0 1-1.197-1.081 3.44 3.44 0 0 1-.607-1.586c-.102-.793.019-1.481.365-2.063.36-.601.897-1.123 1.613-1.568.733-.447 1.622-.847 2.669-1.2a45.334 45.334 0 0 1 3.526-1.007l-.032-.248c-.066-.513-.187-.934-.364-1.264-.179-.347-.398-.613-.657-.798a1.73 1.73 0 0 0-.851-.344 3.405 3.405 0 0 0-1.036-.019c-.744.096-1.341.349-1.793.76-.434.409-.621.987-.558 1.735l-3.199.411a4.762 4.762 0 0 1 .313-1.88 4.751 4.751 0 0 1 1.055-1.598 6.105 6.105 0 0 1 1.711-1.202 7.536 7.536 0 0 1 2.286-.647 8.636 8.636 0 0 1 2.345.002c.734.09 1.394.325 1.98.703.587.378 1.077.929 1.473 1.651.393.706.661 1.62.806 2.745.012.099.028.282.045.548l.111.868c.043.331.079.679.109 1.045l.125.967c.135 1.058.279 1.913.43 2.566.151.653.329 1.252.533 1.797l-3.149.404c-.077-.208-.16-.458-.247-.749a86.804 86.804 0 0 1-.221-.93Zm5.079 1.087-.347-2.703.322-.041c.348-.045.631-.191.852-.437.218-.264.378-.654.479-1.171.117-.536.172-1.215.167-2.038.01-.841-.03-1.87-.119-3.085l-.29-4.222 10.067-1.293 1.714 13.34-3.422.44-1.366-10.638-3.447.443.209 3.199c.174 2.532-.064 4.47-.715 5.814-.653 1.327-1.806 2.097-3.459 2.309l-.645.083Zm23.652-9.238c-.946.222-1.751.435-2.414.638-.663.202-1.197.422-1.604.659-.408.221-.695.476-.859.766-.167.273-.227.592-.18.956.062.479.305.868.73 1.166.424.299 1.025.398 1.802.298 1.075-.138 1.813-.535 2.216-1.192.403-.657.535-1.53.395-2.622l-.086-.669Zm.836 4.354c-.388.772-.916 1.369-1.585 1.791-.654.404-1.485.67-2.493.799a6.114 6.114 0 0 1-1.87-.037 5.194 5.194 0 0 1-1.636-.571 3.916 3.916 0 0 1-1.198-1.081 3.461 3.461 0 0 1-.607-1.586c-.102-.793.02-1.481.366-2.063.359-.601.897-1.124 1.613-1.568.732-.447 1.622-.847 2.669-1.2a45.177 45.177 0 0 1 3.525-1.007l-.032-.248c-.065-.513-.187-.934-.364-1.264-.179-.347-.397-.613-.657-.798a1.738 1.738 0 0 0-.85-.345 3.438 3.438 0 0 0-1.036-.018c-.744.096-1.342.349-1.793.76-.435.409-.621.987-.558 1.735l-3.199.411a4.741 4.741 0 0 1 .313-1.88 4.736 4.736 0 0 1 1.055-1.598 6.105 6.105 0 0 1 1.711-1.202 7.536 7.536 0 0 1 2.286-.647 8.63 8.63 0 0 1 2.344.001 4.663 4.663 0 0 1 1.981.704c.586.378 1.077.929 1.472 1.651.393.706.662 1.62.806 2.744.013.1.028.283.046.549l.111.868c.043.331.079.679.109 1.045l.124.967c.136 1.058.28 1.913.431 2.566.151.653.328 1.251.533 1.797l-3.149.404c-.077-.209-.16-.458-.248-.75-.071-.293-.144-.603-.22-.929ZM204.036 234.358a6.816 6.816 0 0 1-.497 2.61 6.783 6.783 0 0 1-1.381 2.194 7.922 7.922 0 0 1-2.215 1.595c-.855.412-1.819.687-2.894.825-1.339.172-2.556.11-3.653-.186a7.512 7.512 0 0 1-2.895-1.544c-.817-.735-1.49-1.657-2.019-2.765-.512-1.11-.861-2.385-1.045-3.823-.183-1.422-.149-2.728.101-3.92.25-1.191.688-2.231 1.314-3.118a7.645 7.645 0 0 1 2.442-2.178c1.003-.566 2.157-.933 3.463-1.101 1.058-.135 2.044-.111 2.959.074a6.944 6.944 0 0 1 2.465.944 6.36 6.36 0 0 1 1.86 1.727c.525.689.923 1.495 1.193 2.418l-3.373.433c-.246-.607-.544-1.098-.895-1.473a3.756 3.756 0 0 0-1.125-.914 3.245 3.245 0 0 0-1.31-.386 5.663 5.663 0 0 0-1.436.007 4.475 4.475 0 0 0-1.855.667 4.104 4.104 0 0 0-1.356 1.409c-.36.601-.613 1.314-.759 2.14-.146.825-.152 1.758-.019 2.8.138 1.074.384 2.009.739 2.804.352.778.77 1.421 1.256 1.93.5.491 1.049.84 1.647 1.049a4.173 4.173 0 0 0 1.889.186 6.488 6.488 0 0 0 1.49-.368 4.215 4.215 0 0 0 1.213-.761c.361-.332.654-.731.88-1.196.226-.466.374-1.015.444-1.645l3.372-.434Zm1.072-12.412 13.092-1.681.369 2.876-9.546 1.226.573 4.463 9.026-1.159.369 2.876-9.026 1.16.628 4.885 9.546-1.227.37 2.877-13.093 1.681-2.308-17.977Zm26.269 14.9-6.174-12.944 1.735 13.514-3.298.424-2.308-17.978 5.157-.662 6.164 13.449 2.441-14.554 5.207-.669 2.309 17.978-3.298.423-1.736-13.514-2.678 14.081-3.521.452Z" fill="#005"/><defs><linearGradient id="b" x1="152.34" y1="168.756" x2="170" y2="265.717" gradientUnits="userSpaceOnUse"><stop stop-color="#DEF8FF"/><stop offset="1" stop-color="#A6D8EC"/></linearGradient><filter id="a" x="-86.683" y=".278" width="512.054" height="409.793" filterUnits="userSpaceOnUse" color-interpolation-filters="sRGB"><feFlood flood-opacity="0" result="BackgroundImageFix"/><feColorMatrix in="SourceAlpha" values="0 0 0 0 0 0 0 0 0 0 0 0 0 0 0 0 0 0 127 0" result="hardAlpha"/><feOffset/><feGaussianBlur stdDeviation="2"/><feComposite in2="hardAlpha" operator="out"/><feColorMatrix values="0 0 0 0 1 0 0 0 0 1 0 0 0 0 1 0 0 0 1 0"/><feBlend in2="BackgroundImageFix" result="effect1_dropShadow_33_18497"/><feColorMatrix in="SourceAlpha" values="0 0 0 0 0 0 0 0 0 0 0 0 0 0 0 0 0 0 127 0" result="hardAlpha"/><feOffset/><feGaussianBlur stdDeviation="5.5"/><feComposite in2="hardAlpha" operator="out"/><feColorMatrix values="0 0 0 0 1 0 0 0 0 1 0 0 0 0 1 0 0 0 1 0"/><feBlend in2="effect1_dropShadow_33_18497" result="effect2_dropShadow_33_18497"/><feColorMatrix in="SourceAlpha" values="0 0 0 0 0 0 0 0 0 0 0 0 0 0 0 0 0 0 127 0" result="hardAlpha"/><feOffset/><feGaussianBlur stdDeviation="9.5"/><feComposite in2="hardAlpha" operator="out"/><feColorMatrix values="0 0 0 0 1 0 0 0 0 1 0 0 0 0 1 0 0 0 1 0"/><feBlend in2="effect2_dropShadow_33_18497" result="effect3_dropShadow_33_18497"/><feColorMatrix in="SourceAlpha" values="0 0 0 0 0 0 0 0 0 0 0 0 0 0 0 0 0 0 127 0" result="hardAlpha"/><feOffset/><feGaussianBlur stdDeviation="20"/><feComposite in2="hardAlpha" operator="out"/><feColorMatrix values="0 0 0 0 1 0 0 0 0 1 0 0 0 0 1 0 0 0 1 0"/><feBlend in2="effect3_dropShadow_33_18497" result="effect4_dropShadow_33_18497"/><feColorMatrix in="SourceAlpha" values="0 0 0 0 0 0 0 0 0 0 0 0 0 0 0 0 0 0 127 0" result="hardAlpha"/><feOffset/><feGaussianBlur stdDeviation="40"/><feComposite in2="hardAlpha" operator="out"/><feColorMatrix values="0 0 0 0 1 0 0 0 0 1 0 0 0 0 1 0 0 0 1 0"/><feBlend in2="effect4_dropShadow_33_18497" result="effect5_dropShadow_33_18497"/><feColorMatrix in="SourceAlpha" values="0 0 0 0 0 0 0 0 0 0 0 0 0 0 0 0 0 0 127 0" result="hardAlpha"/><feOffset/><feGaussianBlur stdDeviation="45"/><feComposite in2="hardAlpha" operator="out"/><feColorMatrix values="0 0 0 0 1 0 0 0 0 1 0 0 0 0 1 0 0 0 1 0"/><feBlend in2="effect5_dropShadow_33_18497" result="effect6_dropShadow_33_18497"/><feColorMatrix in="SourceAlpha" values="0 0 0 0 0 0 0 0 0 0 0 0 0 0 0 0 0 0 127 0" result="hardAlpha"/><feOffset/><feGaussianBlur stdDeviation="50"/><feComposite in2="hardAlpha" operator="out"/><feColorMatrix values="0 0 0 0 1 0 0 0 0 1 0 0 0 0 1 0 0 0 1 0"/><feBlend in2="effect6_dropShadow_33_18497" result="effect7_dropShadow_33_18497"/><feColorMatrix in="SourceAlpha" values="0 0 0 0 0 0 0 0 0 0 0 0 0 0 0 0 0 0 127 0" result="hardAlpha"/><feOffset/><feGaussianBlur stdDeviation="75"/><feComposite in2="hardAlpha" operator="out"/><feColorMatrix values="0 0 0 0 1 0 0 0 0 1 0 0 0 0 1 0 0 0 1 0"/><feBlend in2="effect7_dropShadow_33_18497" result="effect8_dropShadow_33_18497"/><feBlend in="SourceGraphic" in2="effect8_dropShadow_33_18497" result="shape"/></filter></defs></svg>