<svg width="426" height="411" viewBox="0 0 426 411" fill="none" xmlns="http://www.w3.org/2000/svg">
<g filter="url(#filter0_dddddddd_33_18497)">
<path fill-rule="evenodd" clip-rule="evenodd" d="M68.4911 178.188C65.1115 178.659 62.8041 181.849 63.4156 185.206L76.1543 255.146C76.7133 258.214 79.5303 260.343 82.6351 260.043L269.582 241.954C272.647 241.658 274.99 239.089 275.004 236.01L275.371 156.307C275.388 152.653 272.163 149.833 268.544 150.336L68.4911 178.188ZM65.3832 184.848C64.9756 182.61 66.5138 180.483 68.7669 180.169L268.82 152.317C271.233 151.981 273.383 153.862 273.371 156.297L273.004 236.001C272.995 238.053 271.433 239.766 269.389 239.964L82.4424 258.052C80.3726 258.252 78.4946 256.833 78.122 254.787L65.3832 184.848Z" fill="white"/>
</g>
<path fill-rule="evenodd" clip-rule="evenodd" d="M267.916 160.153L268.744 247.175C268.769 249.771 266.802 251.954 264.217 252.2L123.647 265.55L78.4324 284.85L87.6691 268.967L76.1052 270.066C73.5209 270.311 71.1786 268.538 70.7134 265.984L57.0567 191.005C56.5505 188.226 58.4456 185.579 61.2397 185.163L262.18 155.255C265.183 154.808 267.887 157.117 267.916 160.153Z" fill="#77B0C6"/>
<path fill-rule="evenodd" clip-rule="evenodd" d="M263.138 161.302L263.411 244.91C263.42 247.502 261.446 249.671 258.865 249.906L123.706 262.225L80.8725 280.891L88.8064 265.406L76.1496 266.559C73.5716 266.794 71.2406 265.023 70.7767 262.476L57.7383 190.891C57.2314 188.108 59.1326 185.459 61.9316 185.048L257.412 156.371C260.424 155.93 263.128 158.258 263.138 161.302Z" fill="#FF267E"/>
<path fill-rule="evenodd" clip-rule="evenodd" d="M263.138 161.302L263.411 244.91C263.42 247.502 261.446 249.671 258.865 249.906L123.706 262.225L80.8725 280.891L88.8064 265.406L76.1496 266.559C73.5716 266.794 71.2406 265.023 70.7767 262.476L57.7383 190.891C57.2314 188.108 59.1326 185.459 61.9316 185.048L257.412 156.371C260.424 155.93 263.128 158.258 263.138 161.302Z" fill="url(#paint0_linear_33_18497)"/>
<path d="M73.1394 209.128L71.2924 194.746L81.3697 193.452L81.6652 195.753L74.4247 196.683L75.9761 208.764L73.1394 209.128ZM89.5824 205.141C90.3362 205.044 90.8773 204.652 91.2058 203.965C91.5474 203.276 91.6512 202.409 91.517 201.364C91.3828 200.319 91.0634 199.507 90.5587 198.926C90.0655 198.331 89.442 198.081 88.6882 198.178C87.9344 198.275 87.366 198.664 86.9829 199.345C86.6131 200.024 86.497 200.9 86.6345 201.971C86.7755 203.068 87.1107 203.899 87.6402 204.463C88.1812 205.012 88.8286 205.238 89.5824 205.141ZM85.1273 211.117L83.3109 196.973L86.0484 196.622L86.2242 197.991C86.4506 197.451 86.8171 197.007 87.3236 196.66C87.8285 196.299 88.4181 196.076 89.0926 195.989C89.7538 195.904 90.3792 195.958 90.9686 196.151C91.5712 196.343 92.1023 196.658 92.5619 197.096C93.0347 197.533 93.4277 198.08 93.7408 198.739C94.0672 199.396 94.2838 200.141 94.3908 200.975C94.5012 201.834 94.4816 202.623 94.3318 203.341C94.1953 204.058 93.9469 204.688 93.5866 205.232C93.2377 205.761 92.796 206.194 92.2613 206.531C91.7398 206.867 91.1551 207.077 90.5071 207.16C89.9516 207.231 89.3743 207.184 88.775 207.019C88.1758 206.854 87.6661 206.496 87.2458 205.945L87.8648 210.766L85.1273 211.117ZM102.941 200.34C102.184 200.518 101.54 200.688 101.01 200.851C100.48 201.013 100.052 201.189 99.7267 201.378C99.3998 201.555 99.1706 201.759 99.0391 201.991C98.9059 202.21 98.8579 202.464 98.8953 202.755C98.9446 203.139 99.1391 203.45 99.4789 203.689C99.8188 203.927 100.299 204.007 100.921 203.927C101.781 203.817 102.372 203.499 102.694 202.973C103.016 202.448 103.122 201.749 103.009 200.876L102.941 200.34ZM103.61 203.824C103.299 204.441 102.877 204.919 102.342 205.257C101.819 205.579 101.154 205.792 100.347 205.896C99.8314 205.962 99.3328 205.952 98.8512 205.866C98.3697 205.78 97.9334 205.628 97.5423 205.409C97.1645 205.189 96.8452 204.901 96.5843 204.544C96.3218 204.175 96.16 203.752 96.0988 203.276C96.0173 202.641 96.1147 202.091 96.3909 201.625C96.6787 201.145 97.109 200.726 97.6816 200.371C98.2675 200.013 98.9792 199.693 99.8168 199.411C100.668 199.127 101.608 198.858 102.637 198.605L102.612 198.407C102.559 197.997 102.462 197.66 102.32 197.395C102.177 197.118 102.002 196.905 101.795 196.757C101.601 196.607 101.374 196.515 101.114 196.482C100.853 196.435 100.577 196.43 100.286 196.467C99.6905 196.543 99.2124 196.746 98.8513 197.075C98.5035 197.402 98.3546 197.864 98.4045 198.463L95.8456 198.792C95.8305 198.256 95.914 197.754 96.096 197.287C96.2895 196.806 96.5709 196.38 96.9401 196.009C97.3208 195.625 97.777 195.304 98.3087 195.047C98.8536 194.789 99.4632 194.617 100.138 194.53C100.799 194.445 101.424 194.446 102.013 194.531C102.6 194.604 103.129 194.791 103.598 195.094C104.067 195.397 104.459 195.837 104.776 196.415C105.09 196.979 105.305 197.711 105.42 198.61C105.431 198.69 105.443 198.836 105.457 199.049C105.482 199.248 105.512 199.479 105.546 199.744C105.58 200.008 105.609 200.287 105.633 200.579C105.669 200.857 105.702 201.115 105.732 201.353C105.841 202.199 105.956 202.884 106.077 203.406C106.197 203.928 106.34 204.407 106.503 204.843L103.984 205.167C103.922 205 103.856 204.8 103.786 204.567C103.729 204.333 103.67 204.085 103.61 203.824ZM118.358 203.583C117.724 203.664 117.103 203.643 116.495 203.52C115.901 203.394 115.354 203.162 114.853 202.823C114.351 202.471 113.915 202.009 113.546 201.438C113.177 200.867 112.907 200.176 112.735 199.365L110.791 199.615L111.382 204.217L108.645 204.568L107.274 193.896L110.012 193.544L110.514 197.452L112.557 197.19C112.597 196.459 112.736 195.809 112.972 195.241C113.221 194.671 113.536 194.187 113.915 193.789C114.307 193.389 114.757 193.069 115.264 192.83C115.784 192.588 116.335 192.43 116.917 192.355C117.644 192.262 118.346 192.286 119.023 192.427C119.7 192.569 120.313 192.84 120.861 193.24C121.423 193.638 121.895 194.169 122.276 194.833C122.657 195.496 122.909 196.311 123.033 197.276C123.157 198.242 123.119 199.093 122.918 199.832C122.717 200.57 122.395 201.203 121.952 201.73C121.522 202.256 120.997 202.673 120.378 202.981C119.759 203.289 119.086 203.49 118.358 203.583ZM118.083 201.441C118.864 201.34 119.457 200.989 119.863 200.385C120.281 199.767 120.412 198.849 120.256 197.633C120.176 197.011 120.042 196.491 119.854 196.071C119.677 195.637 119.452 195.296 119.178 195.049C118.918 194.8 118.614 194.637 118.269 194.561C117.934 194.469 117.575 194.448 117.192 194.498C116.517 194.584 116.003 194.926 115.65 195.522C115.294 196.106 115.197 197.019 115.356 198.262C115.514 199.492 115.833 200.352 116.313 200.841C116.805 201.329 117.396 201.529 118.083 201.441ZM124.572 198.349L124.266 195.968L130.832 195.125L131.138 197.506L124.572 198.349ZM133.906 201.324L132.536 190.652L137.792 189.977C138.361 189.904 138.895 189.875 139.395 189.892C139.907 189.907 140.362 189.996 140.76 190.16C141.157 190.324 141.485 190.571 141.742 190.901C142 191.231 142.164 191.674 142.235 192.229C142.37 193.274 142.014 194.066 141.169 194.604C141.707 194.71 142.167 194.94 142.548 195.294C142.942 195.633 143.181 196.14 143.268 196.815C143.343 197.397 143.301 197.913 143.144 198.363C142.985 198.8 142.731 199.176 142.382 199.49C142.03 199.79 141.598 200.034 141.084 200.221C140.584 200.406 140.023 200.539 139.401 200.618L133.906 201.324ZM136.369 198.83L138.848 198.512C140.118 198.349 140.7 197.857 140.595 197.037C140.54 196.614 140.336 196.331 139.981 196.188C139.639 196.031 139.15 195.993 138.515 196.074L136.055 196.39L136.369 198.83ZM135.826 194.605L138.147 194.307C138.663 194.241 139.055 194.103 139.324 193.893C139.591 193.671 139.699 193.361 139.648 192.965C139.595 192.555 139.415 192.302 139.107 192.207C138.798 192.099 138.378 192.079 137.849 192.147L135.548 192.443L135.826 194.605ZM147.206 188.768L148.577 199.44L145.839 199.792L144.469 189.119L147.206 188.768ZM146.73 185.058L147.056 187.597L144.318 187.949L143.992 185.41L146.73 185.058ZM153.722 198.779L152.629 190.269L149.158 190.715L148.88 188.553L158.56 187.31L158.838 189.472L155.367 189.918L156.46 198.428L153.722 198.779ZM167.489 192.051C166.732 192.229 166.088 192.399 165.558 192.561C165.028 192.723 164.6 192.899 164.275 193.089C163.948 193.265 163.719 193.469 163.587 193.701C163.454 193.92 163.406 194.175 163.443 194.466C163.493 194.849 163.687 195.16 164.027 195.399C164.367 195.638 164.847 195.717 165.469 195.637C166.329 195.527 166.92 195.209 167.242 194.684C167.564 194.158 167.67 193.459 167.557 192.586L167.489 192.051ZM168.158 195.534C167.847 196.152 167.425 196.63 166.89 196.967C166.367 197.29 165.702 197.503 164.895 197.606C164.379 197.673 163.881 197.663 163.399 197.577C162.918 197.491 162.481 197.338 162.09 197.12C161.713 196.899 161.393 196.611 161.132 196.255C160.87 195.885 160.708 195.462 160.647 194.986C160.565 194.352 160.663 193.801 160.939 193.336C161.227 192.855 161.657 192.437 162.23 192.081C162.816 191.723 163.527 191.404 164.365 191.121C165.216 190.837 166.156 190.569 167.185 190.315L167.16 190.117C167.107 189.707 167.01 189.37 166.868 189.106C166.725 188.829 166.55 188.616 166.343 188.468C166.149 188.318 165.922 188.226 165.662 188.192C165.401 188.145 165.125 188.14 164.834 188.178C164.239 188.254 163.76 188.456 163.399 188.785C163.052 189.112 162.903 189.575 162.953 190.173L160.394 190.502C160.379 189.966 160.462 189.465 160.644 188.998C160.838 188.516 161.119 188.09 161.488 187.72C161.869 187.335 162.325 187.014 162.857 186.758C163.402 186.5 164.011 186.327 164.686 186.241C165.347 186.156 165.972 186.156 166.561 186.242C167.148 186.314 167.677 186.502 168.146 186.804C168.615 187.107 169.007 187.547 169.324 188.125C169.638 188.69 169.853 189.422 169.968 190.321C169.979 190.4 169.991 190.547 170.005 190.76C170.03 190.958 170.06 191.19 170.094 191.454C170.128 191.719 170.157 191.997 170.181 192.29C170.217 192.568 170.25 192.825 170.28 193.064C170.389 193.91 170.504 194.594 170.625 195.116C170.746 195.639 170.888 196.118 171.051 196.554L168.532 196.877C168.47 196.71 168.404 196.511 168.334 196.278C168.277 196.043 168.218 195.795 168.158 195.534ZM182.906 195.293C182.272 195.375 181.651 195.354 181.043 195.23C180.449 195.105 179.902 194.873 179.401 194.534C178.899 194.181 178.463 193.72 178.094 193.149C177.725 192.578 177.455 191.887 177.283 191.075L175.339 191.325L175.93 195.927L173.193 196.279L171.822 185.606L174.56 185.255L175.062 189.163L177.105 188.9C177.145 188.169 177.284 187.52 177.52 186.952C177.769 186.382 178.084 185.898 178.463 185.5C178.855 185.1 179.305 184.78 179.812 184.54C180.332 184.298 180.883 184.14 181.465 184.066C182.192 183.972 182.894 183.996 183.571 184.138C184.248 184.279 184.861 184.55 185.409 184.95C185.971 185.349 186.443 185.88 186.824 186.543C187.205 187.207 187.457 188.021 187.581 188.987C187.705 189.952 187.667 190.804 187.466 191.542C187.265 192.28 186.943 192.913 186.5 193.441C186.07 193.966 185.545 194.383 184.926 194.691C184.307 194.999 183.634 195.2 182.906 195.293ZM182.631 193.151C183.412 193.051 184.005 192.699 184.411 192.096C184.829 191.477 184.96 190.56 184.804 189.343C184.724 188.722 184.59 188.201 184.402 187.782C184.225 187.347 184 187.007 183.726 186.759C183.466 186.511 183.162 186.348 182.817 186.271C182.482 186.18 182.123 186.159 181.74 186.208C181.065 186.295 180.551 186.636 180.198 187.233C179.842 187.816 179.745 188.729 179.904 189.972C180.062 191.202 180.381 192.062 180.861 192.552C181.353 193.04 181.944 193.239 182.631 193.151ZM189.424 191.17L192.498 190.775L192.909 193.969L191.687 197.332L190.12 197.533L191.155 193.972L189.806 194.145L189.424 191.17Z" fill="#000055"/>
<path d="M115.782 227.167L118.751 221.24C118.343 221.074 117.976 220.894 117.648 220.701C117.319 220.491 117.019 220.253 116.75 219.985C116.497 219.715 116.29 219.414 116.13 219.081C115.967 218.733 115.856 218.327 115.797 217.864C115.627 216.541 115.942 215.459 116.741 214.617C117.555 213.757 118.838 213.214 120.59 212.989L126.566 212.221L128.279 225.562L124.857 226.001L124.281 221.513L122.024 221.803L119.7 226.664L115.782 227.167ZM123.937 218.835L123.488 215.339L121.107 215.644C120.364 215.74 119.831 215.976 119.51 216.354C119.203 216.712 119.083 217.156 119.151 217.685C119.226 218.264 119.472 218.677 119.891 218.926C120.323 219.156 120.903 219.225 121.631 219.131L123.937 218.835ZM135.985 219.355L135.603 216.379L143.811 215.325L144.193 218.3L135.985 219.355ZM153.445 222.33L151.136 204.352L154.682 203.897L155.794 212.551L155.819 212.548L161.179 203.063L165.146 202.553L159.578 211.989L167.728 220.496L163.612 221.024L155.873 212.969L155.848 212.972L156.991 221.874L153.445 222.33ZM173.715 208.586C172.723 208.713 171.994 209.185 171.527 210.001C171.075 210.798 170.939 211.9 171.12 213.305C171.3 214.71 171.71 215.741 172.349 216.399C173.004 217.054 173.828 217.318 174.82 217.19C175.812 217.063 176.534 216.6 176.986 215.803C177.454 215.003 177.598 213.901 177.418 212.496C177.238 211.091 176.82 210.061 176.164 209.406C175.523 208.732 174.707 208.459 173.715 208.586ZM175.164 219.868C174.288 219.981 173.435 219.947 172.605 219.768C171.773 219.573 171.015 219.225 170.329 218.725C169.643 218.225 169.063 217.568 168.589 216.755C168.112 215.926 167.799 214.924 167.648 213.751C167.497 212.577 167.548 211.529 167.799 210.606C168.05 209.683 168.444 208.893 168.982 208.236C169.519 207.579 170.166 207.059 170.924 206.676C171.679 206.276 172.495 206.02 173.371 205.908C174.23 205.797 175.076 205.84 175.908 206.036C176.754 206.213 177.52 206.551 178.206 207.051C178.892 207.551 179.473 208.216 179.949 209.046C180.425 209.875 180.739 210.877 180.889 212.05C181.04 213.224 180.99 214.272 180.739 215.195C180.486 216.101 180.09 216.883 179.553 217.54C179.016 218.197 178.361 218.727 177.589 219.128C176.832 219.511 176.023 219.758 175.164 219.868ZM191.617 211.227C190.671 211.449 189.866 211.662 189.203 211.865C188.541 212.067 188.006 212.287 187.599 212.524C187.191 212.745 186.904 213 186.74 213.29C186.573 213.564 186.514 213.882 186.56 214.246C186.622 214.725 186.865 215.114 187.29 215.412C187.715 215.711 188.315 215.81 189.092 215.71C190.167 215.572 190.906 215.175 191.309 214.518C191.712 213.861 191.843 212.988 191.703 211.897L191.617 211.227ZM192.453 215.581C192.065 216.353 191.537 216.951 190.869 217.372C190.215 217.776 189.383 218.042 188.375 218.172C187.73 218.254 187.107 218.242 186.505 218.134C185.903 218.027 185.358 217.837 184.869 217.563C184.397 217.288 183.998 216.927 183.672 216.482C183.343 216.02 183.141 215.491 183.065 214.896C182.963 214.103 183.084 213.415 183.43 212.833C183.79 212.232 184.327 211.71 185.043 211.265C185.776 210.818 186.665 210.418 187.712 210.065C188.776 209.71 189.951 209.374 191.238 209.058L191.206 208.81C191.14 208.297 191.019 207.876 190.842 207.546C190.663 207.199 190.444 206.933 190.185 206.748C189.942 206.561 189.659 206.446 189.334 206.404C189.007 206.345 188.662 206.339 188.298 206.385C187.554 206.481 186.957 206.734 186.505 207.145C186.071 207.554 185.884 208.132 185.947 208.88L182.748 209.291C182.729 208.621 182.834 207.995 183.061 207.411C183.303 206.808 183.655 206.276 184.116 205.813C184.592 205.332 185.162 204.931 185.827 204.611C186.508 204.288 187.27 204.072 188.113 203.964C188.94 203.858 189.721 203.859 190.458 203.966C191.192 204.056 191.852 204.291 192.438 204.669C193.025 205.047 193.515 205.598 193.911 206.32C194.304 207.026 194.572 207.94 194.717 209.065C194.729 209.164 194.745 209.347 194.762 209.613C194.794 209.861 194.831 210.151 194.873 210.481C194.916 210.812 194.952 211.16 194.982 211.526C195.027 211.873 195.068 212.195 195.107 212.493C195.242 213.551 195.386 214.406 195.537 215.059C195.688 215.712 195.866 216.311 196.07 216.856L192.921 217.26C192.844 217.052 192.761 216.802 192.674 216.511C192.602 216.217 192.529 215.907 192.453 215.581ZM197.532 216.668L197.185 213.965L197.507 213.924C197.855 213.879 198.138 213.733 198.359 213.487C198.577 213.223 198.737 212.833 198.838 212.316C198.955 211.78 199.01 211.101 199.005 210.278C199.015 209.437 198.975 208.408 198.886 207.193L198.596 202.971L208.663 201.678L210.377 215.018L206.955 215.458L205.589 204.82L202.142 205.263L202.351 208.462C202.525 210.994 202.287 212.932 201.636 214.276C200.983 215.603 199.83 216.373 198.177 216.585L197.532 216.668ZM221.184 207.43C220.238 207.652 219.433 207.865 218.77 208.068C218.107 208.27 217.573 208.49 217.166 208.727C216.758 208.948 216.471 209.203 216.307 209.493C216.14 209.766 216.08 210.085 216.127 210.449C216.189 210.928 216.432 211.317 216.857 211.615C217.281 211.914 217.882 212.013 218.659 211.913C219.734 211.775 220.472 211.378 220.875 210.721C221.278 210.064 221.41 209.191 221.27 208.099L221.184 207.43ZM222.02 211.784C221.632 212.556 221.104 213.153 220.435 213.575C219.781 213.979 218.95 214.245 217.942 214.374C217.297 214.457 216.674 214.445 216.072 214.337C215.47 214.23 214.925 214.039 214.436 213.766C213.964 213.491 213.564 213.13 213.238 212.685C212.91 212.223 212.708 211.694 212.631 211.099C212.529 210.306 212.651 209.618 212.997 209.036C213.356 208.435 213.894 207.912 214.61 207.468C215.342 207.021 216.232 206.621 217.279 206.268C218.342 205.913 219.517 205.577 220.804 205.261L220.772 205.013C220.707 204.5 220.585 204.079 220.408 203.749C220.229 203.402 220.011 203.136 219.751 202.951C219.509 202.764 219.225 202.649 218.901 202.606C218.574 202.548 218.229 202.542 217.865 202.588C217.121 202.684 216.523 202.937 216.072 203.348C215.637 203.757 215.451 204.335 215.514 205.083L212.315 205.494C212.296 204.824 212.4 204.197 212.628 203.614C212.87 203.011 213.221 202.479 213.683 202.016C214.159 201.535 214.729 201.134 215.394 200.814C216.075 200.491 216.837 200.275 217.68 200.167C218.507 200.061 219.288 200.061 220.024 200.168C220.758 200.259 221.419 200.494 222.005 200.872C222.591 201.25 223.082 201.801 223.477 202.523C223.87 203.229 224.139 204.143 224.283 205.267C224.296 205.367 224.311 205.55 224.329 205.816C224.361 206.064 224.398 206.353 224.44 206.684C224.483 207.015 224.519 207.363 224.549 207.729C224.594 208.076 224.635 208.398 224.673 208.696C224.809 209.754 224.953 210.609 225.104 211.262C225.255 211.915 225.432 212.513 225.637 213.059L222.488 213.463C222.411 213.254 222.328 213.005 222.24 212.713C222.169 212.42 222.096 212.11 222.02 211.784Z" fill="#000055"/>
<path d="M204.036 234.358C204.037 235.283 203.872 236.152 203.539 236.968C203.224 237.782 202.763 238.513 202.158 239.162C201.55 239.794 200.812 240.326 199.943 240.757C199.088 241.169 198.124 241.444 197.049 241.582C195.71 241.754 194.493 241.692 193.396 241.396C192.297 241.084 191.332 240.569 190.501 239.852C189.684 239.117 189.011 238.195 188.482 237.087C187.97 235.977 187.621 234.702 187.437 233.264C187.254 231.842 187.288 230.536 187.538 229.344C187.788 228.153 188.226 227.113 188.852 226.226C189.494 225.337 190.308 224.611 191.294 224.048C192.297 223.482 193.451 223.115 194.757 222.947C195.815 222.812 196.801 222.836 197.716 223.021C198.628 223.19 199.45 223.504 200.181 223.965C200.91 224.409 201.53 224.985 202.041 225.692C202.566 226.381 202.964 227.187 203.234 228.11L199.861 228.543C199.615 227.936 199.317 227.445 198.966 227.07C198.63 226.676 198.255 226.371 197.841 226.156C197.443 225.938 197.007 225.809 196.531 225.77C196.07 225.711 195.591 225.714 195.095 225.777C194.418 225.865 193.799 226.087 193.24 226.444C192.695 226.783 192.243 227.253 191.884 227.853C191.524 228.454 191.271 229.167 191.125 229.993C190.979 230.818 190.973 231.751 191.106 232.793C191.244 233.867 191.49 234.802 191.845 235.597C192.197 236.375 192.615 237.018 193.101 237.527C193.601 238.018 194.15 238.367 194.748 238.576C195.362 238.783 195.992 238.845 196.637 238.762C197.166 238.694 197.663 238.571 198.127 238.394C198.589 238.2 198.994 237.947 199.34 237.633C199.701 237.301 199.994 236.902 200.22 236.437C200.446 235.971 200.594 235.422 200.664 234.792L204.036 234.358ZM205.108 221.946L218.2 220.265L218.569 223.141L209.023 224.367L209.596 228.83L218.622 227.671L218.991 230.547L209.965 231.707L210.593 236.592L220.139 235.365L220.509 238.242L207.416 239.923L205.108 221.946ZM231.377 236.846L225.203 223.902L226.938 237.416L223.64 237.84L221.332 219.862L226.489 219.2L232.653 232.649L235.094 218.095L240.301 217.426L242.61 235.404L239.312 235.827L237.576 222.313L234.898 236.394L231.377 236.846Z" fill="#000055"/>
<defs>
<filter id="filter0_dddddddd_33_18497" x="-86.6827" y="0.277954" width="512.054" height="409.793" filterUnits="userSpaceOnUse" color-interpolation-filters="sRGB">
<feFlood flood-opacity="0" result="BackgroundImageFix"/>
<feColorMatrix in="SourceAlpha" type="matrix" values="0 0 0 0 0 0 0 0 0 0 0 0 0 0 0 0 0 0 127 0" result="hardAlpha"/>
<feOffset/>
<feGaussianBlur stdDeviation="2"/>
<feComposite in2="hardAlpha" operator="out"/>
<feColorMatrix type="matrix" values="0 0 0 0 1 0 0 0 0 1 0 0 0 0 1 0 0 0 1 0"/>
<feBlend mode="normal" in2="BackgroundImageFix" result="effect1_dropShadow_33_18497"/>
<feColorMatrix in="SourceAlpha" type="matrix" values="0 0 0 0 0 0 0 0 0 0 0 0 0 0 0 0 0 0 127 0" result="hardAlpha"/>
<feOffset/>
<feGaussianBlur stdDeviation="5.5"/>
<feComposite in2="hardAlpha" operator="out"/>
<feColorMatrix type="matrix" values="0 0 0 0 1 0 0 0 0 1 0 0 0 0 1 0 0 0 1 0"/>
<feBlend mode="normal" in2="effect1_dropShadow_33_18497" result="effect2_dropShadow_33_18497"/>
<feColorMatrix in="SourceAlpha" type="matrix" values="0 0 0 0 0 0 0 0 0 0 0 0 0 0 0 0 0 0 127 0" result="hardAlpha"/>
<feOffset/>
<feGaussianBlur stdDeviation="9.5"/>
<feComposite in2="hardAlpha" operator="out"/>
<feColorMatrix type="matrix" values="0 0 0 0 1 0 0 0 0 1 0 0 0 0 1 0 0 0 1 0"/>
<feBlend mode="normal" in2="effect2_dropShadow_33_18497" result="effect3_dropShadow_33_18497"/>
<feColorMatrix in="SourceAlpha" type="matrix" values="0 0 0 0 0 0 0 0 0 0 0 0 0 0 0 0 0 0 127 0" result="hardAlpha"/>
<feOffset/>
<feGaussianBlur stdDeviation="20"/>
<feComposite in2="hardAlpha" operator="out"/>
<feColorMatrix type="matrix" values="0 0 0 0 1 0 0 0 0 1 0 0 0 0 1 0 0 0 1 0"/>
<feBlend mode="normal" in2="effect3_dropShadow_33_18497" result="effect4_dropShadow_33_18497"/>
<feColorMatrix in="SourceAlpha" type="matrix" values="0 0 0 0 0 0 0 0 0 0 0 0 0 0 0 0 0 0 127 0" result="hardAlpha"/>
<feOffset/>
<feGaussianBlur stdDeviation="40"/>
<feComposite in2="hardAlpha" operator="out"/>
<feColorMatrix type="matrix" values="0 0 0 0 1 0 0 0 0 1 0 0 0 0 1 0 0 0 1 0"/>
<feBlend mode="normal" in2="effect4_dropShadow_33_18497" result="effect5_dropShadow_33_18497"/>
<feColorMatrix in="SourceAlpha" type="matrix" values="0 0 0 0 0 0 0 0 0 0 0 0 0 0 0 0 0 0 127 0" result="hardAlpha"/>
<feOffset/>
<feGaussianBlur stdDeviation="45"/>
<feComposite in2="hardAlpha" operator="out"/>
<feColorMatrix type="matrix" values="0 0 0 0 1 0 0 0 0 1 0 0 0 0 1 0 0 0 1 0"/>
<feBlend mode="normal" in2="effect5_dropShadow_33_18497" result="effect6_dropShadow_33_18497"/>
<feColorMatrix in="SourceAlpha" type="matrix" values="0 0 0 0 0 0 0 0 0 0 0 0 0 0 0 0 0 0 127 0" result="hardAlpha"/>
<feOffset/>
<feGaussianBlur stdDeviation="50"/>
<feComposite in2="hardAlpha" operator="out"/>
<feColorMatrix type="matrix" values="0 0 0 0 1 0 0 0 0 1 0 0 0 0 1 0 0 0 1 0"/>
<feBlend mode="normal" in2="effect6_dropShadow_33_18497" result="effect7_dropShadow_33_18497"/>
<feColorMatrix in="SourceAlpha" type="matrix" values="0 0 0 0 0 0 0 0 0 0 0 0 0 0 0 0 0 0 127 0" result="hardAlpha"/>
<feOffset/>
<feGaussianBlur stdDeviation="75"/>
<feComposite in2="hardAlpha" operator="out"/>
<feColorMatrix type="matrix" values="0 0 0 0 1 0 0 0 0 1 0 0 0 0 1 0 0 0 1 0"/>
<feBlend mode="normal" in2="effect7_dropShadow_33_18497" result="effect8_dropShadow_33_18497"/>
<feBlend mode="normal" in="SourceGraphic" in2="effect8_dropShadow_33_18497" result="shape"/>
</filter>
<linearGradient id="paint0_linear_33_18497" x1="152.34" y1="168.756" x2="170" y2="265.717" gradientUnits="userSpaceOnUse">
<stop stop-color="#DEF8FF"/>
<stop offset="1" stop-color="#A6D8EC"/>
</linearGradient>
</defs>
</svg>
