<svg width="313" height="145" viewBox="0 0 313 145" fill="none" xmlns="http://www.w3.org/2000/svg">
<path d="M20.9135 121.572L2.05523 20.6749C1.49757 17.6912 3.70533 14.903 6.73733 14.7617L296.759 1.24388C299.608 1.11105 301.992 3.38565 301.992 6.23846V97.902C301.992 100.501 300 102.667 297.41 102.884L26.2464 125.636C23.6893 125.851 21.3849 124.095 20.9135 121.572Z" stroke="white" stroke-width="2"/>
<path fill-rule="evenodd" clip-rule="evenodd" d="M12.0267 22.218L31.0202 132.437C31.4591 134.984 33.767 136.777 36.3435 136.572L83.7011 132.81L155.18 144.929L142.06 128.175L307.798 115.01C310.397 114.803 312.402 112.633 312.402 110.025V11.9534C312.402 9.12851 310.063 6.86452 307.24 6.95605L16.7921 16.3715C13.7583 16.4699 11.5112 19.2267 12.0267 22.218Z" fill="#D81966"/>
<path fill-rule="evenodd" clip-rule="evenodd" d="M16.8374 21.8049L35.765 127.685C36.2177 130.218 38.5183 131.993 41.0829 131.79L86.6308 128.172L150.877 139.716L139.78 123.95L306.929 110.673C309.529 110.466 311.533 108.296 311.533 105.688V11.9488C311.533 9.12563 309.197 6.86232 306.375 6.95127L21.6018 15.9275C18.5536 16.0236 16.3007 18.8027 16.8374 21.8049Z" fill="#FF267E"/>
<path d="M32.2332 25.5853L38.9849 25.1167C39.7511 25.0636 40.5143 25.0828 41.2744 25.1744C42.0335 25.25 42.7205 25.4429 43.3354 25.753C43.9652 26.0461 44.4842 26.4752 44.8923 27.0404C45.3153 27.5884 45.5578 28.3093 45.6198 29.2032C45.6486 29.6182 45.6124 30.0216 45.5113 30.4136C45.4251 30.7885 45.2973 31.1422 45.1279 31.4747C44.9585 31.8072 44.7629 32.1095 44.5412 32.3815C44.3344 32.6364 44.1242 32.8435 43.9107 33.0026C44.257 33.139 44.5895 33.3084 44.9083 33.5108C45.2419 33.6961 45.5396 33.9401 45.8011 34.2427C46.0627 34.5453 46.2808 34.9151 46.4555 35.3521C46.6291 35.7731 46.7363 36.2788 46.7773 36.8694C46.8427 37.8112 46.7145 38.622 46.3928 39.3019C46.086 39.9647 45.6437 40.5247 45.0659 40.9818C44.4871 41.4229 43.7973 41.7675 42.9965 42.0155C42.2106 42.2465 41.3708 42.393 40.4769 42.455L33.4379 42.9435L32.2332 25.5853ZM36.6755 40.0244L40.4584 39.7619C41.464 39.6921 42.1998 39.4325 42.6658 38.9832C43.1318 38.5338 43.3371 37.9101 43.2817 37.112C43.2252 36.298 42.9272 35.7012 42.3876 35.3216C41.847 34.9261 41.0419 34.7655 39.9725 34.8397L36.3332 35.0923L36.6755 40.0244ZM36.1538 32.5065L39.6973 32.2606C40.5113 32.2041 41.1285 31.9688 41.5488 31.5547C41.9851 31.1395 42.1767 30.5488 42.1235 29.7826C42.0759 29.0963 41.8073 28.5776 41.3179 28.2267C40.8284 27.8757 40.1846 27.7279 39.3865 27.7833L35.8431 28.0292L36.1538 32.5065ZM52.2805 28.6928L53.1744 41.5738L49.8704 41.8031L48.9764 28.9221L52.2805 28.6928ZM51.9698 24.2156L52.1825 27.2802L48.8784 27.5095L48.6657 24.4449L51.9698 24.2156ZM59.3843 41.1428L58.6715 30.8716L54.4816 31.1623L54.3004 28.5526L65.9843 27.7417L66.1655 30.3515L61.9755 30.6422L62.6884 40.9135L59.3843 41.1428ZM76.3477 34.0474C75.4285 34.2074 74.6456 34.366 73.999 34.5231C73.3523 34.6803 72.8275 34.861 72.4247 35.0654C72.0208 35.2538 71.7319 35.4824 71.5581 35.7511C71.3832 36.0038 71.3079 36.3057 71.3323 36.6569C71.3644 37.1198 71.5757 37.5061 71.966 37.8158C72.3564 38.1255 72.9267 38.2543 73.6769 38.2023C74.7144 38.1303 75.4447 37.7909 75.8677 37.1841C76.2907 36.5774 76.4656 35.7473 76.3925 34.6938L76.3477 34.0474ZM76.9051 38.2669C76.4899 38.9854 75.9501 39.5281 75.286 39.8949C74.6366 40.2447 73.8251 40.4534 72.8515 40.521C72.229 40.5642 71.6323 40.5174 71.0614 40.3806C70.4906 40.2438 69.9786 40.0307 69.5255 39.7414C69.0883 39.4509 68.726 39.0831 68.4385 38.638C68.1499 38.1769 67.9856 37.659 67.9458 37.0844C67.8926 36.3182 68.0478 35.6659 68.4114 35.1274C68.7898 34.5719 69.3345 34.1011 70.0455 33.7149C70.7724 33.3276 71.6475 32.9943 72.6706 32.7148C73.7096 32.4341 74.8547 32.1783 76.1057 31.9471L76.089 31.7077C76.0547 31.2129 75.9621 30.8023 75.8111 30.476C75.659 30.1337 75.4641 29.8665 75.2262 29.6745C75.0043 29.4814 74.739 29.3555 74.4301 29.2967C74.1202 29.222 73.7897 29.1968 73.4385 29.2212C72.7203 29.2711 72.1333 29.4802 71.6778 29.8486C71.2381 30.2159 71.0273 30.7598 71.0452 31.4803L67.9566 31.6947C67.9762 31.0518 68.1113 30.457 68.3621 29.9103C68.6277 29.3466 68.9946 28.856 69.4628 28.4386C69.9459 28.0041 70.5149 27.6519 71.1697 27.3819C71.8406 27.1108 72.583 26.947 73.3971 26.8905C74.1952 26.8351 74.944 26.8794 75.6437 27.0233C76.3422 27.1512 76.9618 27.4129 77.5025 27.8085C78.0432 28.204 78.4826 28.7589 78.8209 29.4732C79.1581 30.1715 79.3643 31.0634 79.4396 32.1488C79.4463 32.2445 79.4505 32.4207 79.4522 32.6771C79.4689 32.9166 79.4882 33.1959 79.5104 33.5151C79.5325 33.8344 79.5478 34.1701 79.5562 34.5224C79.5795 34.8576 79.6011 35.1688 79.621 35.4561C79.6919 36.4777 79.7815 37.3055 79.8896 37.9395C79.9978 38.5735 80.1345 39.1575 80.2999 39.6913L77.2592 39.9023C77.1969 39.6981 77.1319 39.4541 77.064 39.1701C77.0122 38.885 76.9592 38.5839 76.9051 38.2669ZM94.5902 39.0123C93.8241 39.0655 93.0815 38.9967 92.3626 38.806C91.6596 38.6142 91.0202 38.2977 90.4443 37.8566C89.8672 37.3994 89.3777 36.8159 88.9755 36.106C88.5734 35.3962 88.2981 34.5492 88.1496 33.5651L85.8033 33.728L86.1888 39.2826L82.8847 39.5119L81.9908 26.6309L85.2948 26.4016L85.6222 31.1182L88.0882 30.9471C88.188 30.0741 88.3993 29.3056 88.7222 28.6417C89.0609 27.9766 89.4713 27.4189 89.9533 26.9684C90.4512 26.5169 91.0122 26.1652 91.6363 25.9134C92.2763 25.6604 92.9474 25.5096 93.6498 25.4609C94.5276 25.4 95.3671 25.478 96.168 25.6951C96.969 25.9122 97.6841 26.2795 98.3135 26.7972C98.9588 27.3138 99.4864 27.9828 99.8962 28.8044C100.306 29.626 100.551 30.6194 100.632 31.7846C100.713 32.9498 100.607 33.9676 100.315 34.8379C100.023 35.7083 99.5924 36.4438 99.0246 37.0446C98.4728 37.6442 97.8153 38.1068 97.052 38.4325C96.2887 38.7581 95.4681 38.9514 94.5902 39.0123ZM94.4108 36.4265C95.3525 36.3611 96.088 35.9813 96.6172 35.287C97.1612 34.5756 97.3823 33.4857 97.2804 32.0172C97.2283 31.2671 97.1042 30.6341 96.908 30.1185C96.7267 29.5857 96.4808 29.1618 96.1702 28.8465C95.8756 28.5301 95.5238 28.314 95.1148 28.198C94.7206 28.065 94.2921 28.0145 93.8292 28.0467C93.0152 28.1032 92.3755 28.4763 91.9101 29.1662C91.4437 29.8401 91.2625 30.9273 91.3666 32.4277C91.4696 33.9121 91.7913 34.9644 92.3315 35.5844C92.8877 36.2034 93.5808 36.4841 94.4108 36.4265ZM103.298 32.9468L102.16 25.2071L101.851 20.7538L105.155 20.5245L105.464 24.9778L105.477 32.7956L103.298 32.9468ZM102.936 38.1203L102.687 34.529L106.23 34.2831L106.479 37.8744L102.936 38.1203Z" fill="white"/>
<path d="M45.1091 55.9013L41.5496 56.1483L41.4211 54.2968L50.8385 53.6432L50.967 55.4948L47.3916 55.7429L48.0662 65.4635L45.7837 65.6219L45.1091 55.9013ZM52.8165 65.1339L52.2205 56.5465L54.3754 56.397L54.7819 62.2549L58.1583 56.1344L60.361 55.9816L60.9569 64.5689L58.8021 64.7184L58.41 59.068L55.0192 64.981L52.8165 65.1339ZM66.7673 64.1657L66.1714 55.5783L70.4012 55.2848C70.8587 55.253 71.2866 55.2554 71.6848 55.2919C72.0935 55.3277 72.4528 55.4204 72.7626 55.57C73.0724 55.7195 73.3223 55.9321 73.5125 56.2076C73.7027 56.4831 73.8133 56.8443 73.8444 57.2912C73.9027 58.1318 73.5819 58.7475 72.8819 59.1383C73.3065 59.2478 73.6629 59.4529 73.9511 59.7537C74.2492 60.0431 74.4171 60.4591 74.4547 61.0018C74.4872 61.47 74.4302 61.8803 74.2835 62.2326C74.1362 62.5743 73.9156 62.8623 73.6217 63.0965C73.3272 63.3201 72.9704 63.4946 72.5514 63.6199C72.1431 63.7445 71.6888 63.8241 71.1887 63.8588L66.7673 64.1657ZM68.8504 62.2889L70.8456 62.1505C71.8671 62.0796 72.355 61.7142 72.3092 61.0545C72.2856 60.714 72.1356 60.4785 71.8592 60.348C71.5928 60.2061 71.2041 60.1528 70.6934 60.1883L68.7141 60.3257L68.8504 62.2889ZM68.6144 58.8891L70.4819 58.7595C70.8969 58.7307 71.2167 58.639 71.4412 58.4844C71.665 58.3192 71.7658 58.077 71.7436 57.7578C71.7207 57.4279 71.5885 57.2179 71.347 57.1277C71.1048 57.0269 70.7709 56.9913 70.3452 57.0208L68.4937 57.1493L68.6144 58.8891ZM76.3692 63.4993L75.7733 54.9119L77.9281 54.7624L78.3346 60.6203L81.711 54.4999L83.9137 54.347L84.5096 62.9343L82.3548 63.0839L81.9627 57.4335L78.5719 63.3464L76.3692 63.4993ZM86.7193 62.781L86.1234 54.1936L92.3324 53.7627L92.4532 55.5025L88.4468 55.7806L88.922 62.6281L86.7193 62.781ZM98.2947 60.4861C98.9013 60.444 99.3517 60.1561 99.6462 59.6224C99.9512 59.088 100.075 58.4005 100.016 57.5598C99.9579 56.7192 99.7408 56.0553 99.3648 55.5682C98.9987 55.0696 98.5124 54.8414 97.9059 54.8835C97.2994 54.9256 96.8272 55.2097 96.4895 55.7356C96.1624 56.2609 96.0288 56.9545 96.0886 57.8164C96.1499 58.6996 96.3788 59.3787 96.7753 59.8537C97.1817 60.3174 97.6882 60.5282 98.2947 60.4861ZM94.4575 65.0507L93.6677 53.67L95.8704 53.5172L95.9469 54.6185C96.1529 54.1979 96.4663 53.8607 96.8871 53.607C97.3071 53.3426 97.7885 53.1916 98.3312 53.1539C98.8632 53.117 99.3601 53.1895 99.8218 53.3713C100.294 53.5523 100.704 53.8286 101.05 54.2002C101.407 54.571 101.696 55.0268 101.915 55.5676C102.145 56.1077 102.283 56.7129 102.33 57.3833C102.378 58.0749 102.325 58.7041 102.172 59.2707C102.029 59.8366 101.802 60.3282 101.488 60.7456C101.185 61.1515 100.812 61.4768 100.369 61.7214C99.9371 61.9652 99.4603 62.1052 98.9389 62.1414C98.4919 62.1724 98.0331 62.1081 97.5622 61.9483C97.0913 61.7885 96.701 61.4788 96.3911 61.0191L96.6602 64.8978L94.4575 65.0507ZM109.187 57.2762C108.575 57.3829 108.053 57.4886 107.622 57.5934C107.19 57.6981 106.841 57.8187 106.572 57.9549C106.303 58.0805 106.11 58.2329 105.994 58.412C105.878 58.5805 105.828 58.7818 105.844 59.0159C105.865 59.3245 106.006 59.582 106.266 59.7885C106.527 59.995 106.907 60.0808 107.407 60.0461C108.099 59.9981 108.585 59.7719 108.867 59.3674C109.149 58.9629 109.266 58.4095 109.217 57.7072L109.187 57.2762ZM109.559 60.0892C109.282 60.5682 108.922 60.93 108.48 61.1746C108.047 61.4078 107.506 61.5469 106.857 61.5919C106.442 61.6207 106.044 61.5895 105.663 61.4983C105.283 61.4071 104.941 61.2651 104.639 61.0722C104.348 60.8786 104.106 60.6334 103.915 60.3366C103.722 60.0292 103.613 59.6839 103.586 59.3009C103.551 58.7901 103.654 58.3552 103.897 57.9962C104.149 57.6259 104.512 57.312 104.986 57.0546C105.471 56.7964 106.054 56.5741 106.736 56.3878C107.429 56.2007 108.192 56.0301 109.026 55.876L109.015 55.7164C108.992 55.3865 108.93 55.1128 108.83 54.8953C108.728 54.6671 108.598 54.489 108.44 54.361C108.292 54.2322 108.115 54.1483 107.909 54.1091C107.702 54.0593 107.482 54.0425 107.248 54.0588C106.769 54.092 106.378 54.2314 106.074 54.477C105.781 54.7219 105.64 55.0845 105.652 55.5648L103.593 55.7077C103.606 55.2791 103.696 54.8826 103.864 54.5182C104.041 54.1423 104.285 53.8153 104.597 53.537C104.92 53.2474 105.299 53.0125 105.735 52.8325C106.183 52.6518 106.678 52.5426 107.22 52.5049C107.752 52.468 108.252 52.4975 108.718 52.5935C109.184 52.6788 109.597 52.8532 109.957 53.1169C110.318 53.3806 110.611 53.7505 110.836 54.2267C111.061 54.6923 111.198 55.2869 111.249 56.0105C111.253 56.0743 111.256 56.1917 111.257 56.3627C111.268 56.5223 111.281 56.7086 111.296 56.9214C111.311 57.1342 111.321 57.358 111.326 57.5929C111.342 57.8163 111.356 58.0238 111.37 58.2154C111.417 58.8964 111.477 59.4483 111.549 59.871C111.621 60.2936 111.712 60.6829 111.822 61.0388L109.795 61.1795C109.754 61.0434 109.71 60.8807 109.665 60.6913C109.63 60.5013 109.595 60.3006 109.559 60.0892ZM113.545 60.9192L112.949 52.3319L117.179 52.0383C117.637 52.0066 118.065 52.009 118.463 52.0455C118.872 52.0813 119.231 52.1739 119.541 52.3235C119.85 52.4731 120.1 52.6856 120.291 52.9611C120.481 53.2366 120.591 53.5978 120.622 54.0448C120.681 54.8854 120.36 55.5011 119.66 55.8918C120.085 56.0014 120.441 56.2065 120.729 56.5073C121.027 56.7967 121.195 57.2127 121.233 57.7554C121.265 58.2236 121.208 58.6339 121.062 58.9862C120.914 59.3279 120.694 59.6159 120.4 59.8501C120.105 60.0737 119.749 60.2481 119.33 60.3735C118.921 60.498 118.467 60.5777 117.967 60.6124L113.545 60.9192ZM115.628 59.0425L117.624 58.904C118.645 58.8331 119.133 58.4678 119.087 57.8081C119.064 57.4676 118.914 57.232 118.637 57.1015C118.371 56.9596 117.982 56.9064 117.471 56.9419L115.492 57.0792L115.628 59.0425ZM115.393 55.6427L117.26 55.5131C117.675 55.4843 117.995 55.3926 118.219 55.238C118.443 55.0728 118.544 54.8306 118.522 54.5113C118.499 54.1814 118.367 53.9714 118.125 53.8813C117.883 53.7805 117.549 53.7448 117.123 53.7744L115.272 53.9029L115.393 55.6427ZM126.748 60.003L126.152 51.4156L129.392 51.1907L131.783 57.2157L133.303 50.9193L136.543 50.6945L137.139 59.2818L135.032 59.428L134.56 52.6284L132.718 59.5887L131.169 59.6961L128.383 53.0571L128.855 59.8567L126.748 60.003ZM142.429 51.8257C141.79 51.87 141.307 52.1442 140.978 52.6481C140.659 53.1407 140.531 53.8392 140.594 54.7437C140.657 55.6482 140.88 56.3224 141.264 56.7662C141.658 57.2093 142.174 57.4087 142.813 57.3644C143.451 57.3201 143.93 57.0516 144.249 56.5591C144.578 56.0657 144.711 55.3668 144.648 54.4623C144.586 53.5579 144.357 52.8841 143.963 52.441C143.578 51.9865 143.067 51.7814 142.429 51.8257ZM142.933 59.0882C142.369 59.1274 141.825 59.0742 141.302 58.9288C140.778 58.7727 140.306 58.5221 139.886 58.177C139.467 57.8319 139.121 57.3908 138.848 56.8537C138.575 56.3059 138.412 55.6543 138.36 54.8988C138.307 54.1433 138.378 53.4754 138.573 52.8952C138.768 52.315 139.05 51.825 139.418 51.4252C139.785 51.0254 140.218 50.7174 140.717 50.501C141.214 50.2741 141.745 50.141 142.309 50.1019C142.862 50.0635 143.401 50.1223 143.925 50.2784C144.459 50.4231 144.936 50.668 145.355 51.0131C145.775 51.3582 146.121 51.8047 146.395 52.3524C146.668 52.9001 146.831 53.5517 146.883 54.3073C146.935 55.0628 146.864 55.7306 146.669 56.3109C146.474 56.8805 146.192 57.3651 145.824 57.7649C145.456 58.1646 145.018 58.4784 144.51 58.7061C144.012 58.9225 143.486 59.0498 142.933 59.0882ZM147.767 58.5442L150.613 53.7918L147.395 49.9414L149.853 49.7708L152.877 53.6026L152.893 53.6014L152.614 49.5791L154.817 49.4263L155.096 53.4486L155.112 53.4475L157.61 49.2324L160.148 49.0563L157.429 53.3188L160.904 57.6325L158.318 57.812L155.126 53.655L155.11 53.6561L155.413 58.0136L153.21 58.1665L152.908 53.8089L152.892 53.8101L150.305 58.3681L147.767 58.5442ZM161.303 57.6048L161.182 55.865L161.39 55.8506C161.613 55.8351 161.8 55.7526 161.95 55.6032C162.099 55.4432 162.216 55.1998 162.3 54.8732C162.394 54.5352 162.455 54.1033 162.483 53.5775C162.52 53.0402 162.533 52.3818 162.522 51.602L162.495 48.8934L168.975 48.4437L169.571 57.031L167.368 57.1839L166.893 50.3364L164.674 50.4903L164.688 52.5423C164.705 54.1664 164.48 55.3956 164.014 56.2298C163.547 57.0534 162.782 57.5022 161.718 57.576L161.303 57.6048ZM171.78 56.8777L171.184 48.2903L173.339 48.1408L173.746 53.9987L177.122 47.8783L179.325 47.7254L179.921 56.3127L177.766 56.4623L177.374 50.8119L173.983 56.7248L171.78 56.8777ZM182.13 56.1594L181.534 47.572L185.764 47.2785C186.222 47.2467 186.65 47.2491 187.048 47.2856C187.457 47.3214 187.816 47.4141 188.126 47.5637C188.435 47.7133 188.685 47.9258 188.876 48.2013C189.066 48.4768 189.176 48.838 189.207 49.2849C189.266 50.1256 188.945 50.7412 188.245 51.132C188.67 51.2415 189.026 51.4467 189.314 51.7474C189.612 52.0368 189.78 52.4529 189.818 52.9956C189.85 53.4638 189.793 53.874 189.647 54.2264C189.499 54.5681 189.279 54.856 188.985 55.0903C188.69 55.3138 188.334 55.4883 187.915 55.6136C187.506 55.7382 187.052 55.8178 186.552 55.8525L182.13 56.1594ZM184.214 54.2827L186.209 54.1442C187.23 54.0733 187.718 53.708 187.672 53.0482C187.649 52.7077 187.499 52.4722 187.222 52.3417C186.956 52.1998 186.567 52.1466 186.057 52.182L184.077 52.3194L184.214 54.2827ZM183.978 50.8828L185.845 50.7532C186.26 50.7244 186.58 50.6327 186.804 50.4782C187.028 50.3129 187.129 50.0707 187.107 49.7515C187.084 49.4216 186.952 49.2116 186.71 49.1214C186.468 49.0206 186.134 48.985 185.708 49.0145L183.857 49.143L183.978 50.8828ZM193.339 46.7528L193.935 55.3401L191.732 55.493L191.136 46.9057L193.339 46.7528ZM193.132 43.768L193.274 45.8111L191.071 45.9639L190.929 43.9208L193.132 43.768ZM199.126 46.1587C199.583 46.127 200.029 46.1602 200.464 46.2583C200.909 46.3557 201.316 46.52 201.685 46.751C202.054 46.982 202.369 47.2862 202.63 47.6637C202.892 48.0412 203.078 48.4934 203.19 49.0202L201.083 49.1665C200.969 48.768 200.744 48.4468 200.406 48.203C200.079 47.9477 199.691 47.8356 199.244 47.8666C198.638 47.9087 198.164 48.1768 197.825 48.6708C197.495 49.1642 197.362 49.8631 197.425 50.7676C197.488 51.672 197.711 52.3569 198.097 52.822C198.492 53.2757 199.008 53.4804 199.647 53.4361C200.051 53.4081 200.406 53.2765 200.71 53.0416C201.025 52.8058 201.239 52.4221 201.352 51.8904L203.459 51.7441C203.372 52.3383 203.209 52.8467 202.971 53.2695C202.733 53.6817 202.441 54.0227 202.096 54.2926C201.762 54.5617 201.386 54.7642 200.967 54.9002C200.549 55.0362 200.111 55.12 199.654 55.1518C198.994 55.1975 198.401 55.1264 197.875 54.9384C197.348 54.7504 196.891 54.4721 196.501 54.1035C196.112 53.7242 195.802 53.2699 195.573 52.7405C195.354 52.1997 195.221 51.6048 195.176 50.9557C195.131 50.3066 195.185 49.6987 195.338 49.1321C195.502 48.5647 195.757 48.0712 196.102 47.6517C196.446 47.2215 196.871 46.8765 197.377 46.6169C197.883 46.3572 198.466 46.2045 199.126 46.1587ZM206.866 54.4427L206.391 47.5952L203.598 47.789L203.477 46.0492L211.266 45.5086L211.387 47.2484L208.594 47.4423L209.069 54.2898L206.866 54.4427ZM213.196 54.0034L212.6 45.416L214.803 45.2632L214.997 48.0565L216.769 47.9335C217.982 47.8493 218.876 48.0225 219.451 48.453C220.026 48.8836 220.347 49.583 220.415 50.5513C220.453 51.1047 220.416 51.5724 220.304 51.9544C220.191 52.3364 219.999 52.6545 219.728 52.9085C219.467 53.1512 219.127 53.3405 218.709 53.4764C218.301 53.601 217.815 53.6829 217.251 53.722L213.196 54.0034ZM215.279 52.1267L216.86 52.017C217.37 51.9815 217.742 51.8649 217.974 51.667C218.216 51.4577 218.321 51.1243 218.29 50.6668C218.262 50.2624 218.114 49.9893 217.848 49.8474C217.581 49.6948 217.192 49.6363 216.681 49.6717L215.117 49.7803L215.279 52.1267ZM228.846 45.8283C228.207 45.8726 227.724 46.1467 227.395 46.6507C227.076 47.1433 226.949 47.8418 227.011 48.7463C227.074 49.6508 227.297 50.325 227.681 50.7688C228.075 51.2119 228.592 51.4113 229.23 51.367C229.869 51.3227 230.347 51.0542 230.666 50.5616C230.995 50.0683 231.128 49.3694 231.066 48.4649C231.003 47.5604 230.774 46.8867 230.38 46.4436C229.996 45.9891 229.484 45.784 228.846 45.8283ZM229.35 53.0908C228.786 53.13 228.242 53.0768 227.719 52.9314C227.195 52.7753 226.723 52.5247 226.303 52.1796C225.884 51.8344 225.538 51.3933 225.265 50.8563C224.992 50.3085 224.829 49.6569 224.777 48.9014C224.724 48.1459 224.795 47.478 224.99 46.8978C225.185 46.3176 225.467 45.8276 225.835 45.4278C226.203 45.028 226.636 44.72 227.134 44.5036C227.631 44.2767 228.162 44.1436 228.726 44.1044C229.279 44.066 229.818 44.1249 230.342 44.281C230.876 44.4257 231.353 44.6706 231.772 45.0157C232.192 45.3608 232.538 45.8073 232.812 46.355C233.085 46.9027 233.248 47.5543 233.3 48.3099C233.353 49.0654 233.281 49.7332 233.086 50.3135C232.891 50.883 232.609 51.3677 232.241 51.7675C231.873 52.1672 231.435 52.481 230.927 52.7087C230.429 52.9251 229.903 53.0524 229.35 53.0908ZM237.137 52.3419L236.662 45.4943L233.869 45.6882L233.748 43.9484L241.537 43.4078L241.658 45.1476L238.865 45.3415L239.34 52.189L237.137 52.3419ZM247.498 50.1312C248.105 50.0891 248.555 49.8013 248.85 49.2676C249.155 48.7332 249.278 48.0457 249.22 47.205C249.162 46.3644 248.944 45.7005 248.568 45.2133C248.202 44.7148 247.716 44.4866 247.11 44.5287C246.503 44.5708 246.031 44.8548 245.693 45.3808C245.366 45.906 245.232 46.5996 245.292 47.4616C245.354 48.3448 245.582 49.0239 245.979 49.4989C246.385 49.9625 246.892 50.1733 247.498 50.1312ZM243.661 54.6958L242.871 43.3152L245.074 43.1623L245.15 44.2637C245.357 43.8431 245.67 43.5059 246.091 43.2522C246.511 42.9878 246.992 42.8368 247.535 42.7991C248.067 42.7622 248.564 42.8346 249.025 43.0164C249.498 43.1975 249.907 43.4738 250.254 43.8454C250.611 44.2162 250.899 44.672 251.118 45.2128C251.348 45.7528 251.487 46.358 251.533 47.0284C251.581 47.7201 251.529 48.3492 251.375 48.9159C251.233 49.4818 251.005 49.9734 250.692 50.3907C250.389 50.7967 250.016 51.122 249.573 51.3666C249.141 51.6104 248.664 51.7504 248.142 51.7866C247.696 51.8176 247.237 51.7532 246.766 51.5934C246.295 51.4337 245.905 51.1239 245.595 50.6643L245.864 54.543L243.661 54.6958ZM253.412 51.2124L252.816 42.625L254.971 42.4755L255.378 48.3334L258.754 42.213L260.957 42.0601L261.553 50.6474L259.398 50.797L259.006 45.1466L255.615 51.0595L253.412 51.2124ZM263.762 50.4941L263.166 41.9067L266.406 41.6819L268.797 47.7068L270.317 41.4105L273.557 41.1856L274.153 49.7729L272.046 49.9192L271.574 43.1195L269.732 50.0798L268.184 50.1872L265.397 43.5482L265.869 50.3479L263.762 50.4941ZM281.336 45.329C280.723 45.4357 280.201 45.5414 279.77 45.6462C279.339 45.7509 278.989 45.8714 278.721 46.0077C278.451 46.1333 278.259 46.2857 278.143 46.4648C278.026 46.6333 277.976 46.8346 277.992 47.0687C278.014 47.3772 278.154 47.6348 278.415 47.8413C278.675 48.0477 279.055 48.1336 279.555 48.0989C280.247 48.0509 280.734 47.8247 281.016 47.4202C281.298 47.0157 281.414 46.4623 281.366 45.76L281.336 45.329ZM281.707 48.142C281.431 48.621 281.071 48.9828 280.628 49.2274C280.195 49.4605 279.654 49.5997 279.005 49.6447C278.59 49.6735 278.192 49.6423 277.812 49.5511C277.431 49.4599 277.09 49.3179 276.788 49.125C276.496 48.9314 276.255 48.6862 276.063 48.3894C275.871 48.082 275.761 47.7367 275.735 47.3537C275.699 46.8429 275.803 46.408 276.045 46.049C276.297 45.6787 276.66 45.3648 277.134 45.1073C277.619 44.8492 278.202 44.6269 278.884 44.4406C279.577 44.2535 280.34 44.0829 281.174 43.9288L281.163 43.7692C281.141 43.4393 281.079 43.1656 280.978 42.948C280.877 42.7198 280.747 42.5418 280.588 42.4138C280.44 42.285 280.263 42.2011 280.057 42.1619C279.851 42.1121 279.63 42.0953 279.396 42.1115C278.918 42.1448 278.526 42.2842 278.223 42.5298C277.929 42.7747 277.789 43.1373 277.801 43.6176L275.742 43.7605C275.755 43.3319 275.845 42.9354 276.012 42.571C276.189 42.1951 276.434 41.8681 276.746 41.5898C277.068 41.3001 277.447 41.0653 277.884 40.8853C278.331 40.7046 278.826 40.5954 279.369 40.5577C279.901 40.5208 280.4 40.5503 280.866 40.6463C281.332 40.7315 281.745 40.906 282.106 41.1697C282.466 41.4334 282.759 41.8033 282.985 42.2795C283.209 42.7451 283.347 43.3397 283.397 44.0632C283.402 44.1271 283.404 44.2445 283.406 44.4155C283.417 44.5751 283.43 44.7613 283.444 44.9742C283.459 45.187 283.469 45.4108 283.475 45.6457C283.49 45.8691 283.505 46.0766 283.518 46.2682C283.565 46.9492 283.625 47.501 283.697 47.9237C283.769 48.3464 283.86 48.7357 283.971 49.0916L281.944 49.2323C281.902 49.0962 281.859 48.9334 281.813 48.7441C281.779 48.5541 281.744 48.3534 281.707 48.142ZM287.625 48.838L287.15 41.9904L284.357 42.1843L284.236 40.4445L292.025 39.9039L292.146 41.6437L289.353 41.8376L289.828 48.6851L287.625 48.838ZM293.955 48.3987L293.359 39.8113L295.514 39.6618L295.921 45.5197L299.297 39.3992L301.5 39.2464L302.096 47.8337L299.941 47.9833L299.549 42.3329L296.158 48.2458L293.955 48.3987Z" fill="white"/>
<path d="M68.6918 97.665L68.4326 93.93L68.9115 93.8968C69.1137 93.8828 69.2909 93.817 69.4431 93.6995C69.5946 93.5714 69.7181 93.349 69.8138 93.0322C69.9087 92.7049 69.9742 92.262 70.0103 91.7035C70.0456 91.1343 70.0535 90.4013 70.0341 89.5045L69.9686 86.9429L76.5607 86.4854L77.0359 93.3329L78.3607 93.241L78.62 96.976L76.5769 97.1178L76.4384 95.1226L70.5965 95.528L70.7349 97.5232L68.6918 97.665ZM74.8332 93.4858L74.4787 88.3781L72.0685 88.5454L72.0813 90.1163C72.0804 90.5654 72.0758 90.9613 72.0675 91.3041C72.0585 91.6362 72.0317 91.9427 71.987 92.2238C71.9416 92.4943 71.8792 92.7499 71.7997 92.9907C71.7201 93.2314 71.614 93.474 71.4813 93.7184L74.8332 93.4858ZM82.9915 87.5788C82.353 87.6231 81.8695 87.8973 81.5409 88.4012C81.2223 88.8938 81.0943 89.5923 81.1571 90.4968C81.2199 91.4013 81.4431 92.0755 81.8267 92.5193C82.221 92.9624 82.7374 93.1618 83.3758 93.1175C84.0143 93.0732 84.4929 92.8047 84.8115 92.3122C85.1408 91.8188 85.2741 91.1199 85.2113 90.2155C85.1486 89.311 84.92 88.6372 84.5257 88.1941C84.1414 87.7396 83.6299 87.5345 82.9915 87.5788ZM83.4955 94.8413C82.9315 94.8805 82.3879 94.8273 81.8645 94.6819C81.3405 94.5258 80.8687 94.2752 80.4491 93.9301C80.0295 93.585 79.6835 93.1439 79.411 92.6068C79.1377 92.059 78.9749 91.4074 78.9225 90.6519C78.87 89.8964 78.9413 89.2285 79.1363 88.6483C79.3312 88.0681 79.6126 87.5781 79.9805 87.1783C80.3484 86.7786 80.7814 86.4705 81.2796 86.2542C81.7771 86.0272 82.3078 85.8941 82.8718 85.855C83.4252 85.8166 83.9639 85.8754 84.4879 86.0315C85.0219 86.1762 85.4987 86.4211 85.9182 86.7662C86.3378 87.1113 86.6842 87.5578 86.9574 88.1055C87.2307 88.6532 87.3935 89.3049 87.446 90.0604C87.4984 90.8159 87.4271 91.4838 87.2322 92.064C87.0365 92.6336 86.7547 93.1182 86.3868 93.518C86.0189 93.9178 85.5809 94.2315 85.0728 94.4592C84.5746 94.6756 84.0488 94.8029 83.4955 94.8413Z" fill="white"/>
<path d="M98.331 95.4643L97.252 79.9177L91.9847 80.2832L91.7166 76.4205C92.6728 76.3328 93.4969 76.1901 94.1889 75.9923C94.9007 75.7719 95.5016 75.4949 95.9917 75.1615C96.4818 74.8281 96.8816 74.4262 97.1911 73.9556C97.4991 73.4638 97.7587 72.8897 97.9697 72.2336L101.96 71.9566L103.566 95.1009L98.331 95.4643ZM116.351 90.7173C117.521 90.6361 118.465 90.2177 119.183 89.4622C119.92 88.684 120.242 87.6245 120.149 86.2837C120.1 85.5814 119.94 84.9723 119.669 84.4565C119.42 83.9392 119.091 83.5236 118.685 83.2097C118.298 82.873 117.854 82.6365 117.352 82.5003C116.872 82.3625 116.377 82.3113 115.866 82.3468C114.951 82.4103 114.178 82.6671 113.546 83.1173C112.913 83.5461 112.42 84.147 112.067 84.92L107.214 84.7757L107.931 71.5422L123.414 70.4677L123.711 74.7454L112.601 75.5164L112.36 79.8956C112.887 79.4742 113.568 79.1275 114.405 78.8556C115.241 78.5837 116.064 78.4197 116.873 78.3635C117.916 78.2912 118.938 78.3913 119.941 78.6638C120.944 78.9364 121.841 79.3874 122.633 80.0167C123.445 80.6233 124.11 81.4218 124.628 82.4123C125.165 83.3801 125.481 84.5344 125.574 85.8752C125.665 87.1946 125.491 88.3829 125.051 89.4399C124.61 90.4756 123.977 91.3642 123.151 92.1058C122.347 92.8459 121.382 93.4261 120.257 93.8464C119.152 94.2652 117.962 94.5189 116.685 94.6075C115.493 94.6902 114.354 94.6089 113.268 94.3635C112.203 94.1166 111.233 93.7028 110.359 93.1219C109.485 92.5411 108.738 91.8016 108.12 90.9036C107.523 90.0041 107.086 88.9438 106.809 87.7228L111.884 87.3705C112.212 88.695 112.777 89.6074 113.582 90.1075C114.406 90.585 115.329 90.7882 116.351 90.7173ZM145.664 92.5964C144.025 92.7101 142.569 92.5331 141.297 92.0655C140.022 91.5765 138.935 90.8501 138.034 89.8861C137.131 88.9009 136.416 87.6782 135.887 86.218C135.358 84.7578 135.029 83.1019 134.9 81.2503C134.772 79.3988 134.869 77.724 135.193 76.226C135.517 74.728 136.058 73.4394 136.817 72.3603C137.577 71.2811 138.554 70.422 139.75 69.783C140.946 69.144 142.363 68.7677 144.002 68.654C145.62 68.5417 147.065 68.7194 148.337 69.1871C149.61 69.6547 150.697 70.3706 151.598 71.3345C152.499 72.2984 153.213 73.4999 153.741 74.9388C154.268 76.3777 154.596 78.023 154.725 79.8745C154.853 81.7261 154.756 83.4115 154.434 84.9308C154.112 86.4501 153.572 87.7599 152.814 88.8603C152.055 89.9395 151.078 90.8092 149.884 91.4695C148.688 92.1085 147.281 92.4841 145.664 92.5964ZM145.393 88.7017C146.734 88.6087 147.775 87.8842 148.514 86.5284C149.253 85.1513 149.525 83.0582 149.33 80.2489C149.136 77.461 148.58 75.4573 147.662 74.238C146.743 73.0187 145.613 72.4555 144.272 72.5486C142.91 72.6431 141.859 73.3576 141.117 74.6922C140.376 76.0267 140.102 78.0879 140.295 80.8759C140.49 83.6852 141.049 85.7207 141.97 86.9826C142.89 88.2232 144.031 88.7963 145.393 88.7017ZM168.515 91.0105C166.876 91.1242 165.421 90.9472 164.148 90.4796C162.874 89.9906 161.786 89.2642 160.885 88.3002C159.983 87.315 159.267 86.0923 158.738 84.6321C158.209 83.1719 157.88 81.516 157.752 79.6644C157.623 77.8129 157.721 76.1381 158.045 74.6401C158.368 73.1421 158.91 71.8535 159.669 70.7744C160.428 69.6952 161.405 68.8362 162.601 68.1972C163.797 67.5581 165.215 67.1818 166.853 67.0681C168.471 66.9558 169.916 67.1335 171.189 67.6012C172.461 68.0689 173.548 68.7847 174.449 69.7486C175.35 70.7125 176.064 71.914 176.592 73.3529C177.119 74.7918 177.447 76.4371 177.576 78.2886C177.704 80.1402 177.608 81.8256 177.285 83.3449C176.963 84.8642 176.423 86.174 175.666 87.2744C174.906 88.3536 173.93 89.2233 172.735 89.8836C171.539 90.5226 170.132 90.8982 168.515 91.0105ZM168.245 87.1158C169.586 87.0228 170.626 86.2984 171.366 84.9425C172.104 83.5654 172.376 81.4723 172.181 78.663C171.987 75.8751 171.431 73.8714 170.513 72.6521C169.594 71.4328 168.464 70.8696 167.124 70.9627C165.762 71.0572 164.71 71.7717 163.969 73.1063C163.227 74.4408 162.953 76.5021 163.147 79.29C163.342 82.0993 163.9 84.1348 164.821 85.3967C165.742 86.6373 166.883 87.2104 168.245 87.1158ZM191.366 89.4246C189.728 89.5383 188.272 89.3613 186.999 88.8937C185.725 88.4047 184.637 87.6783 183.736 86.7143C182.834 85.7291 182.118 84.5064 181.589 83.0462C181.06 81.586 180.731 79.9301 180.603 78.0785C180.474 76.227 180.572 74.5522 180.896 73.0542C181.22 71.5562 181.761 70.2676 182.52 69.1885C183.279 68.1093 184.257 67.2503 185.453 66.6113C186.649 65.9723 188.066 65.5959 189.705 65.4822C191.322 65.3699 192.767 65.5476 194.04 66.0153C195.313 66.483 196.4 67.1988 197.301 68.1627C198.201 69.1266 198.916 70.3281 199.443 71.767C199.971 73.2059 200.299 74.8512 200.427 76.7027C200.556 78.5543 200.459 80.2397 200.137 81.759C199.814 83.2783 199.274 84.5881 198.517 85.6885C197.758 86.7677 196.781 87.6374 195.586 88.2977C194.39 88.9367 192.984 89.3123 191.366 89.4246ZM191.096 85.5299C192.437 85.4369 193.477 84.7125 194.217 83.3566C194.955 81.9795 195.227 79.8864 195.032 77.0771C194.839 74.2892 194.283 72.2855 193.364 71.0662C192.445 69.8469 191.316 69.2837 189.975 69.3768C188.613 69.4713 187.561 70.1859 186.82 71.5204C186.078 72.8549 185.804 74.9162 185.998 77.7041C186.193 80.5134 186.751 82.5489 187.673 83.8108C188.593 85.0514 189.734 85.6245 191.096 85.5299ZM231.028 71.3071L231.203 73.8291L209.879 75.309L209.704 72.7871L222.696 71.8854C223.17 71.6173 223.543 71.3027 223.818 70.9415C224.092 70.5803 224.214 70.1762 224.183 69.7293C224.14 69.1121 223.816 68.6106 223.212 68.2249C222.607 67.8178 221.729 67.6542 220.58 67.7339C219.473 67.8107 218.551 68.0779 217.813 68.5354C217.096 68.9915 216.637 69.6221 216.436 70.4273L211.329 70.7818C211.438 69.5767 211.76 68.5278 212.297 67.6352C212.854 66.7198 213.539 65.9665 214.354 65.3754C215.188 64.7615 216.117 64.2906 217.143 63.9629C218.168 63.6351 219.212 63.4343 220.276 63.3605C221.426 63.2807 222.542 63.3422 223.625 63.5451C224.709 63.7479 225.674 64.1085 226.523 64.627C227.372 65.1455 228.06 65.8248 228.589 66.6649C229.139 67.5035 229.455 68.508 229.536 69.6785C229.585 70.3809 229.497 70.9643 229.273 71.429L231.028 71.3071ZM210.142 79.1079L209.967 76.5859L231.292 75.106L231.467 77.6279L218.602 78.5208C218.065 78.7933 217.659 79.1101 217.385 79.4713C217.109 79.8112 216.987 80.2153 217.02 80.6835C217.076 81.4922 217.481 82.0843 218.234 82.4597C219.008 82.8337 219.917 82.9844 220.96 82.9121C222.471 82.8072 223.59 82.4515 224.318 81.845C225.067 81.237 225.562 80.5183 225.804 79.6889L230.944 79.3322C230.828 80.4309 230.513 81.4471 230.001 82.3809C229.509 83.3131 228.85 84.1394 228.023 84.8597C227.195 85.5587 226.219 86.129 225.095 86.5706C223.969 86.9908 222.725 87.2482 221.363 87.3428C220.108 87.4299 218.916 87.3523 217.787 87.1098C216.658 86.8674 215.657 86.4664 214.784 85.9068C213.911 85.3472 213.199 84.6375 212.648 83.7776C212.095 82.8965 211.778 81.8706 211.696 80.7001C211.651 80.0404 211.686 79.4712 211.802 78.9927L210.142 79.1079Z" fill="white"/>
<path d="M147.089 114.23L146.788 109.893L142.263 110.207L142.088 107.693L146.613 107.379L146.307 102.959L148.925 102.777L149.232 107.197L153.736 106.885L153.911 109.399L149.406 109.711L149.707 114.048L147.089 114.23ZM166.342 110.978C166.733 110.951 167.099 110.869 167.44 110.733C167.782 110.597 168.071 110.416 168.308 110.189C168.558 109.961 168.744 109.703 168.864 109.414C168.998 109.11 169.052 108.776 169.026 108.413C168.995 107.966 168.871 107.596 168.655 107.302C168.437 106.994 168.146 106.755 167.784 106.584C167.434 106.397 167.026 106.278 166.559 106.226C166.091 106.161 165.585 106.147 165.041 106.184L164.433 106.227L164.276 103.964L164.779 103.929C165.868 103.854 166.714 103.605 167.316 103.185C167.932 102.749 168.215 102.175 168.165 101.463C168.142 101.128 168.052 100.839 167.895 100.597C167.751 100.355 167.562 100.157 167.327 100.005C167.092 99.8533 166.825 99.7455 166.526 99.682C166.226 99.6046 165.922 99.5766 165.615 99.5979C164.735 99.659 164.047 99.9593 163.551 100.499C163.068 101.024 162.82 101.686 162.805 102.487L160.061 102.678C160.123 101.144 160.627 99.916 161.573 98.9943C162.533 98.0576 163.885 97.5287 165.631 97.4075C166.26 97.3639 166.887 97.3976 167.512 97.5086C168.151 97.6186 168.72 97.8247 169.218 98.127C169.73 98.4282 170.15 98.8271 170.48 99.3235C170.823 99.8189 171.019 100.423 171.068 101.135C171.12 101.875 170.97 102.552 170.62 103.166C170.269 103.766 169.811 104.247 169.247 104.609C169.649 104.749 170.013 104.941 170.339 105.185C170.664 105.415 170.942 105.691 171.175 106.011C171.407 106.318 171.585 106.657 171.709 107.027C171.846 107.382 171.927 107.748 171.953 108.126C172.007 108.894 171.9 109.582 171.634 110.19C171.366 110.784 170.974 111.295 170.456 111.724C169.951 112.138 169.35 112.467 168.651 112.712C167.952 112.957 167.205 113.107 166.409 113.162C165.543 113.223 164.752 113.144 164.035 112.927C163.332 112.709 162.721 112.394 162.201 111.981C161.694 111.553 161.28 111.042 160.958 110.446C160.636 109.851 160.43 109.206 160.339 108.511L163.063 108.322C163.145 108.695 163.268 109.051 163.432 109.391C163.609 109.729 163.833 110.022 164.103 110.27C164.387 110.517 164.709 110.705 165.069 110.835C165.442 110.963 165.867 111.011 166.342 110.978ZM180.053 112.216C179.033 112.286 178.126 112.153 177.33 111.815C176.549 111.476 175.876 110.976 175.31 110.313C174.759 109.65 174.317 108.846 173.985 107.9C173.667 106.954 173.468 105.901 173.387 104.742C173.308 103.597 173.36 102.534 173.545 101.553C173.743 100.571 174.07 99.7198 174.525 99.0006C174.994 98.2664 175.592 97.6846 176.32 97.2552C177.061 96.8108 177.941 96.5532 178.961 96.4825C179.966 96.4127 180.86 96.5471 181.641 96.8859C182.435 97.2096 183.108 97.7032 183.659 98.3667C184.224 99.0152 184.665 99.8125 184.983 100.759C185.315 101.704 185.521 102.749 185.601 103.895C185.681 105.054 185.622 106.124 185.424 107.106C185.239 108.088 184.913 108.945 184.444 109.679C183.99 110.413 183.392 111.001 182.651 111.446C181.924 111.889 181.058 112.146 180.053 112.216ZM179.901 110.037C180.935 109.965 181.683 109.415 182.144 108.387C182.606 107.358 182.774 105.929 182.647 104.1C182.52 102.27 182.158 100.892 181.56 99.9649C180.961 99.024 180.145 98.5895 179.112 98.6612C178.078 98.7329 177.323 99.2765 176.846 100.292C176.382 101.293 176.214 102.708 176.341 104.537C176.468 106.367 176.831 107.759 177.431 108.714C178.044 109.668 178.868 110.109 179.901 110.037ZM193.944 111.252C192.924 111.322 192.017 111.189 191.222 110.851C190.44 110.512 189.767 110.012 189.202 109.349C188.651 108.686 188.209 107.882 187.877 106.936C187.558 105.99 187.359 104.937 187.278 103.778C187.199 102.633 187.252 101.57 187.436 100.589C187.635 99.6064 187.961 98.7558 188.417 98.0365C188.885 97.3023 189.483 96.7205 190.211 96.2911C190.952 95.8467 191.832 95.5891 192.852 95.5184C193.858 95.4486 194.751 95.5831 195.532 95.9218C196.327 96.2456 196.999 96.7392 197.551 97.4026C198.115 98.0511 198.556 98.8485 198.875 99.7947C199.207 100.74 199.413 101.785 199.492 102.93C199.573 104.09 199.514 105.16 199.315 106.142C199.131 107.124 198.804 107.981 198.336 108.715C197.882 109.449 197.284 110.037 196.543 110.482C195.816 110.925 194.949 111.182 193.944 111.252ZM193.793 109.073C194.826 109.001 195.574 108.451 196.036 107.423C196.498 106.394 196.665 104.965 196.538 103.135C196.411 101.306 196.049 99.9276 195.451 99.0008C194.853 98.06 194.037 97.6254 193.003 97.6972C191.97 97.7689 191.215 98.3125 190.738 99.3279C190.274 100.328 190.105 101.743 190.232 103.573C190.359 105.403 190.723 106.795 191.322 107.75C191.936 108.703 192.759 109.145 193.793 109.073ZM212.252 113.391L212.008 109.872C211.226 109.926 210.478 109.873 209.765 109.711C209.052 109.55 208.415 109.258 207.852 108.834C207.303 108.409 206.851 107.851 206.494 107.16C206.15 106.454 205.942 105.584 205.871 104.551C205.803 103.573 205.891 102.718 206.135 101.985C206.392 101.238 206.762 100.616 207.247 100.119C207.745 99.6071 208.335 99.2153 209.018 98.9434C209.701 98.6714 210.433 98.5083 211.215 98.4541L210.944 94.5365L213.667 94.3475L213.939 98.2651C214.721 98.2108 215.469 98.2711 216.183 98.4461C216.897 98.6211 217.528 98.9281 218.078 99.3671C218.641 99.7912 219.094 100.356 219.438 101.062C219.794 101.753 220.007 102.587 220.075 103.565C220.146 104.598 220.054 105.489 219.797 106.237C219.553 106.969 219.182 107.584 218.683 108.082C218.198 108.579 217.614 108.956 216.93 109.214C216.246 109.472 215.513 109.628 214.731 109.683L214.976 113.202L212.252 113.391ZM211.371 100.696C210.519 100.755 209.854 101.075 209.375 101.655C208.909 102.221 208.721 103.153 208.811 104.452C208.856 105.094 208.956 105.628 209.111 106.052C209.281 106.475 209.494 106.811 209.75 107.06C210.005 107.295 210.311 107.456 210.667 107.544C211.024 107.631 211.419 107.66 211.852 107.63L211.371 100.696ZM214.576 107.441C215.009 107.411 215.396 107.328 215.737 107.192C216.079 107.056 216.359 106.854 216.579 106.586C216.798 106.304 216.956 105.943 217.051 105.501C217.161 105.058 217.193 104.516 217.149 103.873C217.104 103.231 216.997 102.691 216.826 102.254C216.668 101.802 216.454 101.445 216.183 101.183C215.925 100.906 215.618 100.717 215.26 100.615C214.916 100.513 214.527 100.477 214.094 100.507L214.576 107.441ZM227.872 106.666C228.668 106.61 229.259 106.232 229.646 105.532C230.046 104.831 230.208 103.928 230.131 102.825C230.055 101.722 229.77 100.85 229.276 100.211C228.796 99.5565 228.158 99.257 227.362 99.3123C226.565 99.3675 225.946 99.7403 225.503 100.431C225.073 101.12 224.898 102.03 224.976 103.162C225.057 104.321 225.357 105.212 225.878 105.836C226.411 106.444 227.076 106.721 227.872 106.666ZM222.836 112.657L221.799 97.7196L224.69 97.5189L224.79 98.9644C225.061 98.4124 225.472 97.9699 226.024 97.6368C226.576 97.2898 227.207 97.0916 227.92 97.0422C228.618 96.9937 229.27 97.0888 229.876 97.3274C230.496 97.565 231.033 97.9277 231.488 98.4154C231.957 98.9021 232.335 99.5003 232.623 100.21C232.925 100.919 233.107 101.713 233.168 102.593C233.231 103.501 233.162 104.327 232.961 105.07C232.774 105.813 232.475 106.458 232.064 107.006C231.665 107.539 231.176 107.966 230.595 108.287C230.027 108.607 229.402 108.791 228.717 108.838C228.131 108.879 227.528 108.794 226.91 108.585C226.292 108.375 225.78 107.969 225.373 107.365L225.727 112.456L222.836 112.657ZM237.743 96.6131L238.525 107.884L235.634 108.085L234.852 96.8137L237.743 96.6131ZM237.471 92.6955L237.657 95.377L234.766 95.5777L234.58 92.8961L237.471 92.6955ZM245.338 95.8334C245.938 95.7917 246.523 95.8353 247.094 95.9641C247.678 96.0919 248.212 96.3075 248.696 96.6107C249.181 96.9139 249.594 97.3132 249.937 97.8086C250.28 98.3041 250.525 98.8976 250.671 99.5891L247.906 99.781C247.757 99.258 247.462 98.8365 247.018 98.5164C246.588 98.1814 246.08 98.0343 245.493 98.075C244.697 98.1302 244.076 98.4821 243.63 99.1305C243.197 99.778 243.023 100.695 243.105 101.882C243.187 103.07 243.481 103.968 243.987 104.579C244.505 105.174 245.183 105.443 246.021 105.385C246.552 105.348 247.017 105.175 247.417 104.867C247.831 104.558 248.111 104.054 248.259 103.356L251.025 103.164C250.91 103.944 250.697 104.611 250.385 105.166C250.071 105.707 249.689 106.155 249.236 106.509C248.797 106.862 248.304 107.128 247.755 107.307C247.206 107.485 246.631 107.595 246.03 107.637C245.164 107.697 244.386 107.603 243.695 107.357C243.005 107.11 242.404 106.745 241.893 106.261C241.381 105.763 240.975 105.167 240.674 104.472C240.387 103.762 240.213 102.981 240.154 102.129C240.095 101.277 240.166 100.48 240.367 99.7359C240.582 98.9912 240.916 98.3435 241.369 97.7928C241.821 97.2282 242.379 96.7755 243.043 96.4347C243.707 96.0939 244.472 95.8935 245.338 95.8334ZM252.962 106.882L252.18 95.6111L262.257 94.9118L263.039 106.183L260.148 106.383L259.524 97.3959L255.229 97.694L255.853 106.681L252.962 106.882ZM268.042 94.5103L268.824 105.781L265.933 105.982L265.151 94.7109L268.042 94.5103ZM267.77 90.5927L267.956 93.2742L265.065 93.4749L264.879 90.7933L267.77 90.5927ZM271.723 105.58L270.94 94.3091L273.832 94.1085L274.134 98.466L278.827 98.1403L278.524 93.7828L281.415 93.5821L282.197 104.853L279.306 105.054L278.985 100.424L274.292 100.749L274.614 105.379L271.723 105.58ZM287.191 93.1813L287.973 104.452L285.082 104.653L284.3 93.3819L287.191 93.1813ZM286.919 89.2637L287.105 91.9453L284.214 92.1459L284.028 89.4644L286.919 89.2637ZM290.872 104.251L290.09 92.9801L295.641 92.5948C296.242 92.5532 296.804 92.5563 297.326 92.6042C297.863 92.6512 298.334 92.7728 298.741 92.9692C299.147 93.1655 299.475 93.4444 299.725 93.806C299.975 94.1676 300.12 94.6417 300.161 95.2283C300.237 96.3316 299.816 97.1397 298.897 97.6526C299.455 97.7963 299.922 98.0656 300.301 98.4603C300.692 98.8402 300.912 99.3862 300.962 100.099C301.004 100.713 300.929 101.252 300.737 101.714C300.544 102.162 300.254 102.54 299.868 102.848C299.482 103.141 299.014 103.37 298.464 103.535C297.928 103.698 297.331 103.803 296.675 103.848L290.872 104.251ZM293.606 101.788L296.225 101.606C297.565 101.513 298.206 101.034 298.146 100.168C298.115 99.7207 297.918 99.4116 297.555 99.2403C297.205 99.0541 296.695 98.9842 296.025 99.0307L293.427 99.211L293.606 101.788ZM293.296 97.3256L295.747 97.1554C296.292 97.1176 296.712 96.9973 297.006 96.7944C297.3 96.5776 297.432 96.2596 297.403 95.8406C297.373 95.4077 297.2 95.132 296.883 95.0137C296.565 94.8814 296.127 94.8346 295.568 94.8734L293.138 95.042L293.296 97.3256Z" fill="white"/>
</svg>
